<svg width="280" height="278" viewBox="0 0 280 278" fill="none" xmlns="http://www.w3.org/2000/svg">
<path d="M272.111 27.6362H206.033V96.5181H272.111V27.6362Z" fill="#E0E0E0"/>
<path d="M267.636 27.6362H201.558V96.5181H267.636V27.6362Z" fill="#FAFAFA"/>
<path d="M267.655 96.5365H201.533V27.6113H267.655V96.5365ZM201.577 96.4932H267.611V27.6547H201.577V96.4932Z" fill="#E0E0E0"/>
<path d="M258.754 36.8955H210.44V87.2587H258.754V36.8955Z" fill="#FAFAFA"/>
<path d="M210.44 87.5867C210.099 88.0953 209.698 88.5608 209.245 88.9731C208.478 89.7901 207.388 90.8918 206.15 92.0678C204.913 93.2438 203.817 94.3331 202.994 95.0882C202.577 95.5301 202.11 95.9207 201.601 96.2518C201.942 95.7484 202.338 95.2853 202.783 94.8716C203.557 94.0608 204.64 92.9529 205.878 91.7769C207.116 90.6009 208.218 89.5116 209.041 88.7503C209.46 88.3087 209.929 87.9182 210.44 87.5867Z" fill="#E0E0E0"/>
<path d="M258.754 87.4629C259.258 87.8069 259.722 88.2077 260.134 88.6574C260.951 89.4311 262.053 90.5143 263.229 91.7521C264.405 92.99 265.494 94.0855 266.256 94.9087C266.698 95.3257 267.086 95.7955 267.413 96.3075C266.911 95.9634 266.448 95.5649 266.033 95.1192C265.222 94.3455 264.114 93.2624 262.938 92.0245C261.762 90.7866 260.673 89.6849 259.918 88.8617C259.47 88.4488 259.079 87.9785 258.754 87.4629Z" fill="#E0E0E0"/>
<path d="M258.618 37.0255C258.963 36.5198 259.363 36.0547 259.812 35.6391C260.58 34.8283 261.669 33.7266 262.907 32.5444C264.145 31.3622 265.241 30.2853 266.064 29.524C266.484 29.0839 266.953 28.6934 267.463 28.3604C267.122 28.8657 266.723 29.329 266.274 29.7406C265.501 30.5576 264.417 31.6593 263.18 32.8353C261.942 34.0113 260.84 35.1068 260.017 35.8619C259.602 36.3081 259.132 36.6992 258.618 37.0255Z" fill="#E0E0E0"/>
<path d="M210.31 37.1492C209.802 36.8095 209.337 36.4106 208.923 35.9608C208.106 35.1871 207.005 34.104 205.829 32.8661C204.653 31.6282 203.563 30.5389 202.802 29.7157C202.362 29.2972 201.973 28.8276 201.645 28.3169C202.149 28.6586 202.612 29.0573 203.025 29.5053C203.836 30.2727 204.943 31.3621 206.119 32.6C207.295 33.8378 208.385 34.9396 209.146 35.7627C209.586 36.1785 209.977 36.6437 210.31 37.1492Z" fill="#E0E0E0"/>
<path d="M258.618 87.2526C258.618 87.2526 258.618 87.1659 258.618 87.0112C258.618 86.8564 258.618 86.6088 258.618 86.3056C258.618 85.6866 258.618 84.7644 258.618 83.5884C258.618 81.1993 258.618 77.7333 258.569 73.3264C258.569 64.5065 258.513 51.9358 258.476 36.8956L258.661 37.0813H210.489L210.7 36.8708C210.7 55.3524 210.7 72.6456 210.7 87.2278L210.514 87.0483L245.397 87.1411L255.195 87.1907H257.789H258.457H258.692C258.622 87.1966 258.552 87.1966 258.482 87.1907H257.832H255.276L245.515 87.2402L210.514 87.333H210.328V87.1473C210.328 72.5651 210.328 55.2719 210.297 36.7904V36.5737H210.52H258.692H258.878V36.7594C258.841 51.8492 258.81 64.457 258.785 73.3078C258.785 77.6961 258.748 81.156 258.736 83.5265C258.736 84.6901 258.736 85.5876 258.736 86.2127C258.736 86.5036 258.736 86.7264 258.736 86.8936C258.714 87.0183 258.674 87.1392 258.618 87.2526Z" fill="#E0E0E0"/>
<path d="M236.008 56.6517C235.138 55.3627 233.937 54.3317 232.531 53.6667C231.125 53.0017 229.567 52.7272 228.018 52.8722C226.47 53.0172 224.989 53.5762 223.731 54.4906C222.473 55.4049 221.484 56.641 220.869 58.0691C220.387 59.2859 220.151 60.5857 220.172 61.8941C220.193 63.2025 220.472 64.4939 220.993 65.6944C222.056 68.0947 223.788 70.1382 225.981 71.5806C231.632 75.4304 239.821 75.2571 245.076 70.8812C247.099 69.3065 248.475 67.0452 248.944 64.5246C249.159 63.0613 248.96 61.5668 248.369 60.2109C247.778 58.855 246.818 57.692 245.599 56.854C244.38 56.0161 242.951 55.5367 241.473 55.4703C239.996 55.4039 238.529 55.7531 237.24 56.4784" fill="#E0E0E0"/>
<path d="M236.033 56.6458C235.846 55.9606 235.423 55.3636 234.839 54.9603C234.254 54.5571 233.546 54.3736 232.839 54.4424L234.727 56.6891C234.21 56.7633 233.721 56.9745 233.313 57.3011C232.905 57.6276 232.592 58.0574 232.406 58.546C232.313 58.775 232.288 59.0968 232.505 59.2144C232.584 59.2382 232.666 59.2461 232.748 59.2376C232.83 59.2291 232.909 59.2044 232.982 59.1649L235.278 58.2117C235.436 59.4939 235.906 60.7179 236.646 61.7768C237.172 60.6526 237.467 59.4338 237.512 58.1932L240.05 59.3134C239.846 58.589 239.43 57.9422 238.855 57.4566C239.607 57.3103 240.326 57.0293 240.978 56.6272C241.176 56.5034 241.393 56.293 241.3 56.0826C241.207 55.8721 241.028 55.8721 240.848 55.8597C239.173 55.6971 237.487 56.0468 236.014 56.8624" fill="#EBEBEB"/>
<path d="M235.866 57.5926C236.263 55.0252 236.051 52.4005 235.247 49.9301C235.866 49.7939 236.596 49.7073 236.986 50.1839C237.185 50.4873 237.275 50.8499 237.24 51.2113C237.269 53.6327 236.808 56.0349 235.884 58.2734" fill="#EBEBEB"/>
<path d="M223.543 66.7838C223.391 66.6725 223.258 66.539 223.147 66.3877C222.819 65.992 222.535 65.5625 222.299 65.1065C221.493 63.5932 221.208 61.8567 221.487 60.1653C221.767 58.4738 222.596 56.9215 223.846 55.7481C224.223 55.3925 224.638 55.0791 225.084 54.8135C225.236 54.703 225.405 54.6193 225.585 54.5659C225.031 54.9725 224.504 55.415 224.007 55.8904C222.836 57.0655 222.061 58.5767 221.79 60.2134C221.519 61.85 221.766 63.5303 222.497 65.0198C222.807 65.6296 223.157 66.2188 223.543 66.7838Z" fill="white"/>
<path d="M226.086 68.715C226.086 68.7831 225.659 68.715 225.257 68.4056C224.855 68.0961 224.638 67.7866 224.7 67.7247C224.762 67.6628 225.047 67.9166 225.418 68.1828C225.789 68.4489 226.117 68.6408 226.086 68.715Z" fill="white"/>
<path d="M122.94 7.56982H30.9099V103.506H122.94V7.56982Z" fill="#E0E0E0"/>
<path d="M116.707 7.56982H24.6772V103.506H116.707V7.56982Z" fill="#FAFAFA"/>
<path d="M116.738 103.53H24.6462V7.53906H116.738V103.53ZM24.7205 103.475H116.676V7.59477H24.7205V103.475Z" fill="#E0E0E0"/>
<path d="M104.335 20.4624H37.0498V90.6007H104.335V20.4624Z" fill="#FAFAFA"/>
<path d="M37.0498 91.0712C36.5713 91.7752 36.0148 92.423 35.391 93.0023C34.3141 94.1349 32.8039 95.6699 31.1142 97.3348C29.4244 98.9998 27.8647 100.485 26.7135 101.537C25.5623 102.59 24.8567 103.221 24.77 103.159C25.245 102.456 25.7995 101.81 26.4226 101.234C27.4995 100.102 29.0098 98.5665 30.7118 96.9016C32.4139 95.2366 33.9675 93.7388 35.1125 92.6804C36.2575 91.622 36.9941 91.0093 37.0498 91.0712Z" fill="#E0E0E0"/>
<path d="M104.335 90.9226C105.04 91.4023 105.688 91.9609 106.266 92.5876C107.398 93.6583 108.933 95.1685 110.598 96.8644C112.263 98.5603 113.749 100.108 114.807 101.259C115.422 101.839 115.964 102.492 116.423 103.202C115.721 102.728 115.077 102.173 114.504 101.55C113.365 100.479 111.83 98.9626 110.171 97.2667C108.513 95.5708 107.009 94.0049 105.956 92.8599C104.904 91.7149 104.273 90.9536 104.335 90.9226Z" fill="#E0E0E0"/>
<path d="M104.149 20.6543C104.623 19.9486 105.178 19.3005 105.802 18.7232C106.872 17.5844 108.383 16.0494 110.078 14.3906C111.774 12.7319 113.328 11.2402 114.473 10.1818C115.054 9.56724 115.706 9.02485 116.416 8.56641C116.478 8.62211 115.841 9.35246 114.764 10.4851C113.687 11.6178 112.177 13.1589 110.481 14.8177C108.785 16.4765 107.225 17.9805 106.074 19.0327C104.923 20.0849 104.205 20.7162 104.149 20.6543Z" fill="#E0E0E0"/>
<path d="M36.8641 20.8217C36.1563 20.3481 35.508 19.7912 34.933 19.1629C33.8004 18.0859 32.2654 16.5819 30.6004 14.886C28.9355 13.1901 27.4438 11.6366 26.3916 10.4915C25.7781 9.90829 25.234 9.25615 24.77 8.54808C24.8319 8.48618 25.5623 9.12369 26.6949 10.1945C27.8276 11.2652 29.3687 12.7878 31.0275 14.4837C32.6863 16.1796 34.1841 17.7393 35.2425 18.8906C35.857 19.4683 36.4013 20.1165 36.8641 20.8217Z" fill="#E0E0E0"/>
<path d="M104.149 90.6068C104.149 90.6068 104.149 90.483 104.149 90.2664C104.149 90.0498 104.149 89.7032 104.149 89.2885C104.149 88.4013 104.149 87.1387 104.149 85.5006C104.149 82.1769 104.112 77.3429 104.081 71.2031C104.081 58.9171 104 41.4197 103.951 20.45L104.205 20.7099L37.1116 20.7471L37.4087 20.45C37.4087 46.1979 37.3778 70.2808 37.3654 90.5944L37.1116 90.3345L85.6984 90.4707L99.3461 90.5326L102.954 90.5635H103.889C103.996 90.5556 104.104 90.5556 104.211 90.5635C104.114 90.5695 104.017 90.5695 103.92 90.5635H103.01L99.4513 90.5944L85.8346 90.6625L37.0869 90.7925H36.8331V90.5387C36.8331 70.2251 36.8022 46.1422 36.7898 20.3943V20.0972H37.0931L104.186 20.1343H104.452V20.3943C104.403 41.4382 104.353 58.979 104.322 71.3021C104.322 77.4172 104.273 82.2326 104.254 85.5377C104.254 87.1593 104.254 88.4096 104.223 89.2513C104.223 89.6537 104.223 89.9693 104.223 90.1983C104.214 90.3368 104.189 90.4739 104.149 90.6068Z" fill="#E0E0E0"/>
<path d="M70.4045 33.6709C70.1755 34.4446 66.2328 40.6587 60.5509 42.7693C54.8691 44.8799 50.6479 47.2195 52.22 49.9985C53.7921 52.7776 60.78 51.2674 60.78 51.2674C60.78 51.2674 46.6124 66.6666 59.9506 75.4679C76.2101 86.1942 93.2062 47.7827 93.2062 47.7827L70.4045 33.6709Z" fill="#EBEBEB"/>
<path d="M90.5263 53.0559C90.4829 53.1302 85.1229 49.9612 78.5559 45.9195C71.989 41.8779 66.6971 38.5975 66.7404 38.4923C66.7837 38.387 72.1437 41.587 78.7169 45.6286C85.29 49.6703 90.5696 52.9817 90.5263 53.0559Z" fill="#E0E0E0"/>
<path d="M88.0134 57.661C87.9639 57.7353 82.1768 54.3373 75.0775 50.0728C67.9783 45.8083 62.2593 42.2928 62.3026 42.2185C62.3459 42.1442 68.133 45.5422 75.2385 49.8067C82.3439 54.0712 88.0567 57.5868 88.0134 57.661Z" fill="#E0E0E0"/>
<path d="M84.9744 62.0246C84.9249 62.0989 78.426 58.2738 70.4479 53.4832C62.4697 48.6926 56.0389 44.7438 56.0822 44.6757C56.1256 44.6076 62.6306 48.4265 70.6088 53.2171C78.5869 58.0077 85.0177 61.9565 84.9744 62.0246Z" fill="#E0E0E0"/>
<path d="M81.1802 67.4027C81.1307 67.477 76.0926 64.4009 69.9217 60.5387C63.7509 56.6765 58.7808 53.4828 58.8303 53.4147C58.8798 53.3466 63.9118 56.4165 70.0888 60.2787C76.2659 64.1409 81.2236 67.3532 81.1802 67.4027Z" fill="#E0E0E0"/>
<path d="M76.7115 72.6453C76.6682 72.7134 71.9766 69.6867 66.2329 65.8803C60.4891 62.0738 55.878 58.9296 55.9213 58.8615C55.9646 58.7934 60.6624 61.82 66.4062 65.6265C72.1499 69.433 76.7672 72.571 76.7115 72.6453Z" fill="#E0E0E0"/>
<path d="M71.0296 76.2599C70.7805 76.1755 70.5418 76.0634 70.3178 75.9257C69.8722 75.6967 69.2285 75.3439 68.461 74.9045C66.8889 74.0194 64.7473 72.7444 62.4263 71.2589C60.1053 69.7734 58.0566 68.3561 56.5959 67.2977C55.8655 66.7654 55.2837 66.3321 54.8876 66.0227C54.6625 65.8778 54.4548 65.7075 54.2687 65.5151C54.5047 65.6285 54.7286 65.7653 54.9371 65.9236L56.7073 67.1182C58.1989 68.1333 60.26 69.5197 62.5749 70.9989C64.8897 72.4782 67.0127 73.7842 68.5538 74.7126L70.4106 75.8267C70.6313 75.9494 70.8387 76.0946 71.0296 76.2599Z" fill="#E0E0E0"/>
<path d="M57.6915 51.6138C56.5649 51.3301 55.4994 50.8435 54.5472 50.1778C53.5433 49.5945 52.6523 48.8356 51.9167 47.9373C51.9786 47.8692 53.1175 48.909 54.7144 49.9179C56.3112 50.9267 57.7286 51.5333 57.6915 51.6138Z" fill="#E0E0E0"/>
<path d="M92.1479 46.978C92.0913 47.096 92.0228 47.208 91.9437 47.3123L91.3247 48.2283C90.7739 49.0267 89.9569 50.1656 88.9356 51.5706C86.8931 54.3682 83.9841 58.1932 80.7223 62.3401C77.4605 66.487 74.3534 70.1511 72.0571 72.7754C70.9244 74.0876 70.0022 75.1398 69.3523 75.8701L68.6158 76.6872C68.5334 76.7899 68.44 76.8833 68.3373 76.9657C68.4054 76.8531 68.4841 76.7474 68.5725 76.65L69.2781 75.7897L71.9148 72.6393C74.1367 69.984 77.1819 66.289 80.4685 62.1544C83.7551 58.0199 86.6579 54.2134 88.7499 51.4468L91.2257 48.1664L91.9065 47.2813C91.9793 47.1743 92.06 47.0729 92.1479 46.978Z" fill="#E0E0E0"/>
<path d="M87.5368 43.6975C87.6049 43.7532 81.9663 51.1248 74.9228 60.1613C67.8793 69.1979 62.1293 76.489 62.0674 76.4333C62.0055 76.3776 67.6379 69.006 74.6814 59.9695C81.7249 50.9329 87.4687 43.648 87.5368 43.6975Z" fill="#E0E0E0"/>
<path d="M81.106 40.0518C81.0623 40.1808 81.002 40.3035 80.9265 40.4169L80.3447 41.4382C79.8372 42.3171 79.0697 43.5797 78.0794 45.1023C76.105 48.197 73.1712 52.2511 69.7051 56.596C66.239 60.941 62.9772 64.7598 60.6191 67.5265L57.8091 70.7883L57.0292 71.6672C56.9457 71.7747 56.8502 71.8723 56.7445 71.9581C56.815 71.8418 56.8957 71.732 56.9859 71.6301L57.7162 70.7141L60.452 67.3903C62.773 64.5865 66.0224 60.7491 69.4637 56.4042C72.905 52.0592 75.8821 48.0051 77.8937 44.9847C78.9088 43.4745 79.701 42.2366 80.2457 41.3763L80.8646 40.386C80.9366 40.2687 81.0173 40.157 81.106 40.0518Z" fill="#E0E0E0"/>
<path d="M75.8325 37.0315C75.9006 37.0811 71.0853 43.4561 65.0816 51.2672C59.0778 59.0782 54.1511 65.3666 54.083 65.3171C54.0149 65.2676 58.8303 58.8925 64.834 51.0815C70.8377 43.2705 75.7645 36.982 75.8325 37.0315Z" fill="#E0E0E0"/>
<path d="M71.8652 34.4443C71.7154 34.7401 71.5458 35.0255 71.3576 35.2985C71.1843 35.5708 70.9739 35.9174 70.7016 36.2578C70.4292 36.5982 70.1445 37.0501 69.7731 37.4957C68.9443 38.5444 68.0513 39.5407 67.0993 40.479C65.9334 41.6226 64.6928 42.6875 63.3857 43.6665C62.0598 44.6269 60.6725 45.4994 59.2326 46.2785C58.0525 46.9055 56.8351 47.4595 55.587 47.9372C55.0609 48.1601 54.5658 48.3086 54.1387 48.4571C53.7117 48.6057 53.3341 48.7109 53.0246 48.7914C52.7105 48.897 52.3872 48.9737 52.0591 49.0204C52.3591 48.8825 52.6695 48.7687 52.9875 48.68C53.2908 48.5809 53.6621 48.4571 54.0768 48.2962C54.4915 48.1353 54.9867 47.9682 55.5066 47.7392C56.7331 47.2326 57.9315 46.6603 59.0964 46.0247C60.5198 45.2412 61.8925 44.3689 63.2062 43.4128C64.5075 42.4442 65.7477 41.3962 66.9198 40.2748C67.8741 39.3533 68.7771 38.3801 69.6246 37.3595C70.0022 36.9325 70.2993 36.5178 70.584 36.165C70.8687 35.8122 71.0915 35.5027 71.2772 35.2428C71.451 34.961 71.6476 34.6939 71.8652 34.4443Z" fill="#E0E0E0"/>
<path d="M54.4606 220.096C54.1945 220.157 56.1875 230.197 56.1875 230.197H61.3061L63.5652 220.492C60.631 219.49 57.4708 219.352 54.4606 220.096Z" fill="#E0E0E0"/>
<path d="M51.3782 276.605C51.3782 276.605 43.8519 255.561 44.9041 249.811C45.9563 244.061 48.2216 242.885 50.0227 241.078C51.8238 239.27 53.3402 237.766 53.7921 235.959C54.2439 234.152 53.7921 226.922 53.7921 226.922C53.7921 226.922 52.4366 224.818 52.8884 224.063C53.3402 223.308 64.4812 224.063 64.4812 224.063C64.4184 224.983 64.106 225.869 63.5775 226.625C63.5775 226.625 63.2742 235.055 63.7261 235.959C64.1779 236.863 71.1038 244.544 72.156 248.455C73.2082 252.367 67.9967 276.605 67.9967 276.605H51.3782Z" fill="#F5F5F5"/>
<path d="M51.3783 276.605C51.4773 276.599 51.5764 276.599 51.6754 276.605H52.5233H55.7913L67.9968 276.549L67.8978 276.629C68.5167 273.535 69.2347 270.093 69.9403 266.268C70.6459 262.443 71.3762 258.278 71.89 253.809C72.0076 252.689 72.119 251.55 72.1437 250.399C72.171 249.827 72.1357 249.254 72.0385 248.69C71.8886 248.128 71.6812 247.583 71.4196 247.063C70.2676 244.919 68.9231 242.885 67.4027 240.985C66.6414 239.994 65.8553 239.01 65.0569 238.014C64.6546 237.519 64.2522 237.023 63.8623 236.503C63.7596 236.369 63.6646 236.228 63.5776 236.083C63.5133 235.915 63.4696 235.741 63.4476 235.563C63.3981 235.235 63.3795 234.913 63.361 234.585C63.2496 231.979 63.3238 229.336 63.4043 226.662V226.619V226.576C63.5322 226.377 63.6479 226.17 63.7509 225.957C64.0467 225.378 64.2275 224.747 64.2832 224.1L64.4317 224.261C61.8879 224.1 59.3812 223.976 56.924 223.933C55.7173 223.889 54.5089 223.937 53.3094 224.075C53.1998 224.095 53.0935 224.131 52.9937 224.18C52.936 224.282 52.9101 224.398 52.9195 224.515C52.9383 224.794 52.9988 225.07 53.0989 225.332C53.311 225.871 53.5742 226.389 53.885 226.879V226.916V226.953C53.9964 228.878 54.0707 230.772 54.0769 232.635C54.0915 233.563 54.0564 234.49 53.9717 235.414C53.8578 236.337 53.5129 237.216 52.969 237.97C52.4528 238.696 51.8795 239.379 51.2545 240.013C50.6356 240.632 50.0166 241.251 49.3977 241.839C48.7677 242.387 48.1743 242.977 47.6213 243.603C47.1305 244.213 46.7149 244.88 46.3834 245.59C45.723 247.001 45.2666 248.5 45.028 250.04C44.9507 250.774 44.9507 251.515 45.028 252.249C45.0775 252.98 45.1765 253.691 45.2817 254.397C45.7274 257.188 46.3711 259.739 46.9714 262.047C48.2093 266.652 49.3729 270.279 50.1775 272.767C50.5799 274.005 50.8955 274.958 51.1121 275.621C51.2174 275.936 51.2978 276.178 51.3535 276.357C51.4092 276.537 51.4278 276.611 51.4278 276.611L51.3288 276.363C51.2669 276.19 51.174 275.949 51.0626 275.639C50.8274 275.02 50.4932 274.042 50.0723 272.804C49.2368 270.329 48.0422 266.702 46.7796 262.097C46.0709 259.574 45.4924 257.016 45.0465 254.434C44.9413 253.729 44.8361 253.011 44.7804 252.268C44.7002 251.515 44.7002 250.756 44.7804 250.003C45.013 248.435 45.4717 246.908 46.1421 245.472C46.5057 244.723 46.961 244.023 47.4975 243.386C48.0603 242.751 48.6618 242.152 49.2987 241.591C49.9176 241.022 50.5365 240.403 51.1555 239.778C51.7708 239.156 52.3319 238.483 52.8328 237.766C53.3524 237.052 53.6805 236.217 53.786 235.34C53.866 234.428 53.899 233.513 53.885 232.598C53.885 230.741 53.7922 228.884 53.6808 226.935V227.009C53.358 226.501 53.0864 225.962 52.8699 225.4C52.7505 225.106 52.6815 224.794 52.6657 224.477C52.653 224.292 52.7008 224.107 52.8019 223.951C52.944 223.826 53.1213 223.749 53.3094 223.729C54.5289 223.58 55.7584 223.531 56.9859 223.58C59.4616 223.617 61.9374 223.741 64.5122 223.902H64.6731V224.05C64.6265 224.757 64.4325 225.447 64.1037 226.074C63.9932 226.287 63.8713 226.494 63.7385 226.693L63.7695 226.613C63.689 229.28 63.6147 231.923 63.7261 234.504C63.7368 234.821 63.7636 235.137 63.8066 235.451C63.8237 235.597 63.8569 235.74 63.9056 235.878C63.9839 236.008 64.0707 236.132 64.1656 236.25C64.5432 236.763 64.9516 237.259 65.3478 237.754C66.1462 238.75 66.9323 239.734 67.6935 240.731C69.2274 242.648 70.5804 244.704 71.7352 246.871C71.9979 247.412 72.2052 247.978 72.3542 248.56C72.4532 249.149 72.4885 249.747 72.4594 250.343C72.4594 251.513 72.3232 252.658 72.1994 253.778C71.6733 258.265 70.912 262.443 70.2065 266.256C69.5009 270.069 68.7767 273.547 68.1206 276.611V276.697H68.034L55.779 276.648H52.5295H51.694L51.3783 276.605Z" fill="#E0E0E0"/>
<path d="M66.5547 274.426C68.4641 267.382 69.7298 260.179 70.3364 252.905C70.3983 252.076 70.3983 251.117 69.7731 250.566C69.0057 249.897 67.8297 250.256 66.8579 250.566C64.0014 251.469 60.962 251.631 58.0257 251.036C55.1724 250.448 52.3438 249.142 49.4657 249.613C49.1059 249.648 48.7566 249.755 48.438 249.926C48.1194 250.097 47.8376 250.329 47.6089 250.609C47.1385 251.302 47.2499 252.218 47.3861 253.042C48.5126 260.116 50.8212 268.255 52.6966 274.426H66.5547Z" fill="#E0E0E0"/>
<path d="M68.4486 251.432C68.2946 251.661 68.1116 251.869 67.904 252.051C67.3691 252.544 66.7958 252.993 66.1895 253.394C64.1878 254.768 61.8865 255.642 59.4778 255.945C57.0691 256.248 54.623 255.969 52.3438 255.134C51.6589 254.885 50.9945 254.583 50.357 254.23C50.1148 254.112 49.8882 253.964 49.6824 253.79C49.7133 253.735 50.6851 254.341 52.4181 254.917C54.6697 255.677 57.0641 255.919 59.4222 255.623C61.7802 255.327 64.0408 254.502 66.0348 253.209C67.6131 252.218 68.4053 251.389 68.4486 251.432Z" fill="white"/>
<path d="M193.988 137.127C192.061 137.341 190.116 137.341 188.189 137.127C190.116 136.912 192.061 136.912 193.988 137.127Z" fill="#FAFAFA"/>
<path d="M279.724 277.397C279.724 277.49 217.106 277.564 139.88 277.564C62.6553 277.564 0 277.49 0 277.397C0 277.304 62.5996 277.224 139.843 277.224C217.087 277.224 279.724 277.311 279.724 277.397Z" fill="#263238"/>
<path d="M223.759 242.458C226.773 240.291 229.843 238.094 233.334 236.825C236.825 235.557 240.86 235.309 244.166 237.011C246.932 238.435 248.925 241.096 250.07 243.993C251.483 247.59 251.721 251.541 250.751 255.282C250.225 257.3 249.179 259.386 247.26 260.203C245.342 261.02 243.132 260.314 241.226 259.46C234.969 256.649 229.55 252.262 225.498 246.728C225.906 246.403 226.4 246.205 226.92 246.158C227.439 246.112 227.961 246.22 228.42 246.468C229.326 246.98 230.15 247.624 230.865 248.381C233.285 250.574 236.204 252.142 239.369 252.949C241.708 253.568 244.859 253.289 245.645 251.005C246.159 249.514 245.342 247.911 244.549 246.555C243.646 244.989 242.612 243.312 240.916 242.687C239.641 242.222 238.236 242.445 236.899 242.687L222.305 245.193L223.208 244.927" fill="#455A64"/>
<path d="M187.322 45.6099C177.698 42.9237 163.437 46.6621 157.991 55.0364C152.544 63.4107 154.946 75.839 154.518 85.8163C154.091 95.7936 154.518 105.932 152.098 115.631C150.576 121.82 147.661 128.009 142.301 131.445C136.173 135.344 126.988 135.728 124.085 142.387C121.665 147.958 125.422 154.766 122.977 160.337C121.9 162.812 119.715 164.669 118.775 167.176C117.475 170.654 118.898 174.702 121.455 177.395C124.011 180.087 127.508 181.665 130.993 182.965C141.609 186.854 152.892 188.589 164.186 188.071C172.4 187.688 181.213 185.744 186.598 179.536C190.825 174.659 192.218 167.974 192.986 161.587C197.702 122.08 198.556 78.649 187.322 45.6718" fill="#263238"/>
<path d="M133.654 165.499C133.734 165.456 133.295 164.713 132.856 163.234C132.281 161.142 132.158 158.952 132.497 156.809C133.009 153.632 134.195 150.602 135.975 147.921C137.949 144.876 140.809 142.016 143.947 139.2C147.085 136.384 150.211 133.778 152.73 131.061C155.002 128.683 156.893 125.969 158.337 123.015C159.302 121.014 159.902 118.857 160.107 116.646C160.151 116.046 160.151 115.444 160.107 114.845C160.107 114.43 160.058 114.226 160.027 114.226C159.841 114.176 160.336 117.816 157.848 122.792C156.366 125.652 154.47 128.277 152.222 130.584C149.746 133.24 146.608 135.808 143.446 138.631C140.283 141.453 137.399 144.381 135.399 147.537C133.591 150.31 132.419 153.449 131.97 156.728C131.673 158.94 131.885 161.19 132.589 163.308C132.786 163.878 133.035 164.429 133.332 164.954C133.413 165.15 133.521 165.334 133.654 165.499Z" fill="#455A64"/>
<path d="M157.861 236.256L154.642 276.704L251.339 277.18L225.053 240.217L157.861 236.256Z" fill="#263238"/>
<path d="M81.4154 138.971C81.6877 139.206 75.7521 170.877 72.7502 186.735C72.2488 189.387 72.5016 192.128 73.4797 194.644C74.4578 197.161 76.1221 199.352 78.2835 200.97C80.5168 202.64 83.1861 203.627 85.9685 203.811C88.7508 203.996 91.5271 203.37 93.9613 202.01L134.223 181.059L121.894 155.243L96.5175 169.646L98.1887 142.79L81.4154 138.971Z" fill="#FFBE9D"/>
<path d="M95.162 113.786C94.8773 112.654 93.4475 112.14 92.3087 112.425C91.1981 112.814 90.2082 113.486 89.4368 114.374L86.1812 116.349C85.5668 116.756 85.061 117.308 84.7073 117.955C84.3536 118.602 84.1627 119.325 84.1511 120.062C84.1349 121.534 84.3629 122.998 84.8257 124.395C85.1661 125.633 85.6489 127.038 86.8435 127.49C88.1742 127.985 89.6473 126.957 90.2724 125.682C90.8975 124.407 90.9594 122.953 91.2874 121.573C91.6828 119.917 92.4656 118.379 93.5713 117.085C94.3945 116.113 95.4777 115.024 95.162 113.786Z" fill="#EB996E"/>
<path d="M68.1144 115.061C68.0137 114.746 67.9922 114.41 68.052 114.084C68.1118 113.758 68.2509 113.452 68.4571 113.193C68.6632 112.933 68.9301 112.729 69.2341 112.597C69.5381 112.465 69.8699 112.41 70.2002 112.437C76.8105 112.982 92.513 115.179 101.828 117.859C115.036 121.659 123.732 124.116 123.732 124.116L151.783 123.498C151.783 123.498 148.416 133.165 137.727 133.215C129.637 133.252 121.151 128.053 121.151 128.053C121.151 128.053 85.2033 115.81 70.1073 116.473C69.6665 116.492 69.2316 116.365 68.8709 116.11C68.5102 115.856 68.2441 115.489 68.1144 115.068V115.061Z" fill="#455A64"/>
<path d="M146.54 123.578C146.887 124.562 145.742 125.435 144.721 125.62C143.699 125.806 142.53 125.757 141.793 126.487C141.532 126.801 141.341 127.167 141.234 127.561C141.128 127.955 141.107 128.368 141.174 128.771C141.32 129.573 141.417 130.383 141.465 131.197C141.481 131.75 141.289 132.289 140.926 132.707C140.19 133.456 138.834 133.202 138.123 132.435C137.471 131.6 137.116 130.572 137.114 129.514C137.105 128.764 136.994 128.018 136.786 127.298C136.676 126.937 136.472 126.613 136.194 126.358C135.917 126.104 135.576 125.928 135.207 125.849C134.322 125.738 133.543 126.406 132.695 126.704C132.25 126.829 131.784 126.857 131.327 126.786C130.871 126.714 130.436 126.545 130.051 126.289C129.666 126.033 129.342 125.697 129.099 125.304C128.857 124.911 128.703 124.47 128.647 124.011L146.54 123.578Z" fill="#FF725E"/>
<path d="M78.2217 113.52C77.7818 113.765 77.327 113.982 76.86 114.17C74.596 115.089 72.145 115.454 69.7113 115.234C69.2096 115.193 68.7113 115.119 68.2196 115.012C68.2196 115.012 68.362 115.012 68.6157 115.067C68.8695 115.123 69.2347 115.148 69.7113 115.185C70.921 115.282 72.1379 115.241 73.3382 115.061C74.537 114.88 75.712 114.567 76.8414 114.127C77.2747 113.953 77.6213 113.805 77.8565 113.687L78.2217 113.52Z" fill="#263238"/>
<path d="M90.5261 115.297H90.4085L90.0743 115.259C89.7834 115.222 89.3625 115.185 88.8364 115.154C87.4753 115.073 86.1093 115.144 84.7638 115.365C83.4195 115.594 82.1038 115.967 80.8397 116.479C80.3569 116.683 79.967 116.856 79.707 116.986L79.4038 117.129L79.2924 117.172C79.2924 117.172 79.3233 117.172 79.3914 117.104L79.6823 116.937C79.9422 116.794 80.3012 116.609 80.8088 116.398C82.0696 115.856 83.3913 115.467 84.7452 115.241C86.099 115.018 87.4745 114.958 88.8426 115.061C89.3687 115.105 89.7896 115.16 90.0805 115.21L90.4147 115.272L90.5261 115.297Z" fill="#263238"/>
<path d="M99.7237 119.957L98.4301 119.573L96.9199 119.115C96.5925 119.042 96.2949 118.871 96.0658 118.626C96.0084 118.553 95.97 118.467 95.9538 118.375C95.9376 118.283 95.9442 118.189 95.9729 118.1C96.0066 118.008 96.0618 117.925 96.1339 117.858C96.206 117.792 96.293 117.743 96.3876 117.717C96.7911 117.594 97.222 117.594 97.6255 117.717C98.0402 117.797 98.4734 117.89 98.9129 118.014C99.8491 118.277 100.759 118.627 101.63 119.06C102.088 119.289 102.552 119.542 103.004 119.827C103.244 119.956 103.455 120.133 103.623 120.347C103.666 120.407 103.693 120.478 103.702 120.551C103.711 120.625 103.7 120.699 103.673 120.768C103.607 120.898 103.497 121.001 103.363 121.059C102.278 121.477 101.103 121.607 99.9527 121.436C97.5698 121.133 95.5582 119.988 93.7633 119.047C92.1998 118.121 90.5024 117.443 88.7313 117.036C87.5315 116.783 86.2879 116.83 85.1105 117.172C84.7923 117.272 84.4837 117.401 84.1883 117.556C83.9902 117.667 83.885 117.717 83.885 117.717L84.1388 117.537C84.4311 117.377 84.7378 117.244 85.0548 117.141C86.2382 116.787 87.4912 116.734 88.7004 116.986C90.477 117.388 92.1807 118.062 93.7509 118.985C95.552 119.926 97.5636 121.065 99.9403 121.368C101.078 121.536 102.24 121.408 103.314 120.997C103.438 120.949 103.539 120.856 103.598 120.737C103.62 120.677 103.628 120.613 103.62 120.549C103.612 120.486 103.59 120.425 103.555 120.372C103.385 120.166 103.174 119.997 102.936 119.877C102.494 119.596 102.038 119.34 101.568 119.109C100.699 118.677 99.7914 118.327 98.8572 118.063C98.4239 117.939 97.9907 117.84 97.576 117.754C97.1898 117.642 96.78 117.642 96.3938 117.754C96.3063 117.781 96.2259 117.827 96.1585 117.889C96.091 117.951 96.0382 118.028 96.0039 118.113C95.9761 118.195 95.9689 118.282 95.9829 118.367C95.997 118.453 96.0318 118.533 96.0843 118.602C96.3084 118.842 96.5994 119.011 96.9199 119.084L98.4301 119.549L99.7237 119.957Z" fill="#263238"/>
<path d="M106.247 119.394C106.359 119.585 106.434 119.794 106.47 120.013C106.571 120.518 106.508 121.043 106.291 121.511C106.061 121.972 105.693 122.351 105.238 122.594C105.046 122.698 104.836 122.765 104.619 122.792C104.815 122.727 105.006 122.646 105.189 122.55C105.637 122.313 105.998 121.939 106.219 121.483C106.441 121.027 106.511 120.512 106.421 120.013C106.379 119.802 106.321 119.595 106.247 119.394Z" fill="#263238"/>
<path d="M117.636 122.371C117.636 122.371 117.017 122.371 116.051 122.309C115.086 122.247 113.724 122.105 112.226 122.086C110.959 122.04 109.696 122.251 108.513 122.705C108.299 122.783 108.092 122.878 107.894 122.99C107.744 123.061 107.603 123.148 107.473 123.25L107.12 123.485L107.454 123.231C107.583 123.124 107.725 123.033 107.875 122.959C108.073 122.843 108.28 122.743 108.494 122.662C109.692 122.196 110.973 121.985 112.257 122.043C113.761 122.043 115.104 122.222 116.082 122.291C116.571 122.328 116.967 122.359 117.24 122.371H117.636Z" fill="#263238"/>
<path d="M129.513 131.711C129.513 131.711 129.29 131.519 128.894 131.16C128.696 130.98 128.449 130.764 128.152 130.541C127.855 130.318 127.533 130.021 127.137 129.742C126.242 129.065 125.305 128.445 124.333 127.886C121.952 126.526 119.376 125.541 116.695 124.964C115.604 124.723 114.497 124.553 113.384 124.457C112.907 124.395 112.474 124.389 112.096 124.37C111.719 124.352 111.391 124.37 111.125 124.37C111.391 124.37 111.743 124.37 112.096 124.37C112.449 124.37 112.907 124.37 113.384 124.444C114.501 124.539 115.611 124.704 116.707 124.94C118.048 125.229 119.367 125.609 120.656 126.078C121.933 126.58 123.174 127.169 124.37 127.842C125.343 128.401 126.28 129.021 127.174 129.699C127.564 129.971 127.885 130.262 128.183 130.504C128.48 130.745 128.721 130.956 128.913 131.123C129.321 131.506 129.513 131.711 129.513 131.711Z" fill="#263238"/>
<path d="M137.627 131.921C137.431 132.028 137.223 132.113 137.009 132.175C136.433 132.35 135.832 132.423 135.232 132.392C134.341 132.335 133.469 132.109 132.664 131.723C131.686 131.239 130.785 130.613 129.99 129.866C129.129 129.087 128.381 128.282 127.687 127.564C127.081 126.91 126.438 126.29 125.762 125.707C125.307 125.32 124.823 124.968 124.314 124.655C124.135 124.55 123.992 124.463 123.893 124.414L123.751 124.345C124.489 124.702 125.178 125.153 125.8 125.689C126.476 126.264 127.123 126.873 127.737 127.514C128.436 128.232 129.185 129.037 130.039 129.811C130.83 130.555 131.724 131.18 132.695 131.668C133.493 132.053 134.359 132.28 135.245 132.336C135.839 132.376 136.436 132.311 137.009 132.144C137.165 132.1 137.318 132.044 137.467 131.977L137.627 131.921Z" fill="#263238"/>
<path d="M148.255 128.944H148.044C147.902 128.944 147.704 128.944 147.456 128.944C146.81 128.945 146.165 129.012 145.531 129.142C144.892 129.28 144.269 129.488 143.675 129.761C143.452 129.86 143.266 129.953 143.148 130.021C143.086 130.059 143.019 130.09 142.95 130.114C143.175 129.964 143.411 129.832 143.656 129.718C144.832 129.15 146.126 128.872 147.432 128.907C147.706 128.901 147.981 128.913 148.255 128.944Z" fill="#263238"/>
<path d="M71.0171 131.42L70.72 125.633C70.6872 125.009 70.8589 124.392 71.209 123.875L71.2461 123.819C72.2432 122.34 73.5427 121.089 75.0588 120.149L87.5304 112.418C87.7142 112.304 87.9232 112.236 88.1392 112.221C88.3552 112.205 88.5717 112.243 88.7699 112.33C88.9681 112.417 89.142 112.551 89.2765 112.721C89.4111 112.891 89.5022 113.091 89.542 113.304C89.6967 114.325 89.2449 116.652 88.3413 117.58C86.7381 119.04 84.9826 120.322 83.105 121.405L95.6138 118.979C95.9052 119.778 95.8999 120.655 95.5989 121.45C95.2978 122.246 94.721 122.906 93.9736 123.312L99.117 122.222C99.117 122.222 100.801 124.618 98.4981 126.196C96.1956 127.774 92.1044 129.142 92.1044 129.142C92.1044 129.142 98.4857 131.835 98.3371 133.982C98.1886 136.13 98.1019 143.013 98.1019 143.013L80.9573 141.775L71.0171 131.42Z" fill="#FFBE9D"/>
<path d="M83.5569 121.028L83.4393 121.096L83.0803 121.275C82.7709 121.436 82.319 121.659 81.7744 121.95C81.2297 122.241 80.6108 122.637 79.9175 123.089C79.2243 123.541 78.4507 124.005 77.7141 124.574C77.3536 124.85 77.0649 125.209 76.8724 125.62C76.7071 126.011 76.631 126.434 76.6495 126.858C76.6997 127.578 76.8368 128.289 77.058 128.975C77.2002 129.448 77.2976 129.933 77.3489 130.423C77.3702 130.602 77.3702 130.783 77.3489 130.962C77.3489 130.962 77.349 130.77 77.3056 130.423C77.2398 129.94 77.1321 129.464 76.9838 129C76.7454 128.308 76.5976 127.588 76.5443 126.858C76.522 126.42 76.5982 125.982 76.7671 125.577C76.969 125.149 77.2678 124.774 77.6398 124.482C78.0068 124.199 78.3891 123.936 78.7849 123.695L79.868 122.996C80.5551 122.55 81.1864 122.16 81.7249 121.876C82.2633 121.591 82.7337 121.381 83.0556 121.257L83.4207 121.096L83.5569 121.028Z" fill="#EB996E"/>
<path d="M84.7206 134.019C84.7206 134.019 84.6649 133.958 84.5658 133.828L84.1388 133.277L83.4579 132.41C83.1478 132.03 82.8839 131.615 82.6719 131.172C82.4378 130.566 82.3874 129.903 82.5272 129.268C82.667 128.633 82.9907 128.053 83.4579 127.601C84.0293 127.103 84.6799 126.703 85.3828 126.419C86.0884 126.085 86.8312 125.763 87.5987 125.447C90.2302 124.395 92.9336 123.533 95.6882 122.866C96.7404 122.6 97.6007 122.414 98.1949 122.291L98.8757 122.154L99.1171 122.111C99.0401 122.138 98.9616 122.161 98.8819 122.179L98.2011 122.34C97.6131 122.482 96.759 122.681 95.7253 122.959C92.9892 123.654 90.3015 124.526 87.6791 125.571C86.9178 125.887 86.1751 126.19 85.4695 126.537C84.7772 126.816 84.1354 127.207 83.5694 127.694C83.1165 128.129 82.8012 128.688 82.6626 129.301C82.524 129.914 82.5681 130.553 82.7895 131.141C82.9933 131.581 83.2466 131.997 83.5446 132.379C83.7922 132.707 84.015 132.998 84.213 133.258C84.4111 133.518 84.5287 133.691 84.6216 133.828C84.7144 133.964 84.7206 134.019 84.7206 134.019Z" fill="#EB996E"/>
<path d="M97.9906 126.332C97.9011 126.398 97.8058 126.456 97.7059 126.506L96.9075 126.926C96.2329 127.279 95.2921 127.75 94.2213 128.214C93.3084 128.61 92.3745 128.955 91.4237 129.247C91.0585 129.359 90.7614 129.439 90.551 129.489C90.446 129.523 90.3383 129.548 90.2291 129.563C90.3266 129.51 90.4306 129.471 90.5386 129.446L91.3927 129.161C92.1169 128.913 93.101 128.542 94.1718 128.096C95.2425 127.651 96.1833 127.174 96.8704 126.858L97.6812 126.475C97.7793 126.417 97.883 126.369 97.9906 126.332Z" fill="#EB996E"/>
<path d="M134.787 98.7275C134.787 98.7275 134.576 99.0123 134.298 99.5879C133.914 100.407 133.72 101.302 133.728 102.206C133.736 103.548 134.211 104.846 135.071 105.876C135.605 106.46 136.169 107.016 136.761 107.541C137.41 108.112 137.924 108.82 138.265 109.615C138.548 110.442 138.522 111.343 138.191 112.152C137.884 112.894 137.467 113.585 136.953 114.201C136.482 114.82 135.981 115.321 135.529 115.816C135.108 116.277 134.723 116.77 134.378 117.29C133.99 117.772 133.714 118.333 133.567 118.934C133.421 119.536 133.408 120.161 133.53 120.768C133.53 120.768 133.53 120.681 133.468 120.52C133.41 120.277 133.385 120.027 133.394 119.778C133.454 118.863 133.769 117.984 134.304 117.24C134.647 116.714 135.029 116.215 135.449 115.748C135.901 115.241 136.396 114.721 136.86 114.127C137.361 113.518 137.768 112.838 138.067 112.109C138.39 111.319 138.414 110.439 138.135 109.633C137.804 108.856 137.3 108.163 136.662 107.609C136.072 107.078 135.51 106.516 134.978 105.926C134.101 104.876 133.625 103.549 133.635 102.181C133.635 101.264 133.847 100.36 134.254 99.5383C134.401 99.249 134.579 98.977 134.787 98.7275Z" fill="#263238"/>
<path d="M140.462 98.4304C140.462 98.4304 140.252 98.7213 139.973 99.2969C139.592 100.114 139.4 101.007 139.41 101.909C139.411 103.254 139.887 104.556 140.753 105.585C141.236 106.155 141.842 106.675 142.437 107.25C143.089 107.815 143.604 108.523 143.941 109.318C144.223 110.146 144.198 111.049 143.873 111.861C143.563 112.602 143.146 113.292 142.635 113.91C142.158 114.529 141.657 115.024 141.211 115.526C140.79 115.985 140.403 116.476 140.054 116.992C139.529 117.72 139.209 118.575 139.125 119.468C139.117 119.798 139.146 120.129 139.212 120.452C139.184 120.371 139.161 120.289 139.144 120.205C139.089 119.963 139.066 119.716 139.076 119.468C139.136 118.553 139.448 117.672 139.979 116.924C140.326 116.402 140.711 115.905 141.131 115.439C141.576 114.931 142.072 114.411 142.542 113.817C143.041 113.208 143.445 112.528 143.743 111.8C144.066 111.01 144.092 110.131 143.817 109.324C143.482 108.55 142.979 107.86 142.344 107.306C141.725 106.73 141.149 106.21 140.654 105.623C139.776 104.571 139.3 103.242 139.311 101.872C139.314 100.957 139.526 100.056 139.93 99.235C140.08 98.9496 140.258 98.68 140.462 98.4304Z" fill="#263238"/>
<path d="M95.9977 189.631C95.9605 189.631 96.14 184.946 96.4 179.171C96.6599 173.396 96.8951 168.717 96.9261 168.723C96.957 168.73 96.7837 173.403 96.53 179.177C96.2762 184.952 96.0286 189.631 95.9977 189.631Z" fill="#EB996E"/>
<path d="M85.2343 145.47C84.0528 144.334 82.933 143.136 81.8796 141.88C83.0611 143.016 84.1809 144.214 85.2343 145.47Z" fill="#EB996E"/>
<path d="M157.489 234.931L152.451 277.18H222.781L211.065 247.131L227.188 243.306C227.188 243.306 226.105 240.279 225.065 240.211C224.025 240.143 157.489 234.931 157.489 234.931Z" fill="#455A64"/>
<path d="M121.38 154.166C121.38 154.166 148.657 136.501 155.831 134.094C160.244 132.614 173.495 132.379 173.495 132.379L148.657 174.826L134.539 181.696L121.38 154.166Z" fill="#FF725E"/>
<path d="M258.11 183.85C249.78 163.735 236.299 141.007 232.307 137.114C228.315 133.221 203.836 130.077 203.836 130.077L171.737 133.562L146.002 168.841L157.273 223.859L156.889 224.589C156.046 226.212 155.659 228.033 155.768 229.858C155.877 231.683 156.478 233.445 157.508 234.956L225.071 240.242L225.158 188.146L258.11 183.85Z" fill="#FF725E"/>
<path d="M215.831 213.337C215.734 213.494 215.625 213.644 215.503 213.782C215.267 214.061 214.952 214.494 214.481 215.02C213.195 216.49 211.798 217.86 210.303 219.118C205.356 223.302 199.488 226.256 193.179 227.736C186.871 229.216 180.301 229.182 174.009 227.634C172.11 227.171 170.248 226.567 168.438 225.827C167.819 225.573 167.312 225.326 166.978 225.208C166.806 225.137 166.641 225.052 166.483 224.954C166.662 225.006 166.838 225.07 167.009 225.146C167.349 225.276 167.832 225.505 168.482 225.734C175.4 228.42 182.911 229.209 190.237 228.019C197.562 226.828 204.437 223.702 210.149 218.963C211.651 217.727 213.065 216.389 214.382 214.958C214.865 214.463 215.193 214.042 215.447 213.776C215.564 213.621 215.692 213.474 215.831 213.337Z" fill="#263238"/>
<path d="M225.139 186.184C225.083 186.021 225.041 185.853 225.016 185.682L224.719 184.246C224.465 182.959 224.1 181.152 223.679 178.942C222.831 174.43 221.667 168.247 220.386 161.42C220.225 160.566 220.07 159.718 219.916 158.882C219.761 158.047 219.569 157.23 219.482 156.407C219.269 154.832 219.211 153.239 219.309 151.653C219.411 150.221 219.628 148.798 219.959 147.401C220.271 146.189 220.67 145.002 221.153 143.848C221.856 142.18 222.764 140.606 223.858 139.163C224.23 138.637 224.576 138.278 224.787 138.018C224.887 137.879 225.006 137.754 225.139 137.646C225.139 137.646 225.04 137.789 224.836 138.061C224.632 138.334 224.31 138.68 223.963 139.237C222.913 140.694 222.041 142.271 221.364 143.935C220.897 145.081 220.514 146.261 220.219 147.463C219.899 148.847 219.692 150.254 219.6 151.672C219.512 153.238 219.576 154.809 219.792 156.363C219.878 157.18 220.083 157.985 220.225 158.839C220.367 159.693 220.535 160.516 220.695 161.377C221.933 168.185 223.072 174.374 223.895 178.917C224.292 181.139 224.607 182.953 224.83 184.24L225.071 185.689C225.107 185.852 225.13 186.017 225.139 186.184Z" fill="#263238"/>
<path d="M149.319 185.002C149.216 184.708 149.14 184.405 149.09 184.098C148.966 183.448 148.799 182.606 148.595 181.622C148.193 179.518 147.654 176.596 147.079 173.372C146.503 170.147 146.002 167.219 145.655 165.103C145.494 164.081 145.358 163.246 145.259 162.59C145.2 162.284 145.164 161.973 145.154 161.661C145.258 161.955 145.334 162.257 145.383 162.565C145.507 163.184 145.674 164.05 145.878 165.041C146.28 167.151 146.819 170.073 147.394 173.297C147.97 176.522 148.471 179.444 148.818 181.566C148.979 182.582 149.115 183.423 149.214 184.079C149.273 184.384 149.309 184.692 149.319 185.002Z" fill="#263238"/>
<path d="M227.46 156.091C227.64 154.892 227.923 153.712 228.308 152.563C228.594 151.386 228.983 150.236 229.472 149.128C229.289 150.326 229.003 151.506 228.618 152.656C228.337 153.833 227.95 154.983 227.46 156.091Z" fill="#FAFAFA"/>
<path d="M231.081 168.507C230.13 168.079 229.226 167.555 228.383 166.941C227.482 166.407 226.636 165.785 225.857 165.084C227.71 166.041 229.46 167.183 231.081 168.494V168.507Z" fill="#FAFAFA"/>
<path d="M237.914 163.71C237.77 162.64 237.795 161.554 237.989 160.491C238.077 159.415 238.329 158.359 238.738 157.36C238.83 157.36 238.533 158.783 238.311 160.535C238.088 162.286 238.007 163.71 237.914 163.71Z" fill="#FAFAFA"/>
<path d="M239.282 175.718C238.859 174.78 238.495 173.817 238.193 172.833C237.783 171.887 237.43 170.918 237.135 169.93C237.725 170.787 238.182 171.728 238.49 172.722C238.899 173.676 239.166 174.686 239.282 175.718Z" fill="#FAFAFA"/>
<path d="M233.984 183.145C232.295 181.884 230.735 180.458 229.33 178.886C231.023 180.143 232.583 181.57 233.984 183.145Z" fill="#FAFAFA"/>
<path d="M250.207 174.479C250.275 174.548 249.303 175.625 248.35 177.122C247.397 178.62 246.765 179.939 246.679 179.901C246.954 178.836 247.429 177.832 248.077 176.943C248.63 175.998 249.352 175.163 250.207 174.479Z" fill="#FAFAFA"/>
<path d="M232.517 144.022C231.848 143.636 231.237 143.156 230.704 142.598C230.095 142.119 229.556 141.559 229.101 140.933C229.769 141.326 230.381 141.807 230.92 142.363C231.527 142.839 232.064 143.398 232.517 144.022Z" fill="#FAFAFA"/>
<path d="M212.563 144.504C211.074 145.628 209.463 146.579 207.76 147.339C208.468 146.733 209.245 146.212 210.074 145.786C210.852 145.265 211.687 144.835 212.563 144.504Z" fill="#FAFAFA"/>
<path d="M209.072 161.977C208.417 161.33 207.84 160.609 207.351 159.829C206.776 159.112 206.288 158.328 205.897 157.496C207.128 158.859 208.194 160.363 209.072 161.977Z" fill="#FAFAFA"/>
<path d="M216.629 167.671C215.919 169.571 214.772 171.278 213.281 172.654C213.212 172.586 214.067 171.552 214.983 170.178C215.899 168.804 216.542 167.622 216.629 167.671Z" fill="#FAFAFA"/>
<path d="M198.265 168.946C198.172 168.977 197.646 167.591 196.798 166C195.95 164.409 195.077 163.209 195.152 163.147C196.665 164.782 197.731 166.779 198.246 168.946H198.265Z" fill="#FAFAFA"/>
<path d="M202.096 180.83C202.439 179.818 202.883 178.844 203.421 177.921C203.858 176.946 204.395 176.019 205.024 175.154C204.681 176.167 204.239 177.143 203.706 178.069C203.264 179.042 202.725 179.967 202.096 180.83Z" fill="#FAFAFA"/>
<path d="M214.915 189.743C214.554 188.644 214.293 187.515 214.135 186.37C213.877 185.245 213.724 184.099 213.677 182.947C214.038 184.043 214.299 185.17 214.457 186.314C214.715 187.44 214.868 188.588 214.915 189.743Z" fill="#FAFAFA"/>
<path d="M191.636 183.213C190.844 182.575 190.097 181.882 189.402 181.139C188.631 180.473 187.903 179.757 187.223 178.998C188.112 179.513 188.921 180.156 189.625 180.904C190.4 181.575 191.077 182.353 191.636 183.213Z" fill="#FAFAFA"/>
<path d="M181.312 166.006C179.92 167.544 178.37 168.932 176.689 170.147C178.082 168.61 179.631 167.222 181.312 166.006Z" fill="#FAFAFA"/>
<path d="M177.252 160.993C176.565 160.233 175.959 159.403 175.445 158.517C174.844 157.68 174.329 156.784 173.91 155.843C175.202 157.447 176.322 159.181 177.252 161.018V160.993Z" fill="#FAFAFA"/>
<path d="M161.506 169.633C160.674 168.704 159.923 167.706 159.259 166.65C158.511 165.657 157.85 164.601 157.285 163.493C158.117 164.419 158.866 165.415 159.526 166.471C160.278 167.464 160.941 168.522 161.506 169.633Z" fill="#FAFAFA"/>
<path d="M166.167 179.963C166.167 180.056 164.137 180.087 161.642 180.217C159.148 180.347 157.13 180.508 157.118 180.415C157.542 180.28 157.98 180.197 158.424 180.167C159.241 180.062 160.374 179.957 161.624 179.895C162.874 179.833 164.013 179.827 164.836 179.846C165.283 179.827 165.73 179.867 166.167 179.963Z" fill="#FAFAFA"/>
<path d="M167.312 150C167.399 150 167.046 151.554 166.724 153.46C166.402 155.367 166.229 156.933 166.136 156.926C166.104 154.566 166.502 152.219 167.312 150Z" fill="#FAFAFA"/>
<path d="M161.042 140.921C161.74 139.812 162.526 138.763 163.394 137.782C164.178 136.733 165.048 135.75 165.994 134.843C165.296 135.951 164.509 137 163.642 137.981C162.857 139.03 161.988 140.013 161.042 140.921Z" fill="#FAFAFA"/>
<path d="M154.754 149.388C154.685 149.45 153.225 147.964 151.294 146.293C149.363 144.622 147.716 143.322 147.772 143.248C148.189 143.438 148.578 143.684 148.929 143.978C149.616 144.473 150.539 145.216 151.51 146.052C152.482 146.887 153.305 147.735 153.887 148.354C154.22 148.659 154.512 149.006 154.754 149.388Z" fill="#FAFAFA"/>
<path d="M144.287 152.334C144.331 152.421 142.492 153.405 140.456 154.952C138.42 156.499 136.971 157.997 136.897 157.929C137.142 157.539 137.44 157.185 137.782 156.877C138.553 156.089 139.38 155.359 140.258 154.692C141.139 154.026 142.067 153.426 143.037 152.897C143.425 152.651 143.846 152.461 144.287 152.334Z" fill="#FAFAFA"/>
<path d="M130.244 161.024C130.157 161.024 130.169 159.347 130.089 157.279C130.008 155.212 129.872 153.566 129.965 153.566C130.26 154.782 130.41 156.028 130.411 157.279C130.511 158.53 130.454 159.787 130.244 161.024Z" fill="#FAFAFA"/>
<path d="M140.598 170.184C138.606 168.759 136.742 167.163 135.028 165.412C136.052 166.081 137.015 166.839 137.906 167.677C138.879 168.428 139.78 169.267 140.598 170.184Z" fill="#FAFAFA"/>
<path d="M156.969 157.062C155.81 157.478 154.618 157.793 153.404 158.003C152.213 158.32 150.994 158.527 149.765 158.622C150.926 158.206 152.121 157.891 153.336 157.681C154.527 157.368 155.742 157.161 156.969 157.062Z" fill="#FAFAFA"/>
<path d="M189.074 161.309C188.52 160.957 188.027 160.518 187.613 160.009C187.119 159.571 186.7 159.055 186.375 158.48C186.928 158.835 187.421 159.276 187.836 159.786C188.329 160.223 188.747 160.737 189.074 161.309Z" fill="#FAFAFA"/>
<path d="M203.477 152.947C202.938 153.65 202.314 154.284 201.62 154.834C200.993 155.465 200.293 156.018 199.534 156.481C200.703 155.146 202.031 153.959 203.489 152.947H203.477Z" fill="#FAFAFA"/>
<path d="M215.793 156.357C215.707 156.357 216.066 154.933 216.412 153.182C216.759 151.43 216.87 149.988 216.963 149.994C217.053 151.081 216.974 152.175 216.728 153.237C216.578 154.319 216.263 155.371 215.793 156.357Z" fill="#FAFAFA"/>
<path d="M152.513 176.268C152.121 175.835 151.813 175.334 151.603 174.789C151.301 174.29 151.091 173.741 150.984 173.167C151.383 173.598 151.698 174.1 151.913 174.647C152.207 175.147 152.411 175.696 152.513 176.268Z" fill="#FAFAFA"/>
<path d="M174.69 177.135C174.294 176.497 173.988 175.808 173.78 175.086C173.47 174.4 173.262 173.672 173.161 172.926C173.558 173.563 173.862 174.252 174.065 174.975C174.378 175.66 174.588 176.388 174.69 177.135Z" fill="#FAFAFA"/>
<path d="M186.784 171.045C186.716 170.983 187.075 170.463 187.588 169.881C188.102 169.299 188.566 168.872 188.634 168.928C188.702 168.983 188.337 169.51 187.83 170.091C187.322 170.673 186.883 171.1 186.784 171.045Z" fill="#FAFAFA"/>
<path d="M161.933 209.809C161.31 208.951 160.841 207.992 160.547 206.974C160.156 205.988 159.946 204.94 159.928 203.879C160.021 203.879 160.306 205.241 160.869 206.869C161.432 208.496 162.02 209.759 161.933 209.809Z" fill="#FAFAFA"/>
<path d="M171.372 210.514C171.527 209.597 171.784 208.7 172.14 207.84C172.392 206.947 172.75 206.087 173.204 205.278C173.051 206.193 172.795 207.088 172.443 207.946C172.186 208.84 171.827 209.702 171.372 210.514Z" fill="#FAFAFA"/>
<path d="M168.618 221.241C168.023 220.457 167.516 219.61 167.108 218.715C166.599 217.867 166.184 216.967 165.87 216.029C166.461 216.816 166.966 217.665 167.374 218.561C167.881 219.408 168.298 220.306 168.618 221.241Z" fill="#FAFAFA"/>
<path d="M186.103 218.158C185.033 217.994 183.992 217.682 183.008 217.23C181.99 216.878 181.029 216.379 180.155 215.75C181.169 216.088 182.163 216.482 183.132 216.933C184.146 217.28 185.139 217.689 186.103 218.158Z" fill="#FAFAFA"/>
<path d="M180.446 211.796C180.402 211.715 181.498 211.003 182.736 209.988C183.974 208.973 184.902 208.051 184.97 208.131C183.795 209.717 182.239 210.982 180.446 211.808V211.796Z" fill="#FAFAFA"/>
<path d="M195.016 216.32C194.96 216.394 193.833 215.701 192.354 214.983C190.875 214.265 189.612 213.863 189.637 213.776C191.626 214.126 193.483 215.005 195.016 216.32Z" fill="#FAFAFA"/>
<path d="M198.123 222.138C198.061 222.07 198.909 221.203 199.843 220.034C200.778 218.864 201.434 217.849 201.514 217.898C201.189 218.76 200.706 219.553 200.091 220.238C199.56 220.989 198.892 221.634 198.123 222.138Z" fill="#FAFAFA"/>
<path d="M166.34 233.378C165.311 232.886 164.331 232.298 163.413 231.62C162.432 231.035 161.509 230.358 160.658 229.596C161.688 230.088 162.668 230.677 163.586 231.354C164.567 231.939 165.489 232.616 166.34 233.378Z" fill="#FAFAFA"/>
<path d="M178.181 230.457C178.218 230.543 176.943 231.106 175.5 232.047C174.058 232.988 173.025 233.904 172.957 233.855C174.331 232.238 176.146 231.058 178.181 230.457Z" fill="#FAFAFA"/>
<path d="M188.771 235.136C188.248 234.614 187.8 234.022 187.44 233.378C186.993 232.79 186.636 232.139 186.381 231.447C187.356 232.56 188.161 233.812 188.771 235.16V235.136Z" fill="#FAFAFA"/>
<path d="M201.533 230.921C201.57 231.007 200.369 231.577 199.008 232.462C197.646 233.347 196.625 234.195 196.532 234.127C197.165 233.346 197.938 232.689 198.81 232.189C199.629 231.598 200.553 231.167 201.533 230.921Z" fill="#FAFAFA"/>
<path d="M207.432 225.381C207.345 225.425 206.98 224.762 206.287 224.224C205.593 223.685 204.906 223.413 204.931 223.326C205.512 223.318 206.073 223.541 206.491 223.945C206.982 224.281 207.32 224.797 207.432 225.381Z" fill="#FAFAFA"/>
<path d="M214.116 231.756C213.468 232.27 212.756 232.698 211.999 233.031C211.288 233.454 210.527 233.786 209.734 234.022C210.38 233.505 211.092 233.076 211.851 232.747C212.559 232.319 213.321 231.986 214.116 231.756Z" fill="#FAFAFA"/>
<path d="M220.138 235.136C220.046 235.136 220.386 233.718 220.609 231.973C220.832 230.228 220.856 228.785 220.955 228.785C221.125 229.854 221.115 230.944 220.925 232.01C220.842 233.089 220.576 234.146 220.138 235.136Z" fill="#FAFAFA"/>
<path d="M219.185 224.391C219.13 224.471 217.879 223.623 216.165 222.949C214.45 222.274 212.965 222.033 212.977 221.934C214.117 221.94 215.243 222.185 216.282 222.652C217.363 223.018 218.353 223.611 219.185 224.391Z" fill="#FAFAFA"/>
<path d="M205.767 191.989C203.911 191.039 202.159 189.9 200.537 188.591C202.39 189.545 204.142 190.684 205.767 191.989Z" fill="#FAFAFA"/>
<g opacity="0.3">
<path d="M174.374 227.77C174.176 227.384 174.116 226.942 174.202 226.517C174.289 226.092 174.517 225.709 174.851 225.431C175.537 224.894 176.365 224.569 177.233 224.496C181.665 223.803 186.412 225.004 190.565 223.314C193.351 222.175 195.517 219.854 197.151 217.341C198.785 214.828 200.079 212.08 201.694 209.542C203.142 207.259 204.993 205.08 207.518 204.102C210.043 203.124 213.33 203.749 214.698 206.083C216.066 208.416 215.15 211.282 213.869 213.584C210.248 220.083 203.724 224.682 196.612 226.873C189.501 229.064 181.845 229.008 174.504 227.708" fill="black"/>
</g>
<path d="M262.14 208.626L255.232 183.98L226.798 187.657L230.128 200.729L187.601 189.384L178.218 201.837L242.773 232.319C245.732 233.581 249.006 233.909 252.157 233.261C255.307 232.613 258.186 231.019 260.407 228.692C264.368 224.508 263.891 214.129 262.14 208.626Z" fill="#FFBE9D"/>
<path d="M144.609 185.002C143.656 184.748 142.505 184.544 141.799 185.224C141.52 185.553 141.356 185.963 141.332 186.393C141.307 186.823 141.424 187.249 141.663 187.607C142.102 188.344 142.437 188.449 143.6 188.845L154.921 191.414L159.253 188.022L144.609 185.002Z" fill="#EB996E"/>
<path d="M179.945 202.431C166.111 199.045 153.274 194.57 139.608 191.971C138.927 191.841 138.16 191.661 137.801 191.061C137.312 190.244 137.943 189.136 138.816 188.765C139.727 188.483 140.698 188.451 141.626 188.672C148.938 189.689 156.371 189.438 163.598 187.929C168.284 186.945 172.882 185.453 177.611 184.835C182.34 184.216 183.615 186.691 187.601 189.353" fill="#FFBE9D"/>
<path d="M187.601 189.384C186.45 187.365 184.776 185.694 182.756 184.546C180.735 183.398 178.443 182.815 176.119 182.86C173.291 182.953 170.586 183.98 167.857 184.717C165.127 185.453 162.144 185.911 159.507 184.872C158.498 184.475 157.557 183.863 156.48 183.714C155.404 183.566 154.116 184.092 153.924 185.156C153.776 185.961 154.296 186.728 154.859 187.329C156.839 189.421 163.146 191.748 168.117 191.5" fill="#FFBE9D"/>
<path d="M168.116 191.507C168.116 191.457 167.355 191.507 166.006 191.371C164.108 191.17 162.239 190.755 160.435 190.133C159.182 189.717 157.974 189.178 156.827 188.523C156.194 188.174 155.611 187.741 155.094 187.236C154.818 187.001 154.593 186.712 154.431 186.388C154.269 186.064 154.175 185.71 154.153 185.348C154.22 184.987 154.403 184.658 154.674 184.41C154.946 184.163 155.291 184.012 155.657 183.98C156.472 183.886 157.295 184.053 158.009 184.457C158.816 184.876 159.665 185.21 160.541 185.453C161.456 185.672 162.398 185.763 163.338 185.726C167.169 185.596 170.468 184.005 173.6 183.405C175.072 183.072 176.589 182.992 178.088 183.17C179.39 183.343 180.659 183.713 181.851 184.265C183.587 185.071 185.128 186.243 186.369 187.7C187.236 188.74 187.607 189.415 187.607 189.39C187.55 189.214 187.469 189.048 187.365 188.895C187.114 188.431 186.82 187.992 186.487 187.583C185.281 186.043 183.737 184.802 181.975 183.956C180.756 183.364 179.453 182.965 178.112 182.773C176.572 182.571 175.008 182.636 173.489 182.965C170.283 183.584 166.99 185.119 163.301 185.243C162.402 185.276 161.503 185.189 160.627 184.983C159.782 184.748 158.963 184.426 158.182 184.024C157.377 183.586 156.455 183.413 155.546 183.529C155.09 183.606 154.663 183.803 154.308 184.098C154.128 184.253 153.98 184.442 153.874 184.655C153.768 184.867 153.705 185.099 153.689 185.336C153.707 185.761 153.813 186.177 153.999 186.56C154.185 186.942 154.449 187.282 154.772 187.558C155.326 188.088 155.951 188.538 156.629 188.895C157.809 189.551 159.054 190.084 160.343 190.485C162.188 191.088 164.1 191.46 166.037 191.593C166.562 191.625 167.089 191.625 167.615 191.593C167.785 191.585 167.953 191.556 168.116 191.507Z" fill="#EB996E"/>
<path d="M242.792 204.659C242.792 204.659 242.742 204.659 242.649 204.616L242.247 204.473L240.786 203.941C239.548 203.496 237.828 202.908 235.915 202.307C234.003 201.707 232.251 201.212 230.964 200.877L229.46 200.487L229.045 200.382C228.952 200.382 228.903 200.339 228.909 200.333H229.051L229.472 200.413C229.831 200.488 230.351 200.605 230.988 200.76C232.27 201.082 234.021 201.558 235.94 202.159C237.859 202.759 239.573 203.366 240.805 203.83C241.424 204.065 241.913 204.263 242.253 204.405L242.643 204.573L242.792 204.659Z" fill="#EB996E"/>
<path d="M189.359 153.825C193.256 153.658 196.939 151.991 199.637 149.174C202.336 146.357 203.842 142.606 203.842 138.705V120.755L204.832 63.4043L203.551 60.1735L173.347 50.6418C164.063 49.9176 157.824 62.6864 157.496 71.9952C157.13 82.3439 157.093 94.9889 158.529 102.658C161.413 118.082 173.347 119.728 173.347 119.728L173.582 138.915C173.61 140.939 174.043 142.937 174.857 144.79C175.671 146.643 176.848 148.314 178.319 149.704C179.79 151.095 181.525 152.176 183.421 152.884C185.317 153.591 187.336 153.912 189.359 153.825Z" fill="#FFBE9D"/>
<path d="M161.506 82.0532C161.516 82.5721 161.728 83.0668 162.096 83.432C162.465 83.7973 162.962 84.0043 163.481 84.0091C163.734 84.0207 163.988 83.9816 164.226 83.8942C164.465 83.8068 164.683 83.6727 164.87 83.4999C165.056 83.327 165.206 83.1188 165.31 82.8874C165.415 82.6561 165.473 82.4061 165.48 82.1522C165.469 81.6344 165.256 81.1413 164.888 80.7774C164.519 80.4134 164.023 80.2073 163.505 80.2026C163.252 80.1893 162.998 80.2269 162.759 80.3133C162.52 80.3998 162.301 80.5332 162.115 80.7057C161.929 80.8782 161.779 81.0864 161.674 81.3178C161.57 81.5492 161.512 81.7993 161.506 82.0532Z" fill="#263238"/>
<path d="M160.411 78.3952C160.664 78.649 162.144 77.4916 164.279 77.4359C166.414 77.3802 167.993 78.4076 168.24 78.1415C168.352 78.0239 168.086 77.5596 167.386 77.0831C166.445 76.466 165.335 76.1568 164.211 76.198C163.09 76.2189 162.005 76.5985 161.116 77.2811C160.497 77.8072 160.268 78.2838 160.411 78.3952Z" fill="#263238"/>
<path d="M182.234 82.0532C182.244 82.5711 182.455 83.0648 182.822 83.4299C183.19 83.795 183.685 84.0027 184.203 84.0091C184.457 84.0224 184.711 83.9845 184.95 83.8977C185.19 83.8109 185.409 83.677 185.595 83.5038C185.782 83.3306 185.932 83.1217 186.036 82.8895C186.14 82.6574 186.196 82.4067 186.202 82.1522C186.194 81.6345 185.983 81.1404 185.615 80.776C185.248 80.4116 184.752 80.2057 184.234 80.2026C183.98 80.1893 183.726 80.2269 183.488 80.3133C183.249 80.3998 183.03 80.5332 182.843 80.7057C182.657 80.8782 182.507 81.0864 182.402 81.3178C182.298 81.5492 182.241 81.7993 182.234 82.0532Z" fill="#263238"/>
<path d="M181.442 78.2159C181.696 78.4635 183.175 77.3122 185.311 77.2565C187.446 77.2008 189.024 78.2283 189.272 77.9621C189.377 77.8445 189.117 77.3803 188.418 76.9037C187.476 76.2875 186.367 75.9782 185.243 76.0186C184.122 76.0395 183.037 76.4191 182.148 77.1018C181.529 77.6279 181.312 78.0983 181.442 78.2159Z" fill="#263238"/>
<path d="M174.12 94.2834C174.12 94.1658 172.79 93.9678 170.629 93.7511C170.085 93.714 169.565 93.6212 169.46 93.2498C169.397 92.687 169.509 92.1186 169.782 91.622C170.258 90.2851 170.753 88.8863 171.279 87.4194C173.359 81.4342 174.851 76.526 174.609 76.4394C174.368 76.3527 172.48 81.1433 170.407 87.1223L168.971 91.3497C168.785 91.9686 168.445 92.6866 168.748 93.4974C168.832 93.6887 168.958 93.858 169.118 93.9922C169.278 94.1264 169.467 94.2218 169.67 94.2711C169.973 94.3475 170.286 94.3829 170.599 94.3763C172.771 94.432 174.114 94.4072 174.12 94.2834Z" fill="#263238"/>
<path d="M173.34 119.629C180.639 119.538 187.77 117.423 193.939 113.52C193.939 113.52 189.198 124.302 173.65 123.281L173.34 119.629Z" fill="#EB996E"/>
<path d="M180.656 69.8787C180.885 70.4543 183.014 70.1201 185.527 70.3552C188.04 70.5904 190.095 71.2156 190.417 70.6833C190.553 70.4295 190.188 69.891 189.352 69.3526C188.243 68.6923 186.997 68.2934 185.71 68.1861C184.423 68.0789 183.129 68.2661 181.925 68.7336C181.009 69.105 180.563 69.5754 180.656 69.8787Z" fill="#263238"/>
<path d="M161.03 72.1812C161.42 72.6577 162.886 72.1131 164.65 72.0388C166.414 71.9645 167.931 72.2802 168.259 71.7603C168.401 71.5065 168.154 71.0299 167.485 70.5905C166.597 70.0451 165.56 69.7939 164.52 69.8725C163.481 69.9207 162.482 70.2905 161.661 70.9309C161.048 71.4446 160.887 71.9522 161.03 72.1812Z" fill="#263238"/>
<path d="M168.017 51.7004C168.736 56.5499 170.657 61.1423 173.607 65.0583C176.556 68.9743 180.439 72.0891 184.902 74.1184C184.634 72.8805 184.37 71.6426 184.11 70.4047C187.935 76.7303 196.055 82.0284 201.279 84.17C202.895 84.8322 204.962 84.238 206.429 83.2972C208.484 81.9851 208.608 79.0389 208.174 76.6375C206.831 69.1235 202.375 62.4018 196.569 57.4503C190.764 52.4988 183.683 49.1937 176.361 46.9779C174.423 46.3899 173.365 45.9875 171.446 46.6374C169.528 47.2873 167.015 49.4722 167.943 51.2671" fill="#263238"/>
<path d="M198.828 72.7877C203.26 88.6635 197.399 106.309 198.909 122.724C199.243 126.382 200.574 130.615 203.656 132.627C205.179 133.617 205.513 132.992 207.265 133.339C211.739 134.205 215.967 132.33 220.436 133.196C224.471 133.982 230.889 136.291 233.433 133.054C235.977 129.817 233.043 126.01 230.555 122.841C228.067 119.672 224.725 116.961 223.499 113.118C222.175 108.99 223.605 104.558 224.223 100.262C226.34 85.5998 221.129 70.7452 212.464 58.7192C209.443 54.529 204.888 50.5616 200.79 47.4112C196.693 44.2607 187.427 41.6055 182.266 41.8407C177.104 42.0759 168.506 46.1733 166.402 51.9604" fill="#263238"/>
<path d="M181.69 63.7265C181.659 63.7822 181.999 64.0112 182.655 64.3888L183.825 65.0696L182.829 64.1164C180.403 61.8584 178.331 59.2482 176.683 56.3735C173.588 51.0444 173.118 45.9382 172.87 46.0001C172.79 46.0001 172.79 47.2751 173.198 49.2866C173.751 51.8948 174.707 54.4007 176.033 56.7139C177.68 59.6815 179.922 62.2773 182.618 64.3393L182.798 64.0669C182.098 63.807 181.715 63.6894 181.69 63.7265Z" fill="#455A64"/>
<path d="M209.784 129.78C209.813 129.44 209.813 129.098 209.784 128.759C209.784 128.09 209.784 127.106 209.814 125.837C210.02 122.265 210.546 118.719 211.387 115.241C212.34 110.809 213.918 105.616 214.865 99.6375C215.356 96.5043 215.508 93.3272 215.317 90.1615C215.151 86.7234 214.289 83.3546 212.785 80.2585C211.22 77.186 208.927 74.5428 206.107 72.5588C203.446 70.5844 200.667 69.0618 198.129 67.4773C193.611 64.698 189.453 61.3719 185.75 57.5743C183.267 55.0034 180.99 52.2405 178.942 49.3114C178.218 48.2716 177.667 47.4546 177.302 46.8914C177.125 46.5936 176.918 46.3156 176.683 46.062C176.812 46.3786 176.97 46.6831 177.153 46.9719C177.469 47.5908 177.989 48.4078 178.676 49.4476C180.652 52.4596 182.891 55.2909 185.366 57.9085C189.043 61.8028 193.203 65.21 197.745 68.0468C200.295 69.656 203.056 71.191 205.649 73.1283C208.369 75.0452 210.582 77.594 212.098 80.5555C213.555 83.5565 214.396 86.8182 214.574 90.1491C214.768 93.2638 214.633 96.3901 214.172 99.4766C213.274 105.381 211.746 110.617 210.854 115.068C210.052 118.581 209.602 122.166 209.511 125.769C209.495 126.748 209.533 127.728 209.623 128.703C209.633 129.067 209.687 129.429 209.784 129.78Z" fill="#455A64"/>
<path d="M157.483 59.0783C156.933 63.0819 156.61 67.1136 156.518 71.1538C159.649 68.6285 162.812 66.0476 165.183 62.7857C167.553 59.5239 169.033 55.4451 168.414 51.4653C166.146 52.1324 164.093 53.3852 162.464 55.0976C160.834 56.81 159.684 58.9216 159.13 61.2198" fill="#263238"/>
<path d="M173.446 101.537C173.978 100.498 174.12 100.231 175.024 99.7363C175.709 99.5633 176.416 99.4924 177.122 99.5259C177.809 99.563 178.267 100.244 178.521 100.881C178.936 101.803 178.995 102.846 178.688 103.809C178.329 104.744 175.086 105.864 173.34 103.407" fill="#EB996E"/>
<path d="M176.113 105.034C176.29 105.023 176.468 105.023 176.645 105.034C177.115 105.012 177.568 104.85 177.945 104.57C178.459 104.104 178.79 103.47 178.88 102.781C178.952 102.372 178.92 101.951 178.787 101.558C178.654 101.164 178.424 100.81 178.119 100.529C177.449 100.003 176.617 99.7294 175.767 99.7549C175.425 99.7681 175.089 99.8538 174.783 100.006C174.477 100.159 174.207 100.375 173.99 100.64C173.702 101.014 173.512 101.455 173.439 101.921C173.426 102.1 173.393 102.276 173.34 102.447C173.29 102.27 173.279 102.084 173.309 101.903C173.344 101.399 173.517 100.915 173.811 100.504C174.022 100.222 174.287 99.9842 174.591 99.8044C174.945 99.5973 175.344 99.4784 175.754 99.4578C176.198 99.4408 176.641 99.4973 177.066 99.6249C177.523 99.7509 177.946 99.9772 178.304 100.287C178.681 100.613 178.95 101.044 179.078 101.525C179.205 101.957 179.228 102.413 179.146 102.856C179.069 103.247 178.933 103.625 178.744 103.976C178.547 104.363 178.241 104.683 177.863 104.897C177.486 105.111 177.053 105.208 176.621 105.177C176.442 105.171 176.268 105.122 176.113 105.034Z" fill="#263238"/>
<path d="M183.472 89.2454C183.528 89.3135 183.324 89.5487 182.965 89.592C182.606 89.6353 182.346 89.4435 182.395 89.3692C182.445 89.2949 182.668 89.3011 182.928 89.2701C183.188 89.2392 183.417 89.1711 183.472 89.2454Z" fill="#EB996E"/>
<path d="M186.883 89.0658C186.796 89.0658 186.679 88.8987 186.629 88.6573C186.58 88.416 186.598 88.1993 186.685 88.1808C186.771 88.1622 186.889 88.3417 186.945 88.5893C187 88.8368 186.994 89.0658 186.883 89.0658Z" fill="#EB996E"/>
<path d="M191.023 87.6917C191.023 87.7784 190.788 87.8031 190.547 87.7536C190.305 87.7041 190.12 87.5803 190.138 87.4937C190.157 87.407 190.374 87.3822 190.615 87.4379C190.856 87.4936 191.042 87.6051 191.023 87.6917Z" fill="#EB996E"/>
<path d="M185.243 92.6865C185.156 92.6865 185.082 92.4885 185.082 92.2471C185.082 92.0057 185.156 91.8076 185.243 91.8076C185.329 91.8076 185.404 91.9995 185.404 92.2471C185.404 92.4946 185.329 92.6865 185.243 92.6865Z" fill="#EB996E"/>
<path d="M188.962 91.0218C188.876 91.0218 188.802 90.9785 188.802 90.9228C188.802 90.8671 188.876 90.8237 188.962 90.8237C189.049 90.8237 189.123 90.8671 189.123 90.9228C189.123 90.9785 189.055 91.0218 188.962 91.0218Z" fill="#EB996E"/>
<path d="M162.323 89.8456C162.323 89.9323 162.014 89.9942 161.704 89.8456C161.395 89.6971 161.203 89.4186 161.271 89.3629C161.339 89.3071 161.562 89.4309 161.834 89.5547C162.107 89.6785 162.329 89.7528 162.323 89.8456Z" fill="#EB996E"/>
<path d="M165.09 89.2639C165.044 89.2471 165.007 89.213 164.986 89.169C164.965 89.1251 164.963 89.0746 164.979 89.0287C165.009 88.9234 165.096 88.8492 165.183 88.8739C165.228 88.8907 165.266 88.9247 165.287 88.9687C165.307 89.0127 165.31 89.0631 165.294 89.1091C165.291 89.1328 165.283 89.1556 165.271 89.1763C165.26 89.1969 165.244 89.215 165.225 89.2294C165.206 89.2438 165.184 89.2542 165.161 89.2602C165.138 89.2661 165.114 89.2673 165.09 89.2639Z" fill="#EB996E"/>
<path d="M163.611 93.2747C163.524 93.2747 163.431 93.1385 163.406 92.9528C163.382 92.7672 163.406 92.6 163.518 92.5877C163.629 92.5753 163.697 92.7176 163.728 92.9095C163.759 93.1014 163.703 93.2623 163.611 93.2747Z" fill="#EB996E"/>
<path d="M159.971 93.0765C159.897 93.0269 159.928 92.8598 160.033 92.6927C160.138 92.5256 160.293 92.439 160.367 92.4885C160.442 92.538 160.411 92.7113 160.305 92.8722C160.2 93.0331 160.045 93.126 159.971 93.0765Z" fill="#EB996E"/>
<path d="M146.095 231.614V260.333C146.094 262.744 145.518 265.121 144.415 267.265C143.311 269.41 141.712 271.26 139.75 272.662C137.181 274.494 134.105 275.479 130.949 275.478H92.5748C89.7016 275.48 86.8871 274.665 84.4605 273.126L83.1359 272.272C80.9826 270.908 79.2082 269.023 77.977 266.791C76.7458 264.559 76.0976 262.052 76.0924 259.503V231.614H146.095Z" fill="#263238"/>
<path d="M76.0924 238.528H56.6392V241.907L67.8729 243.634C69.5162 243.863 71.0749 244.504 72.4038 245.497C73.7328 246.491 74.7887 247.804 75.4735 249.316C75.8673 250.194 76.0779 251.144 76.0924 252.107C76.0924 252.107 80.0537 252.045 80.7283 247.31C80.7283 247.218 80.7593 247.125 80.7716 247.032C80.9949 245.321 80.6731 243.583 79.852 242.065C79.0308 240.547 77.7521 239.327 76.1977 238.577L76.0924 238.528Z" fill="#455A64"/>
<path d="M146.095 238.552H165.56V241.944L154.327 243.671C152.678 243.898 151.114 244.541 149.781 245.538C148.448 246.535 147.391 247.854 146.707 249.371C146.314 250.25 146.103 251.2 146.088 252.163C146.088 252.163 142.133 252.101 141.453 247.372L141.415 247.087C141.192 245.376 141.514 243.638 142.335 242.12C143.156 240.603 144.435 239.382 145.989 238.633L146.095 238.552Z" fill="#455A64"/>
<path d="M146.095 238.552C146.004 238.62 145.909 238.68 145.81 238.732C145.527 238.884 145.254 239.053 144.993 239.239C143.997 239.936 143.167 240.842 142.56 241.895C141.613 243.519 141.265 245.425 141.576 247.279C141.705 248.413 142.154 249.486 142.87 250.374C143.692 251.317 144.853 251.898 146.101 251.99L145.952 252.132C145.968 250.987 146.25 249.862 146.775 248.845C147.307 247.757 148.05 246.785 148.96 245.986C149.917 245.142 151.023 244.485 152.222 244.049C153.463 243.644 154.743 243.372 156.041 243.238L165.554 241.783L165.424 241.932C165.424 240.774 165.424 239.648 165.424 238.552L165.573 238.701L151.554 238.645L147.549 238.602H146.478C146.355 238.616 146.23 238.616 146.107 238.602H146.472H147.53L151.523 238.559L165.573 238.503H165.721V238.651C165.721 239.747 165.721 240.873 165.721 242.031V242.167H165.591L156.078 243.634C154.801 243.768 153.542 244.035 152.321 244.432C151.166 244.849 150.099 245.479 149.177 246.289C148.309 247.021 147.602 247.923 147.098 248.94C146.595 249.957 146.306 251.067 146.249 252.2V252.355H146.107C145.448 252.308 144.806 252.13 144.217 251.832C143.628 251.533 143.105 251.119 142.678 250.616C141.937 249.69 141.477 248.57 141.353 247.391C141.052 245.486 141.431 243.535 142.424 241.882C143.054 240.819 143.92 239.914 144.956 239.239C145.227 239.061 145.51 238.901 145.804 238.763C145.894 238.683 145.991 238.613 146.095 238.552Z" fill="#263238"/>
<path d="M144.844 232.382C144.795 232.42 144.741 232.451 144.683 232.474L144.201 232.716L142.344 233.626L140.988 234.276C140.487 234.505 139.924 234.715 139.33 234.956C138.135 235.427 136.798 236.027 135.251 236.498L132.843 237.302C132.001 237.575 131.104 237.779 130.188 238.033C128.362 238.571 126.363 238.936 124.271 239.369C119.697 240.161 115.066 240.575 110.425 240.607C105.784 240.578 101.152 240.164 96.5793 239.369C94.4873 238.942 92.4881 238.571 90.6623 238.039C89.7462 237.779 88.8488 237.575 88.007 237.302L85.5993 236.504C84.052 236.033 82.7151 235.433 81.5143 234.969C80.8954 234.721 80.3631 234.511 79.8618 234.288L78.5063 233.638L76.6495 232.728L76.1667 232.487L76.012 232.394C76.0727 232.405 76.1312 232.426 76.1853 232.456L76.6804 232.666C77.1322 232.877 77.7698 233.161 78.5744 233.52L79.9422 234.139C80.4436 234.356 81.0068 234.554 81.601 234.795C82.8017 235.241 84.1386 235.829 85.6922 236.281L88.0999 237.061C88.9354 237.327 89.8329 237.525 90.7427 237.773C92.5686 238.299 94.5616 238.651 96.6536 239.072C101.21 239.854 105.821 240.268 110.444 240.31C115.066 240.268 119.678 239.854 124.234 239.072C126.326 238.651 128.319 238.292 130.144 237.766C131.054 237.519 131.952 237.321 132.787 237.055L135.195 236.275C136.742 235.823 138.085 235.235 139.28 234.783C139.899 234.548 140.437 234.344 140.945 234.133L142.307 233.514L144.176 232.66L144.671 232.443L144.844 232.382Z" fill="#455A64"/>
<path d="M144.888 234.758C144.888 234.758 144.838 234.795 144.727 234.851L144.244 235.099L142.387 236.009L141.032 236.627C140.53 236.85 139.967 237.061 139.379 237.308C138.178 237.779 136.841 238.379 135.294 238.849L132.886 239.648C132.045 239.92 131.153 240.125 130.237 240.384C128.381 240.923 126.406 241.288 124.314 241.721C119.743 242.513 115.114 242.927 110.475 242.959C105.833 242.928 101.202 242.514 96.6289 241.721C94.5307 241.288 92.5315 240.923 90.7057 240.384C89.7896 240.131 88.8922 239.926 88.0504 239.654L85.6427 238.856C84.0954 238.385 82.7585 237.785 81.5639 237.315C80.945 237.073 80.4065 236.863 79.9052 236.634L78.5682 236.021L76.7114 235.111L76.2286 234.87C76.1172 234.814 76.0615 234.783 76.0677 234.777L76.241 234.839L76.7362 235.055L78.6301 235.91L79.998 236.528C80.5055 236.739 81.0626 236.943 81.6629 237.178C82.8575 237.63 84.2006 238.212 85.7479 238.67L88.1556 239.444C88.9912 239.71 89.8887 239.908 90.8047 240.155C92.6244 240.682 94.6235 241.041 96.7094 241.461C101.268 242.243 105.881 242.657 110.506 242.699C115.128 242.66 119.74 242.246 124.296 241.461C126.381 241.041 128.374 240.688 130.2 240.162C131.11 239.914 132.008 239.716 132.849 239.45L135.251 238.67C136.804 238.212 138.141 237.63 139.342 237.178C139.961 236.943 140.499 236.739 141.001 236.522L142.369 235.903L144.263 235.049L144.758 234.839L144.888 234.758Z" fill="#455A64"/>
<path d="M131.686 276.37C136.792 275.577 139.416 272.792 140.902 267.841C141.447 266.313 141.488 264.652 141.019 263.099C140.475 261.589 139.026 260.32 137.417 260.382C135.474 260.463 134.087 262.301 133.295 264.096C132.503 265.891 131.915 267.878 130.386 269.085C128.857 270.292 125.991 269.933 125.663 268.008C125.66 267.498 125.606 266.99 125.503 266.491C125.069 265.328 123.225 265.39 122.408 266.337C121.591 267.283 121.566 268.645 121.603 269.889C121.64 271.133 121.684 272.47 120.984 273.504C119.951 275.045 117.791 275.218 115.934 275.231L104.966 275.336C104.966 275.336 106.823 276.246 111.737 276.246C118.409 276.227 131.686 276.37 131.686 276.37Z" fill="#FF725E"/>
<path d="M110.475 275.317C106.804 275.379 102.911 275.385 99.7793 273.461C97.7987 272.254 96.1399 270.31 93.8499 269.964C93.193 269.827 92.5089 269.947 91.9373 270.298C91.6587 270.478 91.4514 270.749 91.3509 271.065C91.2504 271.382 91.263 271.723 91.3865 272.031C90.3714 271.647 89.5977 270.836 88.725 270.174C87.8523 269.512 86.7197 269.035 85.7046 269.425C85.1872 269.675 84.7728 270.097 84.5323 270.618C84.2917 271.14 84.2401 271.729 84.3863 272.285C84.5594 272.831 84.8471 273.335 85.2303 273.762C85.6134 274.189 86.0832 274.529 86.6083 274.76C87.6628 275.218 88.7782 275.521 89.9196 275.658L116.33 276.159C116.324 275.491 110.475 275.317 110.475 275.317Z" fill="#FF725E"/>
<path d="M89.8639 277.18L89.9196 275.726L131.686 276.37V277.18H89.8639Z" fill="#455A64"/>
<path d="M129.018 260.333C128.524 259.505 128.245 258.567 128.206 257.604C128.167 256.641 128.37 255.683 128.795 254.818C129.173 254.069 129.946 253.327 130.745 253.58C131.543 253.834 131.704 254.818 131.686 255.61C131.642 257.337 130.398 260.828 129.018 260.321" fill="#FF725E"/>
<path d="M104.564 208.521C104.601 208.521 104.527 208.819 104.564 209.351C104.635 210.101 104.834 210.834 105.152 211.517C105.655 212.541 106.047 213.616 106.321 214.723C106.516 216.149 106.157 217.595 105.319 218.765C104.527 220.034 103.58 221.08 102.961 222.175C102.659 222.686 102.424 223.233 102.261 223.803C102.136 224.298 102.101 224.812 102.156 225.32C102.218 226.067 102.529 226.771 103.041 227.319C103.248 227.5 103.465 227.67 103.691 227.826C103.691 227.826 103.617 227.826 103.481 227.758C103.291 227.666 103.114 227.55 102.954 227.412C102.38 226.867 102.017 226.137 101.927 225.35C101.851 224.812 101.878 224.263 102.007 223.735C102.162 223.133 102.398 222.554 102.707 222.014C103.326 220.882 104.279 219.817 105.046 218.579C105.846 217.476 106.199 216.113 106.037 214.76C105.773 213.672 105.409 212.611 104.947 211.591C104.64 210.881 104.47 210.119 104.446 209.345C104.446 209.136 104.468 208.929 104.514 208.726C104.52 208.655 104.536 208.586 104.564 208.521Z" fill="#263238"/>
<path d="M111.075 207.964C111.112 207.964 111.032 208.261 111.075 208.794C111.15 209.543 111.348 210.275 111.663 210.96C112.166 211.985 112.56 213.059 112.839 214.166C113.028 215.592 112.668 217.038 111.83 218.208C111.038 219.477 110.097 220.523 109.472 221.618C109.171 222.128 108.938 222.675 108.779 223.246C108.649 223.742 108.611 224.258 108.667 224.768C108.732 225.513 109.043 226.214 109.552 226.761C109.759 226.943 109.976 227.112 110.202 227.269C110.202 227.269 110.128 227.269 109.998 227.201C109.804 227.113 109.624 226.996 109.466 226.854C108.893 226.309 108.532 225.579 108.444 224.793C108.369 224.255 108.394 223.707 108.519 223.178C108.672 222.579 108.908 222.004 109.218 221.47C109.837 220.337 110.784 219.272 111.558 218.041C112.355 216.935 112.706 215.569 112.542 214.216C112.284 213.126 111.919 212.064 111.452 211.047C111.145 210.336 110.975 209.574 110.951 208.8C110.951 208.592 110.973 208.384 111.019 208.181C111.038 208.032 111.063 207.958 111.075 207.964Z" fill="#263238"/>
<path d="M117.561 207.42C117.599 207.42 117.524 207.717 117.561 208.249C117.647 209.002 117.856 209.736 118.18 210.422C118.682 211.444 119.074 212.517 119.35 213.621C119.54 215.048 119.179 216.493 118.341 217.663C117.549 218.932 116.608 219.978 115.989 221.073C115.686 221.583 115.451 222.131 115.29 222.701C115.162 223.198 115.126 223.714 115.185 224.224C115.247 224.968 115.557 225.669 116.064 226.217C116.271 226.4 116.491 226.569 116.72 226.724C116.72 226.724 116.639 226.724 116.509 226.656C116.317 226.566 116.138 226.449 115.977 226.31C115.405 225.764 115.043 225.034 114.956 224.249C114.88 223.71 114.905 223.162 115.03 222.633C115.188 222.038 115.423 221.466 115.729 220.931C116.348 219.792 117.301 218.728 118.069 217.496C118.865 216.389 119.218 215.025 119.059 213.671C118.796 212.582 118.43 211.521 117.964 210.502C117.659 209.791 117.489 209.029 117.462 208.255C117.463 208.047 117.488 207.839 117.537 207.636C117.524 207.488 117.561 207.42 117.561 207.42Z" fill="#263238"/>
<path d="M27.1962 277.403C27.1962 277.403 18.8529 236.646 27.1962 213.999H36.4803C36.4803 213.999 43.5671 237.884 36.4803 277.403H27.1962Z" fill="#FF725E"/>
<g opacity="0.7">
<path d="M27.1962 277.403C27.1962 277.403 18.8529 236.646 27.1962 213.999H36.4803C36.4803 213.999 43.5671 237.884 36.4803 277.403H27.1962Z" fill="white"/>
</g>
<path d="M34.0355 192.844C35.5709 190.216 37.7613 188.032 40.393 186.503C43.0247 184.975 46.0077 184.155 49.0509 184.123C47.6143 186.995 45.3786 189.391 42.6127 191.023C39.8468 192.654 36.6685 193.452 33.4598 193.321" fill="#455A64"/>
<path d="M36.3317 175.854C34.2245 173.654 32.7242 170.946 31.9778 167.992C31.2314 165.039 31.2643 161.943 32.0734 159.006C34.441 161.176 36.1308 163.983 36.939 167.091C37.7473 170.199 37.6395 173.474 36.6288 176.522" fill="#455A64"/>
<path d="M27.9884 176.095C25.4958 175.089 23.3107 173.447 21.6512 171.332C19.9917 169.218 18.9158 166.705 18.531 164.045C21.2248 164.931 23.6007 166.586 25.3667 168.805C27.1326 171.024 28.2117 173.711 28.4712 176.535" fill="#455A64"/>
<path d="M25.7046 157.997C25.2819 156.084 25.3686 154.093 25.9562 152.224C26.5438 150.355 27.6117 148.673 29.053 147.345C29.6307 149.334 29.6144 151.448 29.0063 153.427C28.3982 155.407 27.2247 157.165 25.6303 158.486" fill="#455A64"/>
<path d="M32.1477 208.751C32.3407 206.801 33.0419 204.935 34.1812 203.341C35.3205 201.747 36.858 200.479 38.6404 199.665C38.5728 201.732 37.9023 203.735 36.7113 205.426C35.5204 207.117 33.861 208.423 31.9373 209.184" fill="#455A64"/>
<path d="M22.0466 140.939C22.0466 140.939 23.7178 147.185 25.6674 157.44L26.4102 161.47C26.6639 162.869 26.8806 164.335 27.1281 165.852C27.6418 168.872 28.0627 172.128 28.5331 175.544C29.3811 182.396 30.1176 189.947 30.5694 197.901C31.0213 205.854 31.0832 213.448 30.9841 220.349C30.8913 223.803 30.8294 227.084 30.6499 230.147C30.5632 231.676 30.5137 233.162 30.4147 234.579C30.3157 235.996 30.2104 237.364 30.1114 238.664C29.2944 249.074 28.3165 255.456 28.3165 255.456C28.3165 255.456 28.3165 255.357 28.3165 255.159L28.4341 254.323C28.5207 253.543 28.6383 252.423 28.7931 250.981C28.8735 250.257 28.9664 249.452 29.0592 248.567C29.1521 247.682 29.2325 246.71 29.3254 245.695C29.4987 243.628 29.7462 241.282 29.901 238.682C29.9876 237.374 30.0805 236.013 30.1795 234.597C30.2723 233.174 30.3157 231.695 30.3899 230.166C30.5632 227.102 30.6128 223.828 30.6994 220.38C30.7799 213.485 30.6994 205.897 30.26 197.95C29.8205 190.003 29.0778 182.477 28.2484 175.612C27.7904 172.196 27.3819 168.947 26.8744 165.92C26.633 164.41 26.4225 162.943 26.175 161.538C25.9274 160.133 25.686 158.796 25.457 157.508C25.0175 154.94 24.5162 152.631 24.1201 150.601C23.9096 149.586 23.7178 148.639 23.5445 147.773C23.3712 146.906 23.1731 146.114 23.0122 145.402L22.2942 142.122C22.2137 141.756 22.158 141.503 22.1085 141.267C22.059 141.032 22.0466 140.939 22.0466 140.939Z" fill="#263238"/>
<path d="M42.5644 155.794C42.5553 155.871 42.5366 155.945 42.5087 156.017C42.4592 156.172 42.3973 156.382 42.3106 156.636L41.5308 159.05L40.9552 160.795C40.7633 161.414 40.5529 162.132 40.3362 162.881C39.8968 164.385 39.3521 166.081 38.857 167.993C38.6032 168.947 38.3309 169.943 38.0523 170.983C37.7738 172.023 37.5324 173.112 37.2539 174.239C36.6845 176.485 36.1955 178.912 35.657 181.462C34.6544 186.574 33.7321 192.231 33.0575 198.21C32.3829 204.189 32.0858 209.914 31.9496 215.126C31.9496 217.732 31.8691 220.207 31.9496 222.522C31.9496 223.68 31.9496 224.8 32.0177 225.877C32.0858 226.954 32.1105 227.981 32.1538 228.971C32.2157 230.946 32.3829 232.722 32.4819 234.282C32.5438 235.062 32.5933 235.792 32.6428 236.461C32.6923 237.129 32.7728 237.736 32.8223 238.317C32.9275 239.401 33.008 240.249 33.0637 240.843C33.0637 241.121 33.1008 241.338 33.1194 241.505C33.1249 241.579 33.1249 241.654 33.1194 241.728C33.0984 241.655 33.0839 241.58 33.0761 241.505C33.0761 241.344 33.0265 241.127 32.9956 240.855C32.9213 240.236 32.8223 239.413 32.6923 238.33L32.4881 236.504C32.4262 235.836 32.3643 235.111 32.2962 234.332C32.1786 232.766 31.9991 230.989 31.9186 229.015C31.8691 228.031 31.8134 226.997 31.7639 225.92C31.7144 224.843 31.702 223.723 31.6711 222.565C31.5968 220.244 31.6711 217.762 31.6711 215.138C31.7887 209.921 32.1105 204.183 32.7542 198.192C33.3979 192.2 34.3635 186.537 35.3847 181.418C35.9356 178.868 36.4307 176.467 37.0125 174.195C37.2972 173.069 37.5448 171.973 37.8295 170.933C38.1142 169.894 38.3928 168.903 38.6589 167.95C39.1664 166.044 39.7235 164.348 40.1815 162.85C40.4167 162.101 40.6395 161.408 40.8376 160.764C41.0356 160.121 41.2585 159.526 41.4565 159.031C41.8217 158.004 42.0755 157.174 42.2983 156.63C42.3973 156.37 42.4716 156.166 42.5273 156.011C42.5311 155.937 42.5436 155.865 42.5644 155.794Z" fill="#263238"/>
<path d="M41.2152 160.405C39.1851 158.697 39.0613 155.516 40.0578 153.058C41.0543 150.601 42.9297 148.627 44.4956 146.485C46.0615 144.344 47.3922 141.781 47.0333 139.157C46.882 138.55 46.838 137.922 46.9033 137.3C47.0333 136.681 47.646 136.106 48.2464 136.291C48.8467 136.477 48.9953 137.084 49.1067 137.628C49.4536 139.323 49.5578 141.059 49.4162 142.784C49.8222 141.78 50.4511 140.882 51.2553 140.157C52.0595 139.432 53.018 138.9 54.0582 138.6C54.2818 139.609 54.2471 140.658 53.9571 141.651C53.6671 142.643 53.1314 143.546 52.3995 144.276C53.7426 143.719 55.1785 143.143 56.6083 143.421C58.038 143.7 59.313 145.21 58.7745 146.566C58.1556 148.101 56.0698 148.132 54.442 148.422C52.6206 148.755 50.9759 149.722 49.7999 151.152C48.3268 152.947 47.7388 155.293 46.5443 157.286C45.3497 159.279 43.0658 160.999 40.8624 160.294" fill="#FF725E"/>
<path d="M23.792 147.816C26.0388 146.417 26.6082 143.279 25.9645 140.711C25.3208 138.142 23.7487 135.92 22.4984 133.58C21.2482 131.241 20.2888 128.517 21.013 125.967C21.2526 125.377 21.3846 124.748 21.4029 124.111C21.3596 123.492 20.8397 122.823 20.2145 122.922C19.5894 123.021 19.3604 123.603 19.1747 124.16C18.5925 125.788 18.2465 127.491 18.1473 129.217C17.8871 128.165 17.3907 127.186 16.6957 126.355C16.0008 125.524 15.1256 124.862 14.1365 124.42C13.7733 125.388 13.6605 126.433 13.8088 127.456C13.957 128.48 14.3614 129.45 14.9845 130.275C13.7466 129.532 12.3849 128.765 10.9366 128.839C9.4883 128.914 8.00903 130.232 8.34945 131.643C8.73319 133.252 10.8252 133.58 12.3787 134.119C14.134 134.708 15.6261 135.895 16.5937 137.473C17.7945 139.454 18.0544 141.862 18.9519 144.003C19.8494 146.145 21.8733 148.181 24.1572 147.779" fill="#FF725E"/>
<path d="M21.1367 178.46C21.23 178.583 21.307 178.719 21.3657 178.862L21.9847 180.038C22.2446 180.552 22.5541 181.183 22.8821 181.932C23.2102 182.681 23.6187 183.516 24.0024 184.47C24.3862 185.423 24.8256 186.456 25.2403 187.595C25.655 188.734 26.0821 189.947 26.5215 191.235C27.3509 193.822 28.1617 196.706 28.8487 199.764C29.5357 202.821 29.9999 205.786 30.3342 208.485C30.4827 209.834 30.6375 211.121 30.7117 212.328C30.786 213.535 30.8665 214.655 30.9098 215.683C30.9531 216.71 30.9593 217.639 30.9717 218.456C30.9841 219.273 30.9717 219.972 30.9717 220.548C30.9717 221.123 30.9098 221.519 30.9098 221.872C30.9098 222.225 30.9098 222.33 30.8726 222.33C30.8555 222.176 30.8555 222.02 30.8726 221.866C30.8726 221.538 30.8726 221.098 30.8726 220.548C30.8726 219.997 30.8726 219.273 30.8355 218.456C30.7984 217.639 30.7984 216.716 30.7241 215.695C30.6498 214.674 30.6065 213.547 30.4889 212.347C30.3713 211.146 30.2413 209.871 30.0866 208.522C29.7338 205.835 29.2448 202.889 28.5826 199.856C27.9203 196.824 27.0909 193.933 26.2801 191.346C25.853 190.059 25.4569 188.833 25.0422 187.707C24.6275 186.58 24.2252 185.528 23.8415 184.575C23.4577 183.622 23.0926 182.774 22.7769 182.025C22.4613 181.276 22.158 180.632 21.929 180.112L21.3843 178.905C21.2878 178.765 21.2049 178.616 21.1367 178.46Z" fill="#263238"/>
<path d="M22.6717 184.42C23.792 183.51 23.9096 181.777 23.3649 180.434C22.8203 179.091 21.8423 177.995 21.0068 176.813C20.1712 175.631 19.4718 174.226 19.6884 172.803C19.7753 172.47 19.8046 172.124 19.7751 171.781C19.707 171.441 19.379 171.125 19.0509 171.218C18.7229 171.311 18.6362 171.645 18.5681 171.942C18.365 172.862 18.2941 173.806 18.3577 174.746C18.1478 174.197 17.8159 173.703 17.387 173.301C16.9581 172.899 16.4435 172.599 15.8819 172.425C15.7531 172.971 15.7638 173.541 15.9131 174.082C16.0624 174.622 16.3454 175.117 16.7361 175.52C16.0371 175.135 15.2417 174.961 14.446 175.018C13.6723 175.155 12.9606 175.972 13.2081 176.708C13.53 177.556 14.6688 177.587 15.5539 177.76C16.5419 177.963 17.4284 178.503 18.0606 179.289C18.8467 180.279 19.15 181.561 19.7813 182.656C20.4126 183.752 21.6381 184.717 22.876 184.346" fill="#FF725E"/>
</svg>
