<svg width="1344" height="997" viewBox="0 0 1344 997" fill="none" xmlns="http://www.w3.org/2000/svg">
<path d="M306.34 754.934L303.034 939.572L13.2731 940.263L12.8536 753.133L306.34 754.934Z" fill="#EBEBEB"/>
<path d="M135.641 939.744C135.247 939.744 135.641 898.519 136.604 847.672C137.566 796.825 138.553 755.625 138.923 755.649C139.293 755.674 138.923 796.85 137.961 847.697C136.998 898.544 136.012 939.744 135.641 939.744Z" fill="#E0E0E0"/>
<path d="M13.2731 940.262C13.6244 939.587 14.02 938.936 14.4573 938.313L18.0346 932.911L31.4803 913.174L76.2089 848.166C93.676 822.828 109.391 799.835 120.617 783.059C126.242 774.695 130.683 767.837 133.742 763.124C135.197 760.83 136.357 758.98 137.22 757.647C137.598 756.984 138.036 756.356 138.528 755.772C138.211 756.458 137.857 757.125 137.467 757.771L134.186 763.396C131.275 768.33 126.933 775.139 121.431 783.601C110.428 800.501 94.8355 823.593 77.3437 848.955C59.852 874.317 43.9145 897.113 32.2944 913.593L18.5033 933.108L14.704 938.363C14.2836 939.037 13.8048 939.672 13.2731 940.262Z" fill="#E0E0E0"/>
<path d="M135.641 939.744C135.141 939.179 134.695 938.568 134.309 937.919L130.707 932.565L117.607 912.828L74.1365 847.894C57.0888 822.557 41.7928 799.539 30.9375 782.738C25.5346 774.325 21.0691 767.491 18.2319 762.754L14.852 757.253C14.427 756.636 14.0556 755.984 13.7418 755.304C14.2373 755.864 14.683 756.467 15.0741 757.105L18.676 762.458C21.8339 767.22 26.2747 773.955 31.7517 782.195L75.2467 847.129C92.2944 872.466 107.566 895.485 118.421 912.31C123.849 920.698 128.289 927.532 131.151 932.294L134.531 937.771C134.948 938.401 135.319 939.061 135.641 939.744Z" fill="#E0E0E0"/>
<path d="M165.555 918.787L212.077 919.624L212.248 910.102L165.726 909.266L165.555 918.787Z" fill="#E0E0E0"/>
<path d="M167.911 901.578C175.47 900.843 183.066 900.572 190.658 900.764C198.252 900.496 205.856 900.678 213.429 901.307C205.87 902.027 198.274 902.299 190.683 902.121C183.088 902.389 175.484 902.207 167.911 901.578Z" fill="#E0E0E0"/>
<path d="M229.761 753.873L228.479 825.147L218.437 817.179L205.411 824.728L206.694 753.453L229.761 753.873Z" fill="#E0E0E0"/>
<path d="M271.579 615.073L269.062 755.994L47.9358 756.513L47.5905 613.692L271.579 615.073Z" fill="#F5F5F5"/>
<path d="M141.316 756.118C141.02 756.118 141.316 724.662 142.056 685.855C142.796 647.047 143.536 615.616 143.832 615.616C144.128 615.616 143.832 647.072 143.092 685.879C142.352 724.687 141.587 756.118 141.316 756.118Z" fill="#E0E0E0"/>
<path d="M47.9359 756.513C48.1932 755.997 48.4901 755.502 48.8241 755.032C49.5149 754.013 50.4277 752.631 51.5626 750.888C54.0297 747.261 57.5329 742.129 61.8257 735.838C70.6086 723.083 82.648 705.616 95.9704 686.324C109.293 667.031 121.283 649.317 129.844 636.636C134.112 630.222 137.516 625.016 139.86 621.414L142.5 617.22C142.805 616.727 143.134 616.249 143.487 615.789C143.255 616.327 142.983 616.846 142.673 617.343L140.206 621.611C137.985 625.287 134.679 630.592 130.485 637.031C122.072 649.934 110.181 667.574 96.8339 686.916C83.4869 706.258 71.2994 723.651 62.4425 736.258L51.9326 751.06C50.6991 752.738 49.7369 754.095 49.0214 755.082C48.7016 755.589 48.3384 756.068 47.9359 756.513Z" fill="#E0E0E0"/>
<path d="M141.316 756.118C140.925 755.693 140.578 755.23 140.28 754.736L137.541 750.641C135.074 747.014 131.743 741.883 127.549 735.592L94.2928 686.027C81.2911 666.71 69.6217 649.021 61.3323 636.291C57.2122 629.876 53.931 624.671 51.6366 621.044L49.1695 616.85C48.602 615.888 48.306 615.37 48.3306 615.37C48.7152 615.794 49.0542 616.257 49.3422 616.751L52.1053 620.822C54.5724 624.473 57.903 629.58 61.9737 635.896L95.1809 685.46C108.183 704.777 119.852 722.343 128.117 735.172C132.262 741.587 135.518 746.817 137.837 750.444L140.428 754.613C140.758 755.093 141.055 755.596 141.316 756.118Z" fill="#E0E0E0"/>
<path d="M165.785 739.109L201.286 739.819L201.432 732.541L165.93 731.831L165.785 739.109Z" fill="#E0E0E0"/>
<path d="M165.839 726.981C171.578 726.441 177.345 726.235 183.108 726.365C188.868 726.175 194.634 726.315 200.378 726.784C194.639 727.339 188.872 727.545 183.108 727.401C177.349 727.619 171.581 727.479 165.839 726.981Z" fill="#EBEBEB"/>
<path d="M226.875 614.284L225.888 668.684L218.24 662.59L208.298 668.363L209.26 613.963L226.875 614.284Z" fill="#E0E0E0"/>
<path d="M295.559 926.94C292.968 919.258 288.116 912.538 281.641 907.66C275.165 902.783 267.367 899.975 259.268 899.605L252.483 526.209H285.148V531.784H291.291V518.413H240.543C240.543 518.413 246.587 793.889 250.978 899.975C248.796 900.329 246.643 900.849 244.539 901.529C236.425 904.261 229.392 909.508 224.463 916.509C219.535 923.51 216.966 931.9 217.13 940.46L101.423 938.93L104.729 954.128L218.783 950.994C218.931 951.513 219.054 952.031 219.227 952.573C220.821 957.703 223.424 962.462 226.885 966.571C230.345 970.679 234.592 974.054 239.376 976.498C244.159 978.941 249.383 980.403 254.741 980.797C260.098 981.192 265.479 980.511 270.57 978.795C275.66 977.079 280.355 974.363 284.38 970.806C288.405 967.248 291.678 962.922 294.006 958.081C296.335 953.241 297.671 947.983 297.938 942.618C298.205 937.253 297.396 931.889 295.559 926.842V926.94Z" fill="#E0E0E0"/>
<path d="M123.602 976.356H129.72L141.513 953.215L131.768 953.486L123.602 976.356Z" fill="#E0E0E0"/>
<path d="M1072.45 0H956.595V32.023H1072.45V0Z" fill="#EBEBEB"/>
<path d="M1171.5 677.861H1055.65V709.884H1171.5V677.861Z" fill="#EBEBEB"/>
<path d="M1043.04 31.998H927.187V64.0211H1043.04V31.998Z" fill="#F5F5F5"/>
<path d="M1097.76 710.896H1014.52V742.919H1097.76V710.896Z" fill="#F5F5F5"/>
<path d="M608.98 106.554H359.408V616.924H608.98V106.554Z" fill="#EBEBEB"/>
<path d="M484.095 106.554C484.095 106.554 432.927 338.067 359.309 353.881C359.309 353.881 388.914 516.291 391.752 616.924H359.408V106.554H484.095Z" fill="#E0E0E0"/>
<path d="M485.033 106.554C485.033 106.554 536.2 338.067 609.917 353.881C609.917 353.881 580.312 516.291 577.5 616.924H609.917V106.554H485.033Z" fill="#E0E0E0"/>
<path d="M488.758 105.567H479.654V616.924H488.758V105.567Z" fill="#FAFAFA"/>
<path d="M419.383 105.567H417.138V616.924H419.383V105.567Z" fill="#FAFAFA"/>
<path d="M554.112 105.567H551.866V616.924H554.112V105.567Z" fill="#FAFAFA"/>
<path d="M608.98 232.376V234.424L359.408 235.436V233.388L608.98 232.376Z" fill="#FAFAFA"/>
<path d="M608.98 486.291V488.289L359.408 489.301V487.302L608.98 486.291Z" fill="#FAFAFA"/>
<path d="M608.98 356.62H359.408V365.131H608.98V356.62Z" fill="#FAFAFA"/>
<path d="M612.68 620.624H355.806V102.854H612.68V620.624ZM363.108 613.223H605.279V110.255H363.207L363.108 613.223Z" fill="#F5F5F5"/>
<path d="M1339.32 106.554H1089.74V616.924H1339.32V106.554Z" fill="#EBEBEB"/>
<path d="M1214.53 106.554C1214.53 106.554 1163.36 338.067 1089.74 353.881C1089.74 353.881 1119.35 516.291 1122.16 616.924H1089.74V106.554H1214.53Z" fill="#E0E0E0"/>
<path d="M1215.37 106.554C1215.37 106.554 1266.54 338.067 1340.18 353.881C1340.18 353.881 1310.57 516.291 1307.74 616.924H1340.18V106.554H1215.37Z" fill="#E0E0E0"/>
<path d="M1219.07 105.567H1209.97V616.924H1219.07V105.567Z" fill="#FAFAFA"/>
<path d="M1149.69 105.567H1147.45V616.924H1149.69V105.567Z" fill="#FAFAFA"/>
<path d="M1284.42 105.567H1282.18V616.924H1284.42V105.567Z" fill="#FAFAFA"/>
<path d="M1339.32 232.376V234.424L1089.74 235.436V233.388L1339.32 232.376Z" fill="#FAFAFA"/>
<path d="M1339.32 486.291V488.289L1089.74 489.301V487.302L1339.32 486.291Z" fill="#FAFAFA"/>
<path d="M1339.32 356.62H1089.74V365.131H1339.32V356.62Z" fill="#FAFAFA"/>
<path d="M1343.02 620.624H1086.07V102.854H1343.02V620.624ZM1093.44 613.223H1335.62V110.255H1093.47L1093.44 613.223Z" fill="#F5F5F5"/>
<path d="M563.264 903.231C554.334 899.041 544.295 897.822 534.621 899.753C529.416 900.616 523.988 902.22 520.46 906.068C516.932 909.917 516.241 916.85 520.312 920.205C522.93 921.988 526.092 922.791 529.243 922.475C536.817 922.475 545.205 921.044 551.274 925.608C554.728 928.223 557.023 932.54 561.143 933.823C563.212 934.287 565.375 934.072 567.313 933.21C569.25 932.348 570.858 930.885 571.899 929.037C573.855 925.228 574.287 920.818 573.108 916.702C572.611 913.851 571.465 911.154 569.758 908.818C568.051 906.482 565.829 904.57 563.264 903.231Z" fill="#EBEBEB"/>
<path d="M583.248 864.67C577.919 872.294 567.557 869.777 562.746 865.114C557.936 860.452 555.913 853.741 554.062 847.327C549.843 832.524 545.575 817.253 548.733 802.302C549.463 797.735 551.454 793.462 554.482 789.966C556.001 788.265 557.938 786.99 560.102 786.268C562.266 785.545 564.58 785.4 566.817 785.846C572.023 787.228 575.279 792.335 577.623 797.22C584.547 811.582 588.171 827.312 588.232 843.256C588.232 850.657 587.393 858.453 583.297 864.572" fill="#EBEBEB"/>
<path d="M597.878 875.6C595.143 872.021 593.323 867.83 592.575 863.389C591.827 858.948 592.174 854.391 593.585 850.114C596.5 841.558 601.726 833.976 608.684 828.207C616.603 821.168 625.822 815.745 635.822 812.244C639.683 810.698 643.831 810 647.985 810.197C650.057 810.316 652.069 810.94 653.845 812.015C655.621 813.09 657.107 814.583 658.174 816.364C661.036 821.792 658.297 828.379 655.337 833.634C650.152 843.141 644.212 852.217 637.574 860.772C632.269 867.631 626.176 874.391 618.059 877.499C609.942 880.608 601.505 880.238 597.212 874.613" fill="#EBEBEB"/>
<path d="M583.618 979.539C583.316 978.411 583.15 977.252 583.125 976.085C582.878 973.618 582.582 970.386 582.212 966.636C581.842 962.886 581.176 957.927 580.09 952.771C578.87 947.207 577.221 941.747 575.156 936.438C573.085 931.132 570.269 926.148 566.792 921.636C563.976 917.969 560.377 914.976 556.258 912.878C553.458 911.481 550.45 910.548 547.352 910.114C546.193 910.073 545.042 909.9 543.922 909.596C545.087 909.479 546.261 909.479 547.426 909.596C550.634 909.85 553.769 910.686 556.677 912.063C561.033 914.108 564.851 917.141 567.829 920.92C571.44 925.488 574.35 930.569 576.463 935.994C578.58 941.386 580.231 946.949 581.398 952.623C582.287 957.254 582.905 961.933 583.248 966.636C583.544 970.657 583.643 973.889 583.692 976.134C583.778 977.269 583.753 978.409 583.618 979.539Z" fill="#E0E0E0"/>
<path d="M582.952 972.261C582.894 971.728 582.894 971.19 582.952 970.657C582.952 969.448 582.952 967.943 582.952 966.068C582.952 962.096 582.952 956.2 582.754 949.193C582.384 934.958 581.176 915.32 578.807 893.708C576.439 872.096 573.256 852.656 570.37 838.717C569.679 835.213 569.013 832.055 568.347 829.317C567.681 826.578 567.212 824.161 566.718 822.236C566.225 820.312 565.929 818.955 565.633 817.771C565.479 817.257 565.388 816.727 565.361 816.192C565.59 816.675 565.772 817.179 565.904 817.697C566.274 818.856 566.694 820.312 567.236 822.113C567.779 823.914 568.445 826.381 569.136 829.119C569.827 831.858 570.616 835.016 571.356 838.494C575.281 856.672 578.237 875.045 580.213 893.536C582.68 915.197 583.667 934.909 583.766 949.193C583.766 956.323 583.766 962.096 583.495 966.093C583.495 967.943 583.297 969.473 583.223 970.682C583.201 971.218 583.11 971.748 582.952 972.261Z" fill="#E0E0E0"/>
<path d="M582.779 934.243C582.655 932.65 582.655 931.049 582.779 929.456C582.952 926.373 583.371 921.907 584.235 916.455C585.292 910.074 586.7 903.757 588.454 897.532C590.562 889.888 593.208 882.402 596.373 875.131C601.913 861.744 609.847 849.48 619.786 838.938C621.493 837.13 623.314 835.432 625.238 833.856C626.077 833.141 626.817 832.425 627.582 831.882L629.704 830.402C630.977 829.462 632.331 828.636 633.75 827.935C629.086 831.578 624.66 835.517 620.501 839.728C610.948 850.375 603.281 862.573 597.829 875.797C594.702 883.018 592.048 890.435 589.885 898.001C588.076 904.164 586.578 910.413 585.394 916.726C584.383 922.129 583.816 926.595 583.47 929.604C583.369 931.167 583.138 932.718 582.779 934.243Z" fill="#E0E0E0"/>
<path d="M1304.43 981.389C1304.43 981.734 1025.5 982.031 681.488 982.031C337.475 982.031 58.4951 981.734 58.4951 981.389C58.4951 981.044 337.278 980.748 681.488 980.748C1025.7 980.748 1304.43 981.044 1304.43 981.389Z" fill="#263238"/>
<path d="M1129.98 900.838C1094.11 877.351 1085.01 832.401 1085.4 791.792C1085.4 785.007 1084.56 777.902 1087.67 771.882C1090.78 765.863 1098.31 761.619 1104.52 764.309C1109.68 766.554 1111.92 772.351 1115.01 777.137C1118.99 783.528 1124.71 788.661 1131.49 791.94C1135.9 794.086 1141.36 795.32 1145.6 792.878C1151.45 789.498 1151.94 781.406 1151.74 774.67C1151.35 762.121 1150.96 749.572 1150.58 737.022C1150 730.297 1150.52 723.52 1152.14 716.965C1154.11 710.526 1158.65 704.457 1165.11 702.508C1171.58 700.559 1179.67 704.062 1181.2 710.624C1181.53 713.408 1181.67 716.21 1181.62 719.012C1181.61 720.413 1182.02 721.784 1182.79 722.952C1183.57 724.121 1184.67 725.033 1185.96 725.575C1188.72 726.315 1191.39 724.341 1193.36 722.318C1200.25 715.336 1204.81 706.455 1209.08 697.647C1213.35 688.84 1217.44 679.786 1223.66 672.236C1229.88 664.687 1238.46 658.568 1248.33 657.779C1258.2 656.989 1268.66 662.713 1271.35 672.113C1274.04 681.513 1268.68 691.332 1262.76 699.251C1253.96 710.849 1243.53 721.118 1231.8 729.744C1229.5 731.055 1227.68 733.07 1226.62 735.493C1225.26 740.032 1229.68 744.399 1234.19 745.756C1239.32 747.31 1244.83 746.644 1250.18 747.137C1255.53 747.631 1261.33 749.802 1263.48 754.736C1266.44 761.545 1260.79 768.897 1255.16 773.782C1243.86 783.524 1230.98 791.274 1217.07 796.702C1212.14 798.626 1206.83 800.353 1202.89 803.93C1198.94 807.508 1196.62 813.626 1199.19 818.313C1201.75 823.001 1208.07 824.358 1213.3 823.248C1218.53 822.137 1223.17 819.226 1228.1 817.253C1237.38 813.527 1249.51 813.873 1255.71 821.743C1257.61 824.439 1258.85 827.546 1259.33 830.812C1259.81 834.078 1259.52 837.412 1258.47 840.542C1256.35 846.783 1253 852.531 1248.6 857.442C1234.09 875.451 1215.09 889.314 1193.51 897.631C1171.92 905.599 1151.82 908.116 1129.98 900.813" fill="#FF725E"/>
<path d="M1261.23 663.133C1261.23 663.133 1261.04 663.379 1260.59 663.799L1258.62 665.625C1256.87 667.228 1254.28 669.597 1251.04 672.73C1241.87 681.538 1233.39 691.031 1225.66 701.126C1220.72 707.491 1215.62 714.695 1210.29 722.516C1204.96 730.337 1199.31 738.75 1193.73 747.804C1187.81 757.233 1182.43 766.985 1177.6 777.014C1175.13 782.22 1172.89 787.672 1170.62 793.223C1168.35 798.774 1166.08 804.399 1163.78 810.098C1154.97 831.452 1147.38 853.288 1141.04 875.501C1135.95 893.662 1132.59 912.265 1131.02 931.06C1130.01 943.734 1130.11 956.471 1131.31 969.128C1131.78 973.593 1132.23 977.072 1132.6 979.415C1132.75 980.534 1132.87 981.422 1132.97 982.08C1133.01 982.383 1133.01 982.69 1132.97 982.993C1132.86 982.705 1132.79 982.408 1132.75 982.105C1132.62 981.438 1132.45 980.575 1132.25 979.44C1131.78 977.121 1131.27 973.642 1130.72 969.177C1129.32 956.495 1129.09 943.711 1130.03 930.986C1131.52 912.119 1134.83 893.438 1139.9 875.205C1146.19 852.926 1153.77 831.031 1162.6 809.629C1164.89 803.93 1167.19 798.305 1169.43 792.73C1171.68 787.154 1173.92 781.702 1176.46 776.472C1181.34 766.418 1186.77 756.642 1192.72 747.187C1198.35 738.133 1204.02 729.745 1209.4 721.924C1214.78 714.103 1219.93 706.924 1224.92 700.583C1232.74 690.517 1241.36 681.088 1250.67 672.384C1253.98 669.301 1256.62 666.981 1258.42 665.452L1260.49 663.7L1261.23 663.133Z" fill="#263238"/>
<path d="M1176.88 776.373C1176.54 775.446 1176.29 774.487 1176.14 773.511C1175.75 771.661 1175.25 768.947 1174.69 765.616C1173.55 758.93 1172.22 749.654 1170.99 739.416C1169.75 729.177 1168.3 719.926 1167.06 713.264C1166.45 709.934 1165.93 707.269 1165.56 705.394C1165.27 704.49 1165.08 703.554 1165.02 702.606C1165.41 703.512 1165.72 704.454 1165.93 705.419C1166.47 707.245 1167.11 709.909 1167.83 713.215C1169.28 719.851 1170.81 729.103 1172.15 739.366L1175.48 765.616C1175.9 768.75 1176.24 771.414 1176.54 773.56C1176.76 774.481 1176.88 775.425 1176.88 776.373Z" fill="#263238"/>
<path d="M1264.24 758.092C1263.1 758.351 1261.93 758.516 1260.76 758.585C1258.52 758.832 1255.26 759.177 1251.27 759.745C1243.25 760.781 1232.22 762.606 1220.16 765.172C1208.09 767.738 1197.26 770.501 1189.49 772.746C1185.59 773.832 1182.46 774.794 1180.29 775.46C1179.18 775.867 1178.04 776.172 1176.88 776.373C1177.92 775.806 1179.01 775.343 1180.14 774.991C1182.26 774.202 1185.34 773.092 1189.22 771.883C1196.94 769.416 1207.77 766.504 1219.88 763.939C1230.21 761.707 1240.64 760.011 1251.14 758.856C1255.19 758.412 1258.54 758.19 1260.71 758.092C1261.89 757.963 1263.07 757.963 1264.24 758.092Z" fill="#263238"/>
<path d="M1141.01 873.527C1140.77 873.207 1140.56 872.859 1140.39 872.491L1138.81 869.383C1137.46 866.694 1135.58 862.746 1133.36 857.837C1128.87 847.968 1123.12 834.251 1116.98 818.98C1110.84 803.708 1105.24 789.917 1100.97 780.024L1095.94 768.306L1094.58 765.123C1094.39 764.755 1094.25 764.366 1094.16 763.963C1094.16 763.963 1094.43 764.309 1094.8 765C1095.17 765.69 1095.74 766.875 1096.38 768.108C1097.74 770.797 1099.59 774.745 1101.83 779.654C1106.3 789.523 1112.07 803.24 1118.21 818.511C1124.36 833.782 1129.96 847.574 1134.23 857.467L1139.31 869.185C1139.85 870.468 1140.3 871.652 1140.67 872.368C1140.84 872.735 1140.96 873.126 1141.01 873.527Z" fill="#263238"/>
<path d="M1256.74 833.659C1256.37 833.853 1255.98 834.018 1255.58 834.152L1252.23 835.361L1239.89 839.629C1229.43 843.256 1215.02 848.437 1199.14 854.185C1183.25 859.934 1168.79 864.966 1158.26 868.371C1152.98 870.098 1148.71 871.43 1145.72 872.294L1142.29 873.281C1141.9 873.421 1141.48 873.504 1141.06 873.527C1141.42 873.308 1141.81 873.141 1142.22 873.034L1145.57 871.825L1157.91 867.532C1168.37 863.906 1182.78 858.749 1198.67 853.001C1214.56 847.253 1229.01 842.22 1239.55 838.791C1244.83 837.088 1249.09 835.756 1252.08 834.892L1255.51 833.906C1255.91 833.766 1256.32 833.683 1256.74 833.659Z" fill="#263238"/>
<path d="M141.192 313.002C217.999 313.002 280.263 250.738 280.263 173.931C280.263 97.1244 217.999 34.8604 141.192 34.8604C64.3858 34.8604 2.12183 97.1244 2.12183 173.931C2.12183 250.738 64.3858 313.002 141.192 313.002Z" fill="#FAFAFA"/>
<path d="M141.168 315.099C113.247 315.099 85.9541 306.819 62.7392 291.308C39.5243 275.796 21.4305 253.748 10.7458 227.953C0.0611708 202.158 -2.73443 173.774 2.71256 146.39C8.15954 119.007 21.6045 93.853 41.3471 74.1103C61.0898 54.3677 86.2434 40.9227 113.627 35.4757C141.011 30.0288 169.395 32.8243 195.19 43.509C220.985 54.1936 243.033 72.2875 258.544 95.5024C274.056 118.717 282.335 146.011 282.335 173.931C282.29 211.357 267.402 247.237 240.938 273.701C214.474 300.165 178.594 315.053 141.168 315.099ZM141.168 36.9573C114.071 36.9573 87.5828 44.9928 65.053 60.0474C42.5232 75.1021 24.9638 96.4997 14.5955 121.534C4.22714 146.569 1.51556 174.116 6.80367 200.692C12.0918 227.267 25.142 251.678 44.3041 270.837C63.4661 289.995 87.8791 303.041 114.456 308.324C141.032 313.608 168.579 310.891 193.612 300.518C218.645 290.146 240.039 272.582 255.09 250.05C270.14 227.517 278.171 201.028 278.166 173.931C278.127 137.611 263.68 102.79 237.995 77.1105C212.311 51.4308 177.488 36.99 141.168 36.9573Z" fill="#263238"/>
<path d="M142.673 77.3683C142.134 72.9494 141.952 68.4941 142.13 64.046C141.951 59.5978 142.133 55.1425 142.673 50.7236C143.213 55.1425 143.394 59.5978 143.215 64.046C143.393 68.4941 143.211 72.9494 142.673 77.3683Z" fill="#263238"/>
<path d="M70.7566 103.643C67.5659 101.137 64.6097 98.3457 61.9243 95.3043C58.9818 92.5113 56.2906 89.465 53.8816 86.2007C57.0722 88.707 60.0285 91.498 62.7138 94.5395C65.6563 97.3325 68.3476 100.379 70.7566 103.643Z" fill="#263238"/>
<path d="M52.352 176.842C46.7937 177.381 41.2066 177.563 35.625 177.385C30.0435 177.563 24.4563 177.381 18.8981 176.842C24.4563 176.303 30.0435 176.122 35.625 176.299C41.2066 176.122 46.7937 176.303 52.352 176.842Z" fill="#263238"/>
<path d="M70.4359 245.107C68.3037 248.057 65.9358 250.829 63.3553 253.396C61.0354 256.22 58.3849 258.754 55.4606 260.946C57.6154 258.006 59.9906 255.235 62.5658 252.656C64.8727 249.829 67.5155 247.294 70.4359 245.107Z" fill="#263238"/>
<path d="M228.355 259.54C248.647 239.113 261.153 212.231 263.709 183.553C268.051 131.744 245.452 104.605 228.725 86.3735L214.194 100.288C228.997 116.151 251.941 147.681 245.724 185.082C241.846 208.352 231.424 230.036 215.674 247.599L228.355 259.54Z" fill="#FF725E"/>
<path d="M137.788 191.744C134.627 191.121 131.722 189.574 129.441 187.3C127.159 185.026 125.604 182.126 124.971 178.967C124.338 175.808 124.657 172.533 125.886 169.555C127.115 166.578 129.2 164.031 131.876 162.239C134.553 160.446 137.701 159.488 140.923 159.485C144.144 159.483 147.294 160.435 149.974 162.223C152.653 164.011 154.743 166.554 155.977 169.529C157.211 172.505 157.535 175.78 156.908 178.939C156.495 181.036 155.672 183.031 154.487 184.81C153.303 186.589 151.779 188.117 150.003 189.306C148.227 190.495 146.234 191.323 144.138 191.741C142.042 192.159 139.884 192.16 137.788 191.744Z" fill="#263238"/>
<path d="M198.873 214.219L104.482 141.908L95.5017 155.601L198.873 214.219Z" fill="#263238"/>
<path d="M264.178 172.771C264.178 172.771 264.178 172.105 264.178 170.773C264.178 169.441 264.178 167.492 263.906 164.926C262.724 147.39 257.795 130.312 249.454 114.842C241.113 99.3726 229.552 85.8707 215.551 75.2468C200.353 63.7046 182.673 55.8655 163.915 52.3521C153.507 50.4157 142.892 49.8352 132.336 50.6251C126.814 51.0379 121.325 51.8126 115.905 52.9442C110.348 54.1366 104.875 55.6942 99.5231 57.607C75.8936 66.2136 55.4835 81.8805 41.0616 102.482C26.6396 123.084 18.904 147.623 18.904 172.771C18.904 197.919 26.6396 222.459 41.0616 243.061C55.4835 263.662 75.8936 279.329 99.5231 287.936C104.878 289.845 110.35 291.411 115.905 292.623C131.729 295.916 148.042 296.109 163.939 293.191C182.688 289.671 200.359 281.832 215.551 270.296C229.547 259.668 241.105 246.165 249.446 230.696C257.786 215.227 262.717 198.151 263.906 180.617C264.128 178.15 264.079 176.077 264.178 174.77C264.276 173.462 264.178 172.771 264.178 172.771C264.178 172.771 264.178 175.485 264.005 180.617C263.592 188.106 262.477 195.54 260.674 202.821C257.839 214.406 253.317 225.511 247.253 235.781C239.138 249.363 228.503 261.271 215.921 270.863C200.648 282.52 182.866 290.452 163.989 294.03C153.503 296.007 142.804 296.604 132.163 295.806C126.597 295.436 121.065 294.67 115.609 293.511C110.007 292.326 104.492 290.76 99.1037 288.824C75.2553 280.174 54.6492 264.39 40.0868 243.617C25.5244 222.844 17.7122 198.091 17.7122 172.722C17.7122 147.353 25.5244 122.6 40.0868 101.827C54.6492 81.0547 75.2553 65.2703 99.1037 56.6202C104.492 54.6845 110.007 53.1184 115.609 51.9327C121.069 50.7969 126.6 50.0304 132.163 49.6383C142.805 48.8478 153.504 49.4533 163.989 51.4393C173.785 53.2438 183.316 56.269 192.36 60.4442C200.726 64.2456 208.63 68.9885 215.921 74.5807C228.513 84.2026 239.148 96.1441 247.253 109.762C253.293 119.991 257.814 131.044 260.674 142.574C262.476 149.855 263.591 157.289 264.005 164.778C264.276 170.058 264.178 172.771 264.178 172.771Z" fill="#263238"/>
<path d="M264.227 171.982C259.875 172.536 255.484 172.717 251.102 172.525C246.711 172.717 242.312 172.535 237.952 171.982C242.313 171.443 246.711 171.262 251.102 171.439C255.484 171.261 259.874 171.443 264.227 171.982Z" fill="#263238"/>
<path d="M228.38 259.54C224.681 256.759 221.216 253.682 218.018 250.337C214.563 247.254 211.347 243.914 208.396 240.346C212.095 243.126 215.56 246.204 218.758 249.548C222.22 252.624 225.437 255.964 228.38 259.54Z" fill="#263238"/>
<path d="M228.725 86.3735C229.071 86.6943 225.025 90.839 219.819 95.6005C216.774 98.6131 213.472 101.354 209.951 103.791C212.743 100.546 215.796 97.5342 219.079 94.7863C221.694 92.3192 224.013 90.2716 225.839 88.7666C226.757 87.9178 227.721 87.1189 228.725 86.3735Z" fill="#263238"/>
<path d="M206.743 219.054C204.673 221.234 202.061 222.825 199.174 223.666C196.288 224.507 193.23 224.567 190.312 223.84C193.194 223.668 196.057 223.263 198.873 222.631C201.586 221.647 204.218 220.451 206.743 219.054Z" fill="#263238"/>
<path d="M211.011 222.854C210.196 223.93 209.162 224.821 207.977 225.469C205.245 227.219 202.192 228.41 198.997 228.972C195.797 229.525 192.521 229.449 189.35 228.75C188.021 228.544 186.751 228.056 185.625 227.319C189.927 228.463 194.426 228.657 198.811 227.886C203.195 227.114 207.358 225.397 211.011 222.854Z" fill="#263238"/>
<path d="M110.699 131.965C107.87 131.423 104.993 131.175 102.113 131.225C99.258 131.645 96.4546 132.364 93.75 133.372C96.049 131.385 98.9765 130.275 102.015 130.238C105.022 129.785 108.094 130.395 110.699 131.965Z" fill="#263238"/>
<path d="M112.574 128.314C108.505 127.586 104.367 127.321 100.239 127.525C96.1536 128.107 92.1479 129.15 88.2977 130.633C91.7662 128.138 95.874 126.683 100.14 126.439C104.379 125.853 108.697 126.504 112.574 128.314Z" fill="#263238"/>
<path d="M311.965 972.853L315.987 947.738L271.011 940.337L264.646 977.837L267.385 978.478C279.72 981.266 330.197 990.962 338.931 989.703C348.676 988.223 311.965 972.853 311.965 972.853Z" fill="#FF725E"/>
<path d="M340.362 987.483C340.362 987.902 323.413 985.559 302.64 982.228C281.867 978.898 265.09 975.863 265.164 975.444C265.238 975.024 282.113 977.368 302.886 980.699C323.659 984.029 340.436 987.064 340.362 987.483Z" fill="#263238"/>
<path d="M311.941 978.108C311.595 977.861 312.113 976.578 313.298 975.419C314.482 974.259 315.765 973.766 316.011 974.111C316.258 974.457 315.469 975.468 314.383 976.578C313.298 977.688 312.286 978.379 311.941 978.108Z" fill="#263238"/>
<path d="M314.531 980.23C314.161 980.008 314.531 978.552 315.74 977.146C316.949 975.74 318.207 974.95 318.478 975.271C318.75 975.592 318.01 976.776 316.949 978.108C315.888 979.44 314.926 980.452 314.531 980.23Z" fill="#263238"/>
<path d="M278.758 977.442C278.561 977.442 277.993 976.776 277.179 975.518C276.233 973.882 275.125 972.345 273.873 970.929C272.644 969.575 271.077 968.57 269.334 968.018C268.002 967.623 267.064 967.697 267.039 967.45C267.015 967.204 267.928 966.784 269.507 966.957C271.607 967.264 273.535 968.293 274.959 969.868C276.319 971.379 277.389 973.127 278.117 975.024C278.733 976.455 278.931 977.368 278.758 977.442Z" fill="#263238"/>
<path d="M312.829 973.421C312.977 973.791 312.089 974.555 310.707 974.802C309.326 975.049 308.24 974.802 308.24 974.309C308.24 973.815 309.227 973.544 310.411 973.297C311.595 973.051 312.656 973.001 312.829 973.421Z" fill="#263238"/>
<path d="M312.508 970.855C312.508 971.299 311.225 971.472 309.696 971.249C308.166 971.027 307.031 970.509 307.229 970.09C307.426 969.671 308.561 969.498 310.016 969.72C311.472 969.942 312.533 970.435 312.508 970.855Z" fill="#263238"/>
<path d="M471.069 967.426L470.131 942.014L424.564 943.396L425.575 981.414H428.413C441.019 981.759 492.557 981.414 500.773 978.528C510.049 975.37 471.069 967.426 471.069 967.426Z" fill="#FF725E"/>
<path d="M501.76 976.258C501.76 976.702 484.761 977.664 463.742 978.454C442.722 979.243 425.674 979.49 425.649 979.07C425.625 978.651 442.672 977.664 463.692 976.899C484.712 976.135 501.735 975.839 501.76 976.258Z" fill="#263238"/>
<path d="M472.056 972.582C471.661 972.409 471.932 971.052 472.87 969.695C473.807 968.338 474.967 967.573 475.337 967.869C475.707 968.166 475.09 969.3 474.227 970.559C473.363 971.817 472.45 972.779 472.056 972.582Z" fill="#263238"/>
<path d="M475.016 974.161C474.621 974.038 474.769 972.508 475.608 970.904C476.447 969.301 477.582 968.289 477.927 968.437C478.273 968.585 477.755 969.991 476.99 971.496C476.225 973.001 475.436 974.309 475.016 974.161Z" fill="#263238"/>
<path d="M439.366 978.404C439.194 978.404 438.503 977.886 437.467 976.801C436.205 975.394 434.818 974.106 433.322 972.952C431.875 971.88 430.175 971.2 428.388 970.978C427.006 970.978 426.093 971.102 425.921 970.978C425.748 970.855 426.661 970.139 428.388 969.991C430.512 969.876 432.609 970.513 434.309 971.792C435.935 973.009 437.324 974.514 438.404 976.233C439.144 977.393 439.539 978.281 439.366 978.404Z" fill="#263238"/>
<path d="M472.006 967.82C472.253 968.166 471.513 969.078 470.23 969.597C468.947 970.115 467.763 969.991 467.763 969.597C467.763 969.202 468.577 968.634 469.712 968.166C470.847 967.697 471.76 967.45 472.006 967.82Z" fill="#263238"/>
<path d="M471.217 965.378C471.217 965.797 470.057 966.217 468.528 966.291C466.998 966.365 465.765 966.093 465.765 965.649C465.765 965.205 466.973 964.81 468.454 964.736C469.934 964.662 471.143 964.959 471.217 965.378Z" fill="#263238"/>
<path d="M532.845 334.835L530.378 326.546C529.499 321.763 528.152 317.077 526.357 312.558C525.501 310.278 524.267 308.159 522.705 306.291C520.87 303.9 518.72 301.768 516.315 299.951C513.848 298.495 514.465 295.016 516.932 294.745C519.399 294.474 526.036 298.347 531.118 305.724C536.2 313.1 537.138 299.211 537.582 294.153C538.026 289.095 540.049 273.528 541.751 272.492C544.218 270.938 546.34 273.306 545.797 278.339C545.255 283.372 544.638 298.618 547.302 298.791C549.967 298.964 551.817 273.183 551.817 273.183C551.817 273.183 551.324 267.582 554.432 267.681C560.008 267.854 555.986 295.066 555.542 297.632C555.246 299.433 558.133 299.704 558.38 297.78C558.626 295.855 559.638 271.998 565.312 272.122C569.679 272.122 562.228 294.523 564.745 299.655C567.261 304.786 568.667 282.089 572.837 282.385C574.366 282.385 575.526 282.755 572.837 295.609C570.148 308.462 556.875 343.076 556.875 343.076L532.648 334.416" fill="#FFBE9D"/>
<path d="M366.168 328.026L407.171 331.061C407.714 326.324 408.528 307.894 408.528 307.894C408.528 307.894 425.65 306.291 426.883 289.342C428.117 272.393 427.623 233.289 427.623 233.289C418.238 228.552 407.759 226.406 397.267 227.074C386.775 227.742 376.652 231.199 367.944 237.089L365.304 238.865L366.168 328.026Z" fill="#FFBE9D"/>
<path d="M421.899 262.204C421.441 261.733 421.189 261.099 421.199 260.442C421.208 259.785 421.478 259.159 421.949 258.701C422.42 258.243 423.054 257.991 423.711 258C424.368 258.009 424.994 258.279 425.452 258.75C425.679 258.983 425.858 259.259 425.978 259.561C426.098 259.864 426.158 260.187 426.153 260.512C426.148 260.837 426.08 261.158 425.951 261.457C425.822 261.756 425.636 262.026 425.403 262.253C425.169 262.48 424.894 262.659 424.592 262.779C424.289 262.899 423.966 262.959 423.641 262.954C423.316 262.95 422.994 262.881 422.696 262.752C422.397 262.624 422.126 262.437 421.899 262.204Z" fill="#263238"/>
<path d="M426.266 258.528C425.97 258.799 424.391 257.417 422.047 257.269C419.704 257.121 417.952 258.207 417.705 257.886C417.459 257.565 417.903 257.245 418.668 256.727C419.708 256.06 420.94 255.757 422.171 255.863C423.398 255.944 424.567 256.42 425.501 257.22C426.167 257.911 426.39 258.528 426.266 258.528Z" fill="#263238"/>
<path d="M399.227 258.948C399.763 259.324 400.129 259.898 400.242 260.543C400.355 261.189 400.208 261.853 399.831 262.389C399.455 262.926 398.881 263.291 398.236 263.404C397.59 263.518 396.926 263.37 396.39 262.994C396.123 262.807 395.896 262.569 395.721 262.293C395.547 262.018 395.429 261.711 395.374 261.39C395.319 261.069 395.328 260.74 395.401 260.422C395.473 260.105 395.608 259.805 395.798 259.54C396.175 259.008 396.747 258.647 397.39 258.536C398.033 258.425 398.693 258.573 399.227 258.948Z" fill="#263238"/>
<path d="M400.756 259.07C400.485 259.342 398.906 257.96 396.562 257.812C394.219 257.664 392.467 258.75 392.22 258.429C391.973 258.108 392.393 257.788 393.182 257.269C394.212 256.6 395.437 256.296 396.661 256.406C397.89 256.482 399.06 256.958 399.992 257.763C400.682 258.528 400.904 258.947 400.756 259.07Z" fill="#263238"/>
<path d="M408.947 278.906C410.184 278.519 411.475 278.335 412.771 278.363C413.388 278.363 413.881 278.215 413.955 277.894C414.015 277.276 413.904 276.653 413.635 276.093C413.117 274.514 412.623 272.911 412.08 271.159C410.576 267.043 409.485 262.786 408.824 258.454C410.72 262.409 412.224 266.54 413.314 270.789C413.807 272.467 414.276 274.095 414.769 275.723C415.088 276.506 415.149 277.371 414.942 278.19C414.839 278.417 414.686 278.618 414.493 278.776C414.301 278.934 414.075 279.046 413.832 279.103C413.488 279.149 413.14 279.149 412.796 279.103C411.51 279.24 410.212 279.173 408.947 278.906Z" fill="#263238"/>
<path d="M401.2 281.028C398.857 279.424 407.689 285 412.45 285.049C411.583 286.226 410.342 287.074 408.931 287.455C407.52 287.836 406.021 287.727 404.679 287.146C399.72 284.975 401.2 281.028 401.2 281.028Z" fill="white"/>
<path d="M408.552 307.648C400.718 307.303 393.162 304.642 386.842 300C386.842 300 391.307 312.533 408.33 312.039L408.552 307.648Z" fill="#EB996E"/>
<path d="M365.674 256.061L367.722 268.224L375.271 268.076L374.778 242.738C374.778 242.738 404.728 245.057 408.158 233.067C408.158 233.067 416.965 246.316 427.895 246.266C427.895 246.266 437.467 245.28 428.363 231.933C414.301 211.406 364.219 227.911 364.219 227.911C362.956 231.661 362.346 235.6 362.418 239.556C362.22 252.681 365.674 256.061 365.674 256.061Z" fill="#263238"/>
<path d="M361.554 243.725L428.166 230.502C428.166 230.502 423.429 203.808 387.434 211.579C352.5 219.202 361.554 243.725 361.554 243.725Z" fill="#FF725E"/>
<path d="M361.554 243.726C362.492 243.553 443.117 245.452 448.865 234.301C451.603 228.972 427.746 228.824 427.746 228.824L428.289 230.502L361.554 243.726Z" fill="#FF725E"/>
<path opacity="0.2" d="M361.554 243.726C362.492 243.553 443.117 245.452 448.865 234.301C451.603 228.972 427.746 228.824 427.746 228.824L428.289 230.502L361.554 243.726Z" fill="black"/>
<path d="M368.561 253.914C368.191 253.766 355.978 252.187 357.138 266.595C358.297 281.003 372.459 275.082 372.459 274.663C372.459 274.243 368.561 253.914 368.561 253.914Z" fill="#FFBE9D"/>
<path d="M367.648 269.95C367.648 269.95 367.401 270.148 366.982 270.395C366.404 270.698 365.73 270.76 365.107 270.567C364.131 270.054 363.31 269.289 362.729 268.352C362.148 267.415 361.828 266.34 361.801 265.238C361.657 264.005 361.8 262.755 362.22 261.587C362.312 261.122 362.518 260.687 362.819 260.32C363.12 259.954 363.508 259.669 363.947 259.49C364.228 259.392 364.535 259.396 364.814 259.499C365.093 259.603 365.327 259.8 365.477 260.057C365.699 260.452 365.649 260.748 365.723 260.773C365.798 260.798 366.02 260.501 365.723 259.909C365.612 259.558 365.386 259.254 365.082 259.046C364.662 258.786 364.159 258.698 363.676 258.799C363.089 258.968 362.555 259.282 362.124 259.714C361.692 260.146 361.377 260.68 361.209 261.266C360.707 262.57 360.521 263.973 360.666 265.362C360.699 266.653 361.112 267.906 361.853 268.964C362.595 270.021 363.632 270.837 364.835 271.307C365.232 271.385 365.641 271.374 366.033 271.276C366.425 271.178 366.791 270.995 367.105 270.74C367.648 270.321 367.697 269.975 367.648 269.95Z" fill="#EB996E"/>
<path d="M407.859 223.26L399.694 223.417L399.851 231.581L408.015 231.424L407.859 223.26Z" fill="#263238"/>
<path d="M407.777 218.83L403.682 218.91L403.761 223.004L407.856 222.925L407.777 218.83Z" fill="#263238"/>
<path d="M529.835 324.227C529.835 324.227 517.228 404.457 508.347 404.877C498.207 405.37 467.023 361.135 467.023 361.135C447.064 330.345 420.74 325.362 411.143 324.597V320.798L363.972 316.924C363.972 316.924 363.972 320.995 363.972 324.548H343.075C343.075 324.548 305.674 322.821 300.049 373.076L326.965 394.342L337.993 435.37C341.349 447.903 336.217 463.89 330.592 491.965L327.212 491.176L325.781 519.474C325.584 520.806 325.386 522.163 325.214 523.52H325.584L314.186 749.482L255.913 968.338L321.513 970.805L382.006 757.278C382.006 757.278 387.261 586.554 392.59 586.455C401.546 586.283 407.27 966.241 410.699 965.378C414.128 964.514 481.505 965.205 481.505 965.205C481.505 965.205 459.202 522.508 459.424 522.508L453.651 438.627L451.455 414.4C464.26 432.409 488.462 460.534 514.317 460.041C556.431 459.227 562.352 328.668 562.352 328.668L529.835 324.227Z" fill="#455A64"/>
<path d="M390.172 584.753C391.648 582.383 392.95 579.91 394.071 577.352C396.307 571.077 397.385 564.448 397.253 557.788C397.253 550.091 397.253 543.158 397.253 537.632C397.124 534.848 397.232 532.059 397.574 529.293C397.971 532.055 398.169 534.842 398.166 537.632C398.314 542.788 398.635 549.967 398.561 557.813C398.526 561.542 398.196 565.262 397.574 568.939C397.053 571.963 396.167 574.912 394.934 577.722C394.081 579.602 393.022 581.381 391.776 583.026C390.789 584.186 390.345 584.827 390.172 584.753Z" fill="#263238"/>
<path d="M351.464 548.906C351.704 549.655 351.821 550.439 351.809 551.225C351.932 552.73 352.08 554.877 352.154 557.59C352.534 564.694 351.117 571.779 348.034 578.191C346.213 581.728 343.511 584.736 340.189 586.924C337.447 588.656 334.301 589.642 331.061 589.786C328.885 589.897 326.712 589.526 324.696 588.701C323.941 588.438 323.251 588.018 322.673 587.467C325.31 588.562 328.16 589.051 331.011 588.898C334.058 588.615 336.989 587.59 339.548 585.913C342.668 583.789 345.211 580.924 346.949 577.574C349.916 571.336 351.402 564.497 351.291 557.59C351.199 554.695 351.257 551.796 351.464 548.906Z" fill="#263238"/>
<path d="M464.087 588.207C464.087 588.207 463.692 588.923 462.483 589.737C460.714 590.822 458.661 591.354 456.587 591.266C453.495 591.138 450.524 590.032 448.1 588.109C445.187 585.836 442.684 583.083 440.699 579.967C436.971 574.409 434.628 568.039 433.865 561.39C433.648 559.383 433.59 557.362 433.692 555.345C433.677 554.607 433.794 553.872 434.038 553.174C434.26 553.174 434.038 556.308 434.778 561.266C435.768 567.698 438.151 573.836 441.76 579.252C443.671 582.253 446.053 584.928 448.816 587.171C451.028 589.003 453.749 590.114 456.612 590.354C458.548 590.507 460.49 590.141 462.237 589.293C463.446 588.676 464.013 588.109 464.087 588.207Z" fill="#263238"/>
<path d="M324.523 956.274C324.523 956.645 309.967 956.398 292.056 955.756C274.145 955.115 259.589 954.251 259.589 953.931C259.589 953.61 274.145 953.807 292.08 954.473C310.016 955.14 324.548 955.929 324.523 956.274Z" fill="#263238"/>
<path d="M479.161 946.406C478.268 946.65 477.348 946.775 476.422 946.776L469.021 947.343C462.705 947.738 453.996 948.207 444.35 948.651C434.704 949.095 425.97 949.416 419.679 949.613L412.278 949.737C411.355 949.811 410.427 949.769 409.515 949.613C410.41 949.384 411.329 949.26 412.253 949.243L419.654 948.7C425.97 948.281 434.679 947.812 444.325 947.368C453.972 946.924 462.705 946.603 468.996 946.431L476.398 946.283C477.321 946.226 478.247 946.267 479.161 946.406Z" fill="#263238"/>
<path d="M358.125 589.983C358.163 590.303 358.163 590.626 358.125 590.946V593.783C358.125 596.25 358.001 600 357.927 604.687C357.705 614.136 357.286 627.829 356.595 644.753C355.904 661.677 354.967 681.76 353.635 704.136C352.969 715.312 352.228 727.031 351.168 739.169C350.649 745.238 350.181 751.505 349.12 757.672C348.059 763.84 346.653 770.131 345.37 776.472C334.12 826.924 321.488 871.973 311.62 904.366C306.686 920.575 302.245 933.528 299.136 942.483L295.362 952.697C294.918 953.807 294.597 954.695 294.326 955.337C294.244 955.648 294.119 955.947 293.955 956.225C293.999 955.911 294.082 955.605 294.202 955.312C294.424 954.646 294.72 953.758 295.115 952.623L298.668 942.31C301.628 933.33 306.069 920.329 310.756 904.12C320.378 871.677 332.96 826.579 344.112 776.176C345.469 769.885 346.825 763.643 347.862 757.475C348.898 751.307 349.391 745.14 349.909 739.07C350.921 726.932 351.686 715.214 352.376 704.062C353.758 681.858 354.844 661.603 355.608 644.704C356.373 627.804 356.941 614.186 357.36 604.663C357.533 599.975 357.681 596.324 357.779 593.758C357.779 592.574 357.829 591.636 357.927 590.946C357.977 590.622 358.042 590.301 358.125 589.983Z" fill="#263238"/>
<path d="M448.668 948.059C448.589 947.769 448.548 947.471 448.544 947.171C448.544 946.529 448.544 945.666 448.347 944.556C448.174 942.089 447.952 938.807 447.656 934.49C447.138 925.682 446.398 913.051 445.46 897.483C443.709 866.225 441.513 823.001 439.49 775.288C437.467 727.574 435.987 684.276 435.024 652.993C434.605 637.401 434.235 624.745 434.013 615.987C434.013 611.669 433.84 608.289 433.791 605.921V603.281C433.764 602.986 433.764 602.689 433.791 602.393C433.818 602.689 433.818 602.986 433.791 603.281C433.791 603.947 433.791 604.811 433.939 605.896C433.939 608.363 434.186 611.669 434.383 615.987C434.728 624.794 435.197 637.451 435.814 652.993C437.047 684.326 438.774 727.525 440.748 775.238C442.722 822.952 444.819 866.176 446.349 897.459C447.113 913.051 447.705 925.682 448.149 934.465C448.322 938.783 448.47 942.163 448.569 944.556C448.569 945.641 448.569 946.505 448.569 947.171C448.629 947.463 448.662 947.76 448.668 948.059Z" fill="#263238"/>
<path d="M394.49 319.416C394.676 321.624 394.676 323.844 394.49 326.053C394.423 331.591 393.878 337.113 392.862 342.557L392.714 343.372L391.973 342.977C390.395 342.163 388.766 341.299 387.163 340.337C380.304 336.34 374.482 332.171 370.164 329.309C365.847 326.447 363.207 324.696 363.281 324.548C365.881 325.618 368.361 326.958 370.682 328.544C375.123 331.233 381.044 335.28 387.829 339.227C389.432 340.164 391.036 341.053 392.566 341.867L391.653 342.286C392.691 336.91 393.367 331.47 393.676 326.003C393.77 323.789 394.042 321.586 394.49 319.416Z" fill="#263238"/>
<path d="M411.266 324.918C410.961 326.993 410.516 329.045 409.934 331.061C409.465 332.936 408.972 335.206 408.158 337.697C407.74 339.004 407.237 340.281 406.653 341.521C406.464 341.952 406.156 342.321 405.765 342.582C405.497 342.763 405.174 342.843 404.852 342.807C404.531 342.771 404.234 342.621 404.013 342.385C403.532 341.723 403.158 340.991 402.903 340.214C400.608 334.737 398.585 329.778 397.204 326.151C396.356 324.242 395.711 322.249 395.279 320.206C396.421 321.979 397.38 323.864 398.141 325.831C399.745 329.383 401.891 334.293 404.186 339.77C404.406 340.384 404.678 340.978 405 341.546C405.123 341.546 405 341.546 405.197 341.546C405.378 341.4 405.521 341.214 405.617 341.003C406.195 339.808 406.706 338.58 407.146 337.327C407.985 334.86 408.577 332.714 409.145 330.839C409.587 328.78 410.3 326.789 411.266 324.918Z" fill="#263238"/>
<path d="M402.409 493.495C402.277 492.912 402.21 492.316 402.212 491.718C402.212 490.436 402.015 488.758 401.867 486.661C401.645 482.121 401.299 475.781 400.904 468.01C400.189 452.146 399.227 430.46 398.141 406.505C397.056 382.549 396.39 360.863 395.674 344.975C395.427 337.204 395.255 330.888 395.107 326.324C395.107 324.227 395.107 322.549 395.107 321.39C395.069 320.798 395.069 320.205 395.107 319.613C395.244 320.187 395.318 320.775 395.329 321.365C395.329 322.648 395.526 324.325 395.649 326.423C395.896 330.987 396.217 337.302 396.636 345.074C397.352 360.937 398.314 382.623 399.375 406.579C400.436 430.534 401.151 452.245 401.842 468.108C402.089 475.88 402.286 482.22 402.434 486.76C402.434 488.857 402.434 490.559 402.434 491.842C402.486 492.392 402.478 492.946 402.409 493.495Z" fill="#263238"/>
<path d="M432.476 370.52L409.808 370.959L409.898 375.646L432.567 375.207L432.476 370.52Z" fill="white"/>
<path d="M454.021 447.113C453.651 447.113 452.22 429.991 450.814 408.799C449.408 387.607 448.544 370.46 448.89 370.436C449.235 370.411 450.666 387.557 452.097 408.725C453.528 429.893 454.49 447.088 454.021 447.113Z" fill="#263238"/>
<path d="M561.612 345.098C555.866 344.438 550.176 343.358 544.589 341.867C538.912 340.774 533.322 339.273 527.862 337.376C533.607 338.037 539.297 339.117 544.885 340.608C550.564 341.687 556.155 343.188 561.612 345.098Z" fill="#263238"/>
<path d="M534.745 329.926C535.204 329.916 535.657 330.043 536.044 330.291C536.431 330.539 536.736 330.896 536.92 331.317C537.103 331.738 537.158 332.205 537.076 332.657C536.994 333.11 536.78 333.527 536.46 333.858C536.14 334.188 535.729 334.416 535.28 334.512C534.83 334.608 534.362 334.569 533.935 334.399C533.508 334.228 533.142 333.935 532.882 333.556C532.622 333.177 532.48 332.729 532.475 332.27C532.468 331.966 532.522 331.665 532.633 331.382C532.744 331.1 532.91 330.842 533.121 330.624C533.332 330.406 533.584 330.232 533.863 330.112C534.142 329.992 534.441 329.929 534.745 329.926Z" fill="#263238"/>
<path d="M432.24 360.061L424.076 360.218L424.232 368.382L432.397 368.226L432.24 360.061Z" fill="#FF725E"/>
<path d="M432.132 355.602L428.038 355.682L428.117 359.776L432.212 359.697L432.132 355.602Z" fill="#FF725E"/>
<path d="M554.482 401.916L551.126 533.659L344.408 532.598L345.074 399.104L554.482 401.916Z" fill="#FF725E"/>
<path d="M431.694 532.894C431.349 532.894 431.694 503.462 432.73 467.195C433.766 430.929 434.753 401.62 435.025 401.62C435.296 401.62 435.025 431.028 434.013 467.319C433.002 503.61 432.039 532.894 431.694 532.894Z" fill="#263238"/>
<path d="M344.408 532.598C344.625 532.108 344.898 531.644 345.222 531.217L347.689 527.343L357.335 513.305L389.556 467.22C402.163 449.235 413.511 432.927 421.628 421.036C425.699 415.09 429.029 410.254 431.151 406.899L433.618 403.026C433.942 402.515 434.322 402.044 434.753 401.62C434.577 402.13 434.328 402.612 434.013 403.051L431.694 407.072C429.597 410.501 426.464 415.435 422.516 421.43C414.597 433.47 403.347 449.876 390.765 467.861C378.182 485.847 366.612 502.031 358.223 513.725L348.355 527.541C347.22 529.07 346.283 530.304 345.592 531.266C345.26 531.762 344.861 532.21 344.408 532.598Z" fill="#263238"/>
<path d="M429.646 533.93C429.35 534.128 410.304 504.449 387.138 467.639C363.972 430.83 345.395 400.83 345.715 400.657C346.036 400.485 365.033 430.139 388.223 466.949C411.414 503.758 429.942 533.758 429.646 533.93Z" fill="#263238"/>
<path d="M455.771 514.495L488.953 515.491L489.158 508.682L455.975 507.686L455.771 514.495Z" fill="#263238"/>
<path d="M454.934 505.83C460.319 505.183 465.749 504.977 471.168 505.214C476.588 504.991 482.017 505.214 487.401 505.88C482.013 506.498 476.587 506.705 471.168 506.496C465.747 506.689 460.32 506.466 454.934 505.83Z" fill="#263238"/>
<path d="M512.664 400.855L511.381 451.727L504.276 445.978L494.926 451.307L496.233 400.46L512.664 400.855Z" fill="#263238"/>
<path d="M341.003 387.434C341.003 387.434 330.987 457.352 335.724 461.447C361.974 483.528 398.462 495.099 411.513 498.75C413.413 498.281 415.658 497.689 418.199 496.875C420.417 496.171 422.496 495.085 424.342 493.668C426.716 492.012 428.85 490.036 430.682 487.796C430.967 487.333 431.385 486.967 431.881 486.747C432.377 486.526 432.929 486.461 433.463 486.56C433.997 486.658 434.488 486.917 434.873 487.3C435.257 487.684 435.517 488.175 435.617 488.709C435.74 491.176 431.867 497.344 424.589 501.858C424.589 501.858 441.316 528.774 446.645 531.192C451.973 533.61 467.245 540.493 464.654 541.825C462.064 543.158 443.511 537.73 443.511 537.73L405.863 527.664C405.863 527.664 281.299 508.15 289.613 451.011C294.696 416.003 300.247 384.4 302.245 376.456L341.003 387.434Z" fill="#FFBE9D"/>
<path d="M300.099 373.1L288.923 449.383C286.455 472.894 302.072 491.521 323.24 502.031C355.46 517.993 403.297 529.366 402.903 529.292C402.508 529.218 406.135 495.37 406.135 495.37C406.135 495.37 339.079 466.332 337.056 453.848C335.033 441.365 345.567 389.186 345.567 389.186L300.099 373.1Z" fill="#455A64"/>
<path d="M402.903 529.293C402.87 529.097 402.87 528.897 402.903 528.701C402.903 528.232 402.903 527.64 402.903 526.924C403.026 525.271 403.199 523.002 403.421 520.14C403.939 514.145 404.679 505.658 405.592 495.222L405.863 495.666L372.113 479.334L362.245 474.572C358.964 472.821 355.682 470.921 352.376 468.824C349.059 466.698 345.878 464.367 342.853 461.842C341.324 460.559 339.819 459.227 338.363 457.796C337.568 457.1 336.907 456.264 336.414 455.329C336.168 454.844 335.986 454.33 335.872 453.799C335.719 453.282 335.603 452.754 335.526 452.22C334.441 443.906 336.686 436.011 337.821 428.511C338.955 421.011 340.288 413.709 341.595 406.752C344.062 392.911 346.184 380.452 348.034 369.942C349.027 365.283 349.597 360.543 349.737 355.781C349.771 352.195 349.031 348.644 347.566 345.37C346.617 343.313 345.276 341.461 343.618 339.918C342.459 338.857 341.743 338.462 341.768 338.388C342.499 338.739 343.18 339.187 343.791 339.72C345.563 341.213 347.001 343.062 348.01 345.148C349.612 348.456 350.455 352.081 350.477 355.757C350.419 360.572 349.907 365.371 348.947 370.09C347.196 380.625 345.099 393.109 342.779 406.974L339.079 428.758C338.758 430.633 338.437 432.558 338.092 434.482C337.747 436.406 337.401 438.281 337.13 440.23C336.489 444.129 336.389 448.097 336.834 452.023C336.894 452.507 336.993 452.986 337.13 453.454C337.234 453.915 337.391 454.362 337.599 454.786C338.007 455.629 338.586 456.377 339.301 456.982C340.707 458.388 342.187 459.696 343.692 460.979C346.678 463.456 349.809 465.755 353.067 467.862C356.275 469.959 359.531 471.858 362.763 473.585L372.483 478.372L406.061 494.951L406.357 495.099V495.37C405.271 505.806 404.383 514.293 403.89 520.263C403.569 523.125 403.322 525.37 403.149 527.023C403.149 527.738 402.977 528.306 402.903 528.775C402.829 529.243 402.927 529.317 402.903 529.293Z" fill="#263238"/>
<path d="M396.686 490.584C396.777 492.329 396.644 494.078 396.291 495.79C395.872 498.997 395.205 503.388 394.317 508.125C393.429 512.862 392.418 517.303 391.579 520.461C391.235 522.168 390.679 523.825 389.926 525.395C389.58 525.395 391.258 517.549 393.059 507.928C393.917 502.079 395.128 496.287 396.686 490.584Z" fill="#263238"/>
<path d="M402.903 529.293C402.51 529.291 402.119 529.233 401.743 529.12L398.413 528.306L386.275 525.148C376.085 522.385 361.875 518.783 346.801 513.182C339.639 510.572 332.666 507.473 325.929 503.906C320.445 500.955 315.199 497.581 310.238 493.816C306.912 491.253 303.771 488.458 300.839 485.452C299.827 484.391 299.038 483.528 298.544 482.985C298.26 482.701 298.019 482.377 297.829 482.023C297.829 482.023 299.038 483.133 301.209 485.156C304.241 488.007 307.446 490.668 310.806 493.125C315.774 496.814 321.02 500.114 326.497 502.993C333.204 506.489 340.136 509.538 347.245 512.122C362.344 517.673 376.505 521.423 386.719 524.457L398.733 528.034L401.99 529.046C402.3 529.106 402.605 529.188 402.903 529.293Z" fill="#263238"/>
<path d="M403.742 498.75C403.748 499.035 403.698 499.319 403.595 499.585C403.492 499.851 403.338 500.094 403.141 500.3C402.944 500.506 402.708 500.671 402.447 500.787C402.186 500.902 401.905 500.964 401.62 500.971C401.05 500.971 400.503 500.75 400.093 500.354C399.683 499.958 399.443 499.418 399.424 498.849C399.418 498.564 399.467 498.28 399.57 498.014C399.673 497.748 399.828 497.505 400.025 497.299C400.222 497.093 400.458 496.927 400.719 496.812C400.98 496.697 401.261 496.635 401.546 496.628C402.116 496.628 402.663 496.849 403.073 497.245C403.483 497.641 403.722 498.181 403.742 498.75Z" fill="#263238"/>
<path d="M985.114 140.378H712.845V981.389H985.114V140.378Z" fill="#E0E0E0"/>
<path d="M891.488 146.817V943.791L1021.75 981.414L1022.17 146.817H891.488Z" fill="#455A64"/>
<path d="M907.549 533.191C907.796 539.432 905.403 544.589 902.195 544.737C898.988 544.885 896.176 539.802 895.929 533.659C895.682 527.516 898.075 522.261 901.283 522.138C904.49 522.015 907.302 526.949 907.549 533.191Z" fill="white"/>
<path d="M901.529 528.552L927.187 531.981C927.853 532.069 928.466 532.389 928.918 532.886C929.37 533.383 929.631 534.024 929.654 534.695C929.672 535.119 929.594 535.542 929.427 535.932C929.259 536.322 929.006 536.67 928.687 536.949C928.367 537.228 927.989 537.433 927.58 537.546C927.171 537.66 926.742 537.681 926.324 537.606L901.653 533.437L901.529 528.552Z" fill="white"/>
<path d="M681.044 110.649V138.158V146.817V981.414H723.799V146.817H974.703V981.414H1021.75V146.817V138.158V110.649H681.044Z" fill="#263238"/>
<path d="M723.799 146.817H702.434V981.389H723.799V146.817Z" fill="#263238"/>
<path opacity="0.5" d="M723.799 146.817H702.434V981.389H723.799V146.817Z" fill="black"/>
<path d="M1022.17 110.649H1000.81V981.414H1022.17V110.649Z" fill="#263238"/>
<path opacity="0.5" d="M1022.17 110.649H1000.81V981.414H1022.17V110.649Z" fill="black"/>
<path d="M880.707 59.8271H810.493V75.4932H880.707V59.8271Z" fill="#455A64"/>
<path d="M853.692 277.771C854.096 285.364 856.927 292.625 861.768 298.488C866.61 304.351 873.205 308.504 880.583 310.337C888.207 312.188 896.99 311.324 903.034 316.431C913.396 325.239 907.327 343.569 914.333 355.239C918.626 362.492 927.162 366.044 931.998 372.928C940.041 384.35 934.638 401.645 923.684 410.156C912.73 418.668 898.1 420.296 884.383 420.025C854.161 419.235 823.199 409.638 801.365 388.224C791.102 378.158 757.82 339.893 772.944 284.753" fill="#263238"/>
<path d="M744.547 358.889C744.547 358.889 691.677 404.852 690.271 399.251C682.87 368.832 684.942 329.975 686.151 315.098C686.965 313.84 687.927 312.434 689.062 310.88C690.352 309.079 691.947 307.518 693.774 306.266C695.983 304.6 698.406 303.239 700.978 302.22C701.516 302.156 702.018 301.916 702.407 301.538C702.795 301.16 703.048 300.665 703.126 300.128C703.205 299.592 703.105 299.045 702.842 298.571C702.578 298.098 702.166 297.724 701.669 297.508C699.547 296.718 692.788 298.47 686.521 303.7C680.255 308.931 682.82 296.496 683.659 291.957C684.498 287.418 686.472 273.207 685.263 271.875C683.511 269.901 681.044 271.48 680.329 276.044C679.613 280.608 676.381 294.153 673.988 293.659C671.595 293.166 676.283 270.024 676.283 270.024C676.283 270.024 678.059 265.214 675.32 264.547C670.386 263.339 667.278 288.256 667.031 290.625C666.858 292.278 664.243 291.834 664.564 290.057C664.885 288.281 669.72 267.089 664.712 265.806C660.863 264.819 661.949 286.258 658.495 290.156C655.041 294.054 659.334 273.774 655.608 272.886C654.227 272.59 653.141 272.566 652.376 284.531C652.193 294.164 652.539 303.801 653.413 313.396C650.131 346.209 643.692 446.743 689.112 443.289C742.697 439.194 755.033 396.957 755.033 396.957L744.547 358.889Z" fill="#B78876"/>
<path d="M786.784 343.939C787.549 339.695 786.192 321.883 786.192 321.883C786.192 321.883 770.378 319.885 769.712 303.774C769.046 287.664 770.625 250.51 770.625 250.51L799.712 236.546L830.995 261.76L825.567 343.668L786.784 343.939Z" fill="#B78876"/>
<path d="M773.314 277.648C773.314 278.047 773.432 278.437 773.653 278.769C773.874 279.101 774.189 279.36 774.557 279.514C774.925 279.668 775.331 279.709 775.722 279.633C776.114 279.557 776.475 279.367 776.759 279.087C777.042 278.806 777.237 278.448 777.318 278.057C777.399 277.666 777.362 277.26 777.213 276.89C777.063 276.52 776.808 276.203 776.479 275.977C776.149 275.752 775.76 275.629 775.361 275.625C774.823 275.624 774.305 275.837 773.922 276.216C773.539 276.594 773.32 277.109 773.314 277.648Z" fill="#263238"/>
<path d="M771.414 275.354C771.661 275.625 773.166 274.367 775.337 274.293C777.508 274.219 779.112 275.304 779.334 275.008C779.556 274.712 779.186 274.367 778.47 273.873C777.536 273.21 776.407 272.88 775.263 272.936C774.124 272.994 773.034 273.418 772.154 274.145C771.488 274.712 771.291 275.23 771.414 275.354Z" fill="#263238"/>
<path d="M796.579 278.043C796.579 278.442 796.697 278.832 796.918 279.164C797.139 279.496 797.454 279.755 797.822 279.909C798.19 280.063 798.596 280.104 798.987 280.028C799.379 279.952 799.74 279.762 800.023 279.482C800.307 279.201 800.502 278.843 800.583 278.452C800.664 278.061 800.627 277.655 800.478 277.285C800.328 276.915 800.073 276.598 799.743 276.372C799.414 276.147 799.025 276.024 798.626 276.02C798.087 276.019 797.57 276.232 797.187 276.611C796.804 276.989 796.585 277.504 796.579 278.043Z" fill="#263238"/>
<path d="M795.37 275.798C795.641 276.069 797.146 274.811 799.317 274.712C801.488 274.613 803.067 275.748 803.314 275.452C803.56 275.156 803.166 274.811 802.45 274.293C801.509 273.646 800.383 273.325 799.243 273.378C798.102 273.432 797.011 273.857 796.134 274.589C795.468 275.131 795.246 275.65 795.37 275.798Z" fill="#263238"/>
<path d="M787.253 294.399C786.111 294.042 784.922 293.859 783.725 293.857C783.182 293.857 782.639 293.709 782.541 293.314C782.5 292.702 782.619 292.09 782.886 291.538L784.44 286.973C785.904 283.086 787.075 279.095 787.944 275.033C786.204 278.793 784.745 282.677 783.577 286.653C783.059 288.281 782.541 289.786 782.072 291.266C781.737 291.991 781.65 292.806 781.825 293.585C781.898 293.789 782.019 293.971 782.178 294.117C782.337 294.264 782.529 294.369 782.738 294.424C783.049 294.468 783.365 294.468 783.676 294.424C784.864 294.573 786.067 294.564 787.253 294.399Z" fill="#263238"/>
<path d="M794.358 296.62C796.578 295.164 788.24 300.197 783.848 300.123C784.598 301.259 785.717 302.101 787.017 302.506C788.316 302.911 789.716 302.853 790.978 302.344C791.577 302.191 792.139 301.922 792.634 301.551C793.128 301.181 793.544 300.716 793.858 300.184C794.172 299.652 794.378 299.064 794.464 298.452C794.55 297.84 794.514 297.218 794.358 296.62Z" fill="white"/>
<path d="M786.192 321.883C793.684 321.68 800.955 319.296 807.113 315.024C807.113 315.024 802.179 326.793 786.463 325.83L786.192 321.883Z" fill="#A36957"/>
<path d="M853.692 278.018C853.544 276.883 853.371 275.156 853.199 273.355C852.952 270.888 852.68 268.224 852.36 266.793C844.366 233.067 815.699 226.307 810.024 226.209C803.906 226.085 793.297 222.459 777.434 238.791C772.922 243.123 769.791 248.692 768.435 254.797C767.078 260.903 767.557 267.274 769.81 273.108L772.475 270.641L795.542 264.967C793.815 258.577 796.628 250.732 798.207 247.081L798.355 246.932C802.524 271.135 828.355 274.071 828.355 274.071L825.888 338.215C851.324 333.084 853.347 291.834 853.297 277.87L853.692 278.018Z" fill="#263238"/>
<path d="M863.684 565.929C863.684 565.608 863.684 565.287 863.684 565.09C863.684 564.892 863.733 565.485 863.684 565.929Z" fill="#B78876"/>
<path d="M893.634 957.039C893.634 957.039 834.078 756.291 832.944 749.802C831.907 744.004 859.49 603.157 863.486 566.62L779.753 567.409C779.753 567.409 779.753 567.631 779.753 568.026L739.292 569.136L759.547 970.287L803.955 971.447L803.289 839.58C825.246 903.971 853.026 976.726 853.026 976.726L893.634 957.039Z" fill="#B78876"/>
<path d="M776.669 740.822C776.792 740.822 776.669 742.401 776.398 745.213C776.203 749.178 776.277 753.15 776.62 757.105C777.134 762.973 778.124 768.79 779.58 774.498C781.51 781.468 783.883 788.308 786.685 794.975C792.187 809.383 797.121 822.434 800.624 831.981L804.819 843.231C805.368 844.594 805.814 845.996 806.151 847.425C805.459 846.128 804.857 844.784 804.35 843.404L799.884 832.302C796.159 822.902 791.101 809.876 785.575 795.468C784.218 791.866 782.886 788.338 781.578 784.934C780.376 781.63 779.363 778.261 778.544 774.843C777.116 769.063 776.2 763.169 775.805 757.228C775.55 753.224 775.616 749.206 776.003 745.213C776.151 743.807 776.324 742.746 776.472 741.981C776.473 741.587 776.54 741.195 776.669 740.822Z" fill="#A36957"/>
<path d="M803.511 887.491C803.511 886.282 804.301 842.787 804.301 842.787C804.301 842.787 789.695 802.475 789.325 803.684C788.955 804.893 803.511 887.491 803.511 887.491Z" fill="#A36957"/>
<path d="M854.556 976.035L893.733 957.039L898.248 965.452L884.408 973.272C874.959 978.429 842.837 995.254 835.238 996.611C826.776 998.141 854.556 976.035 854.556 976.035Z" fill="#FF725E"/>
<path d="M833.486 995.476C833.289 995.18 847.598 988.075 865.435 979.662C883.273 971.249 897.853 964.662 898.026 964.86C898.199 965.057 883.914 972.261 866.077 980.649C848.24 989.037 833.659 995.772 833.486 995.476Z" fill="#263238"/>
<path d="M888.059 969.966C887.861 969.966 887.787 969.226 887.861 968.042C887.961 966.466 888.39 964.928 889.12 963.527C889.936 961.994 891.25 960.785 892.845 960.098C894.152 959.58 895.065 959.703 895.065 959.826C895.065 959.95 894.325 960.221 893.338 960.838C892.095 961.646 891.07 962.747 890.353 964.045C889.712 965.375 889.2 966.763 888.824 968.19C888.503 969.3 888.231 969.991 888.059 969.966Z" fill="#263238"/>
<path d="M852.434 977.836C852.434 978.182 853.643 978.651 855.197 979.169C856.751 979.687 858.059 980.032 858.281 979.736C858.503 979.44 857.393 978.503 855.69 977.935C853.988 977.368 852.483 977.466 852.434 977.836Z" fill="#263238"/>
<path d="M849.745 979.934C849.745 980.304 850.781 980.97 852.212 981.439C853.643 981.907 855.074 982.055 855.246 981.71C855.419 981.365 854.259 980.723 852.779 980.23C851.299 979.736 849.843 979.588 849.745 979.934Z" fill="#263238"/>
<path d="M847.524 981.883C847.376 982.203 848.215 982.82 849.3 983.387C850.386 983.955 851.447 984.276 851.767 984.004C852.088 983.733 851.299 982.894 850.114 982.277C848.93 981.66 847.697 981.537 847.524 981.883Z" fill="#263238"/>
<path d="M852.606 978.157C852.821 976.77 852.676 975.352 852.187 974.037C851.798 972.518 851.11 971.093 850.164 969.843C849.557 969.064 848.842 968.375 848.042 967.795C847.578 967.46 847.072 967.186 846.537 966.981C845.848 966.71 845.081 966.71 844.391 966.981C844.102 967.13 843.849 967.341 843.65 967.599C843.451 967.857 843.311 968.155 843.241 968.473C843.17 968.791 843.17 969.12 843.241 969.438C843.312 969.756 843.452 970.054 843.651 970.312C844.19 971.106 844.801 971.849 845.477 972.532C846.6 973.673 847.822 974.713 849.128 975.641C850.281 976.613 851.602 977.365 853.026 977.861C853.174 977.713 851.817 976.701 849.819 974.974C848.655 973.971 847.551 972.9 846.513 971.767C845.929 971.139 845.401 970.463 844.934 969.744C844.49 969.103 844.613 968.313 845.057 968.141C845.501 967.968 846.414 968.141 847.154 968.757C847.865 969.241 848.505 969.822 849.054 970.484C849.977 971.612 850.703 972.889 851.2 974.259C851.547 975.599 852.018 976.904 852.606 978.157Z" fill="#263238"/>
<path d="M852.606 977.392C851.507 976.302 850.186 975.461 848.733 974.925C847.154 974.229 845.498 973.724 843.799 973.42C842.781 973.239 841.749 973.148 840.715 973.149C840.124 973.154 839.536 973.229 838.963 973.371C838.603 973.451 838.266 973.612 837.976 973.84C837.802 973.976 837.664 974.153 837.573 974.355C837.483 974.557 837.444 974.778 837.458 974.999C837.638 975.597 837.955 976.144 838.383 976.598C838.812 977.052 839.34 977.4 839.925 977.614C840.877 978.079 841.891 978.403 842.935 978.577C844.643 978.817 846.373 978.866 848.092 978.725C851.077 978.552 852.705 977.516 852.557 977.392C851.061 977.612 849.553 977.752 848.042 977.812C846.388 977.823 844.736 977.682 843.108 977.392C842.25 977.219 841.42 976.928 840.641 976.529C839.901 976.134 839.062 975.394 839.013 974.925C838.963 974.456 839.925 974.382 840.863 974.432C841.803 974.393 842.745 974.443 843.675 974.58C845.27 974.833 846.839 975.23 848.363 975.764C849.734 976.415 851.152 976.959 852.606 977.392Z" fill="#263238"/>
<path d="M855.32 975.616C855.542 975.986 864.646 972.508 875.23 967.302C885.814 962.096 893.98 957.434 893.708 957.039C893.437 956.644 884.802 960.814 874.243 965.994C863.684 971.175 855.074 975.246 855.32 975.616Z" fill="#263238"/>
<path d="M764.629 969.843L803.93 970.139L803.264 981.512H800.797C789.399 981.512 742.796 980.674 735.32 978.28C726.883 975.665 764.629 969.843 764.629 969.843Z" fill="#FF725E"/>
<path d="M734.358 976.455C734.358 976.134 749.827 976.726 768.898 977.787C787.968 978.848 803.314 980.008 803.289 980.254C803.264 980.501 787.845 980.008 768.75 978.947C749.654 977.886 734.334 976.85 734.358 976.455Z" fill="#263238"/>
<path d="M790.805 979.564C790.657 979.44 791.027 978.799 791.817 977.837C792.888 976.523 794.193 975.418 795.666 974.58C797.298 973.676 799.16 973.273 801.019 973.42C802.45 973.593 803.19 974.111 803.116 974.235C803.042 974.358 802.228 974.235 800.97 974.235C799.376 974.334 797.825 974.789 796.43 975.567C795.059 976.367 793.769 977.301 792.582 978.355C791.62 979.193 790.953 979.662 790.805 979.564Z" fill="#263238"/>
<path d="M761.669 970.386C761.398 970.657 762.237 971.669 763.297 972.853C764.358 974.037 765.271 974.95 765.641 974.777C766.011 974.604 765.641 973.322 764.457 972.063C763.273 970.805 761.94 970.114 761.669 970.386Z" fill="#263238"/>
<path d="M757.944 970.929C757.648 971.175 758.24 972.285 759.276 973.396C760.312 974.506 761.422 975.246 761.743 975.049C762.064 974.851 761.496 973.741 760.411 972.581C759.325 971.422 758.338 970.682 757.944 970.929Z" fill="#263238"/>
<path d="M754.934 971.521C754.589 971.718 754.934 972.631 755.575 973.618C756.217 974.605 756.883 975.369 757.278 975.246C757.672 975.123 757.549 974.086 756.883 973.026C756.217 971.965 755.255 971.323 754.934 971.521Z" fill="#263238"/>
<path d="M761.644 970.756C762.628 969.712 763.354 968.454 763.766 967.08C764.338 965.646 764.599 964.107 764.531 962.565C764.489 961.623 764.28 960.696 763.914 959.827C763.712 959.329 763.438 958.863 763.1 958.445C762.615 957.887 761.936 957.534 761.2 957.458C760.858 957.427 760.513 957.468 760.188 957.578C759.862 957.688 759.563 957.865 759.31 958.097C759.057 958.33 758.855 958.612 758.718 958.927C758.58 959.242 758.51 959.582 758.511 959.925C758.507 960.837 758.598 961.746 758.782 962.639C759.061 964.126 759.491 965.581 760.065 966.981C760.483 968.355 761.199 969.618 762.162 970.682C761.963 969.327 761.598 968.001 761.077 966.735C760.662 965.336 760.348 963.91 760.139 962.466C760.016 961.65 759.966 960.825 759.991 959.999C759.991 959.259 760.559 958.667 761.077 958.717C761.595 958.766 762.212 959.407 762.532 960.221C762.879 961.002 763.087 961.837 763.149 962.689C763.268 964.099 763.134 965.519 762.755 966.883C762.25 968.131 761.878 969.43 761.644 970.756Z" fill="#263238"/>
<path d="M762.113 970.114C761.78 968.694 761.112 967.374 760.164 966.266C759.21 964.937 758.081 963.742 756.809 962.713C756.043 962.075 755.217 961.513 754.342 961.035C753.819 960.754 753.264 960.539 752.689 960.394C752.306 960.318 751.912 960.318 751.529 960.394C751.294 960.425 751.068 960.508 750.868 960.636C750.667 960.763 750.497 960.934 750.37 961.134C750.156 961.68 750.089 962.273 750.175 962.853C750.262 963.433 750.499 963.98 750.863 964.44C751.4 965.303 752.095 966.056 752.911 966.66C754.292 967.65 755.782 968.478 757.352 969.128C758.781 969.961 760.449 970.291 762.088 970.065C760.644 969.577 759.235 968.992 757.87 968.313C756.449 967.572 755.102 966.696 753.848 965.698C753.186 965.148 752.612 964.498 752.146 963.774C751.929 963.47 751.777 963.125 751.701 962.76C751.624 962.395 751.625 962.017 751.702 961.652C751.702 961.43 752.812 961.652 753.602 962.096C754.478 962.484 755.306 962.973 756.069 963.552C757.315 964.487 758.456 965.554 759.473 966.734C761.003 968.807 761.891 970.188 762.113 970.114Z" fill="#263238"/>
<path d="M765.542 969.843C771.781 970.844 778.099 971.265 784.416 971.101C790.723 971.384 797.042 971.161 803.314 970.435C797.04 969.86 790.739 969.646 784.44 969.794C774.029 969.695 765.567 969.498 765.542 969.843Z" fill="#263238"/>
<path d="M884.827 428.141C884.827 428.141 886.43 422.121 881.866 385.238C879.893 369.177 868.963 359.21 857.195 353.166V352.968L856.184 352.672C846.531 348.007 836.166 344.989 825.518 343.741L784.095 343.075C784.095 343.075 753.774 339.3 734.457 360.345C715.139 381.389 701.965 393.749 701.965 393.749L732.829 430.756L741.093 422.59C741.093 422.59 740.23 439.638 745.855 449.58L759.202 473.067L750.542 514.44C745.065 530.205 727.006 587.861 734.087 644.975C742.845 715.706 744.251 736.381 744.251 736.381L844.268 750.049C844.268 750.049 884.235 600.295 870.542 540.813C861.143 499.934 853.963 501.833 851.644 492.976L854.161 429.35L884.827 428.141Z" fill="#FF725E"/>
<path d="M749.013 408.824C748.212 411.466 746.996 413.964 745.411 416.225C744.213 418.687 742.622 420.937 740.699 422.886C741.512 420.249 742.727 417.753 744.301 415.485C745.508 413.029 747.099 410.78 749.013 408.824Z" fill="#263238"/>
<path d="M838.667 486.168C837.628 486.47 836.562 486.676 835.485 486.784C833.412 487.13 830.403 487.524 826.702 487.895C817.006 488.877 807.26 489.281 797.516 489.103C787.769 488.92 778.04 488.17 768.38 486.858C764.679 486.34 761.694 485.847 759.646 485.452C758.562 485.307 757.495 485.05 756.464 484.687C757.555 484.681 758.645 484.772 759.72 484.959L768.478 485.97C775.88 486.76 786.167 487.598 797.541 487.821C808.914 488.043 819.177 487.524 826.603 486.982L835.411 486.291C836.488 486.125 837.581 486.083 838.667 486.168Z" fill="#263238"/>
<path d="M872.368 598.248C872.313 598.909 872.189 599.562 871.998 600.197C871.653 601.603 871.208 603.478 870.641 605.822C870.32 607.031 870 608.289 869.629 609.843C869.259 611.398 868.643 612.878 868.1 614.58C866.965 617.936 865.855 621.858 864.054 625.954L861.389 632.467C860.452 634.712 859.243 636.957 858.108 639.35C855.912 644.136 853.001 648.972 850.065 654.153C836.715 676.208 819.102 695.381 798.256 710.551C793.322 713.906 788.807 717.212 784.194 719.778C781.924 721.11 779.778 722.491 777.607 723.626L771.34 726.809C767.417 728.955 763.593 730.361 760.337 731.743C758.709 732.434 757.179 733.1 755.773 733.643L751.825 734.975L746.348 736.8C745.724 737.036 745.08 737.218 744.424 737.343C745.011 737.015 745.631 736.751 746.274 736.554L751.653 734.506L755.551 733.075C756.957 732.508 758.437 731.792 760.065 731.077C763.273 729.597 767.047 728.141 770.945 725.945L777.138 722.689C779.284 721.554 781.406 720.222 783.651 718.815C788.215 716.225 792.73 712.894 797.565 709.539C818.238 694.382 835.76 675.343 849.153 653.486C852.113 648.404 855.049 643.618 857.245 638.857C858.404 636.389 859.712 634.292 860.575 632.047C861.439 629.802 862.45 627.656 863.314 625.608C865.164 621.537 866.324 617.689 867.532 614.358C868.1 612.681 868.692 611.126 869.136 609.671C869.58 608.215 869.926 606.883 870.246 605.674L871.85 600.148C871.98 599.504 872.153 598.869 872.368 598.248Z" fill="#263238"/>
<path d="M883.248 406.554C882.761 406.922 882.231 407.229 881.669 407.467C880.633 408.01 879.202 408.824 877.056 409.786C871.365 412.682 865.268 414.695 858.972 415.756C854.568 416.39 850.082 416.147 845.773 415.041C843.356 414.4 841.051 413.393 838.939 412.056C836.734 410.592 834.763 408.803 833.092 406.751C829.8 402.252 826.839 397.519 824.235 392.59C821.348 387.656 817.598 382.722 811.899 380.847C806.2 378.972 800.205 380.378 794.753 381.932C789.46 383.785 783.957 384.97 778.371 385.46C775.04 385.581 771.72 385.002 768.626 383.761C765.532 382.519 762.733 380.644 760.408 378.254C758.084 375.864 756.286 373.014 755.13 369.887C753.975 366.76 753.488 363.425 753.7 360.099C753.869 357.342 754.494 354.632 755.551 352.08C756.384 349.885 757.651 347.88 759.276 346.184C757.984 348.098 756.893 350.14 756.019 352.278C755.059 354.796 754.517 357.455 754.416 360.148C754.314 363.334 754.864 366.507 756.033 369.472C757.201 372.437 758.964 375.132 761.212 377.392C763.46 379.651 766.146 381.428 769.105 382.612C772.064 383.795 775.235 384.362 778.421 384.276C783.902 383.757 789.298 382.556 794.482 380.699C797.32 379.829 800.224 379.194 803.166 378.799C806.266 378.39 809.418 378.676 812.393 379.638C815.348 380.693 818.005 382.445 820.139 384.745C822.15 386.947 823.912 389.362 825.394 391.949C827.965 396.829 830.867 401.527 834.079 406.011C837.138 409.901 841.368 412.703 846.143 414.005C850.312 415.133 854.664 415.427 858.947 414.868C865.177 413.89 871.235 412.021 876.932 409.317L881.644 407.22C882.163 406.961 882.698 406.738 883.248 406.554Z" fill="white"/>
<path d="M824.556 493.963C825.402 492.699 825.997 491.283 826.307 489.794C826.552 487.754 826.334 485.685 825.667 483.741C825.001 481.797 823.904 480.029 822.459 478.569C820.471 476.534 818.026 475.004 815.329 474.103C812.208 473.052 808.981 472.349 805.707 472.006C802.228 471.537 798.503 471.266 794.704 470.452C790.698 469.726 786.909 468.098 783.626 465.69C781.995 464.389 780.616 462.8 779.556 461.003C778.561 459.268 777.735 457.442 777.089 455.55C776.072 452.051 774.726 448.656 773.067 445.411C771.511 442.792 769.322 440.607 766.701 439.055C764.08 437.503 761.111 436.635 758.067 436.529C753.9 436.453 749.827 437.773 746.496 440.279C745.307 441.236 744.178 442.266 743.116 443.363C743.116 443.363 743.289 442.993 743.758 442.351C744.494 441.447 745.321 440.62 746.225 439.884C749.57 437.118 753.776 435.608 758.116 435.616C761.34 435.67 764.497 436.54 767.292 438.145C770.088 439.75 772.431 442.038 774.103 444.794C775.83 448.097 777.234 451.559 778.297 455.131C779.366 458.847 781.502 462.167 784.44 464.679C787.563 466.954 791.153 468.505 794.95 469.218C798.651 470.032 802.352 470.328 805.83 470.846C812.787 471.71 819.399 473.708 823.1 477.952C824.601 479.518 825.715 481.413 826.353 483.486C826.992 485.56 827.136 487.753 826.776 489.893C826.523 491.04 826.035 492.124 825.345 493.075C825.117 493.4 824.852 493.698 824.556 493.963Z" fill="white"/>
<path d="M863.264 669.177C859.972 668.85 856.649 668.991 853.396 669.596C849.59 670.38 845.826 671.359 842.121 672.532C837.189 674.178 832.046 675.108 826.85 675.295C820.51 675.418 814.218 674.181 808.396 671.669C801.635 668.842 795.829 664.132 791.669 658.1C787.222 651.263 785.327 643.078 786.315 634.983C786.799 630.721 788.097 626.592 790.139 622.82C792.261 618.916 795.238 615.542 798.848 612.952C802.352 610.336 806.25 608.017 808.001 604.391C808.889 602.605 809.183 600.582 808.84 598.618C808.447 596.629 807.782 594.703 806.866 592.894C804.784 589.334 803.379 585.419 802.722 581.348C802.341 577.368 802.934 573.354 804.449 569.654C807.355 562.848 812.797 557.442 819.621 554.58C825.46 552.093 831.785 550.954 838.125 551.249C843.251 551.516 848.392 551.367 853.495 550.805C857.321 550.269 860.969 548.85 864.152 546.661C866.189 545.282 867.878 543.449 869.087 541.307C869.876 539.827 870.049 538.963 870.148 538.988C869.994 539.848 869.712 540.68 869.309 541.455C868.188 543.687 866.546 545.616 864.523 547.08C861.31 549.393 857.601 550.923 853.692 551.545C848.554 552.19 843.372 552.405 838.199 552.187C831.994 551.949 825.815 553.104 820.115 555.567C813.587 558.38 808.404 563.616 805.657 570.172C804.219 573.694 803.669 577.514 804.054 581.299C804.706 585.233 806.077 589.013 808.1 592.45C809.078 594.354 809.777 596.39 810.172 598.494C810.578 600.718 810.249 603.012 809.235 605.032C807.138 609.128 803.141 611.471 799.712 614.037C796.33 616.499 793.509 619.65 791.434 623.281C789.359 626.913 788.077 630.943 787.672 635.106C786.732 642.873 788.529 650.725 792.754 657.31C796.777 663.174 802.381 667.776 808.914 670.583C814.602 673.059 820.746 674.311 826.949 674.259C832.073 674.161 837.158 673.33 842.047 671.792C845.782 670.661 849.58 669.746 853.421 669.054C855.862 668.62 858.35 668.503 860.822 668.708C861.649 668.788 862.467 668.945 863.264 669.177Z" fill="white"/>
<path d="M828.355 747.853C828.231 747.853 828.355 746.126 828.527 743.042C828.767 738.715 827.998 734.391 826.282 730.411C825.069 727.739 822.944 725.587 820.287 724.342C817.147 723.126 813.779 722.612 810.419 722.837C806.505 723.151 802.568 722.664 798.848 721.406C796.926 720.513 795.237 719.187 793.914 717.532C792.599 715.851 791.459 714.041 790.509 712.129C788.887 708.396 786.762 704.901 784.194 701.743C781.712 698.897 778.737 696.524 775.411 694.736C769.747 691.682 763.253 690.523 756.883 691.43C752.585 692.044 748.451 693.503 744.72 695.723C742.105 697.327 740.822 698.486 740.748 698.412C740.674 698.338 741.019 698.067 741.611 697.499C745.877 693.757 751.141 691.339 756.759 690.542C763.331 689.46 770.075 690.57 775.953 693.7C779.432 695.513 782.544 697.955 785.131 700.904C786.494 702.43 787.708 704.082 788.758 705.838C789.794 707.664 790.682 709.564 791.644 711.439C793.146 715.155 795.893 718.234 799.416 720.147C802.978 721.346 806.744 721.824 810.493 721.554C814.054 721.35 817.617 721.931 820.929 723.256C823.771 724.654 826.026 727.014 827.294 729.917C828.972 734.05 829.632 738.526 829.218 742.968C829.095 744.522 828.947 745.731 828.799 746.521C828.693 746.978 828.545 747.424 828.355 747.853Z" fill="white"/>
<path d="M769.169 543.824C768.58 545.278 767.905 546.695 767.146 548.067C765.157 551.789 763.909 555.86 763.47 560.057C763.307 562.925 763.93 565.782 765.271 568.322C766.938 571.229 768.818 574.008 770.896 576.636C773.258 579.807 774.965 583.417 775.918 587.254C776.871 591.092 777.051 595.08 776.447 598.988C775.812 602.923 774.251 606.651 771.891 609.864C769.532 613.077 766.443 615.683 762.878 617.467C759.782 619.047 756.362 619.892 752.886 619.934C749.193 619.893 745.572 618.911 742.364 617.081C739.157 615.25 736.469 612.632 734.555 609.473C733.978 608.461 733.499 607.395 733.125 606.291C732.973 605.904 732.881 605.496 732.853 605.082C733.497 606.499 734.214 607.883 735 609.227C737.306 612.754 740.613 615.512 744.498 617.146C747.132 618.306 749.984 618.887 752.861 618.848C756.175 618.769 759.426 617.924 762.36 616.381C765.729 614.656 768.645 612.162 770.874 609.103C773.102 606.043 774.58 602.502 775.189 598.766C776.343 591.179 774.445 583.443 769.909 577.253C767.827 574.563 765.955 571.718 764.309 568.741C762.931 566.021 762.325 562.975 762.557 559.934C763.078 555.643 764.49 551.509 766.702 547.796C767.442 546.463 768.034 545.452 768.478 544.786C768.676 544.443 768.908 544.121 769.169 543.824Z" fill="white"/>
<path d="M843.503 461.052C843.299 460.087 843.2 459.103 843.207 458.117C843.207 455.945 842.96 453.182 842.812 450.074C842.467 443.018 842.023 433.816 841.529 423.626C841.036 413.437 840.69 403.89 840.616 397.13C840.616 393.725 840.616 390.987 840.616 389.087C840.569 388.096 840.635 387.102 840.814 386.126C841.034 387.097 841.133 388.092 841.11 389.087C841.233 391.233 841.356 394.021 841.529 397.105C841.85 404.161 842.294 413.363 842.812 423.552C843.33 433.742 843.626 443.289 843.7 450.049C843.7 453.454 843.7 456.192 843.7 458.092C843.748 459.083 843.682 460.076 843.503 461.052Z" fill="#263238"/>
<path d="M842.639 429.794C842.639 429.794 846.759 479.58 842.022 483.034C815.649 501.463 780.592 508.865 768.009 511.06C766.258 510.419 764.235 509.654 761.891 508.593C759.862 507.69 758.001 506.447 756.389 504.917C754.313 503.094 752.488 501.004 750.962 498.7C750.779 498.195 750.436 497.763 749.984 497.47C749.533 497.178 748.999 497.04 748.463 497.079C747.926 497.119 747.417 497.332 747.013 497.687C746.61 498.042 746.333 498.519 746.225 499.046C745.904 501.34 749.013 507.656 755.452 512.689C761.891 517.722 749.235 518.018 744.621 518.19C740.008 518.363 725.797 519.621 724.761 521.126C723.231 523.297 725.255 525.419 729.868 525.123C734.481 524.827 748.297 524.95 748.322 527.442C748.347 529.934 724.86 530.501 724.86 530.501C724.86 530.501 719.926 529.81 719.753 532.672C719.605 537.853 744.424 535.337 746.891 535.139C748.544 534.942 748.643 537.606 746.891 537.779C745.139 537.952 723.478 537.779 723.281 543.083C723.133 547.129 743.758 541.208 748.273 543.774C752.787 546.34 732.162 546.636 732.187 550.509C732.187 551.965 732.384 552.977 744.177 551.126C752.616 549.367 760.951 547.143 769.144 544.465V544.588C769.144 544.588 891.784 534.079 888.7 478.791C886.628 441.365 887.319 448.273 885.024 428.61" fill="#B78876"/>
</svg>
